<svg width="640" height="640" fill="none" xmlns="http://www.w3.org/2000/svg"><g clip-path="url(#a)"><g filter="url(#b)"><rect x="48" y="48" width="334.77" height="224.92" rx="20.92" fill="#fff"/></g><rect x="48" y="48" width="334.77" height="225.54" rx="20.92" fill="#fff"/><path d="M143.8 72.32h5.31c.95 0 1.8.15 2.58.46.78.3 1.44.77 1.98 1.38.56.6.99 1.36 1.28 2.28.3.9.46 1.97.46 3.18 0 1.21-.15 2.28-.46 3.2-.3.9-.72 1.67-1.28 2.28a5.1 5.1 0 0 1-1.98 1.36c-.77.31-1.63.46-2.58.46h-5.31v-14.6Zm5.31 12.16a3.3 3.3 0 0 0 2.45-.9c.61-.62.92-1.55.92-2.8v-2.31c0-1.26-.3-2.18-.92-2.78a3.26 3.26 0 0 0-2.45-.92h-2.55v9.7h2.55ZM159.4 74.4c-.55 0-.96-.12-1.2-.38a1.35 1.35 0 0 1-.36-.96v-.42c0-.39.11-.7.35-.96.25-.25.66-.38 1.22-.38.54 0 .94.13 1.19.38s.37.57.37.96v.42c0 .4-.12.71-.37.96-.25.26-.65.38-1.2.38Zm-1.33 1.6h2.67v10.91h-2.67V76Zm13.81 10.91c-.58 0-1.05-.16-1.4-.5a2.5 2.5 0 0 1-.63-1.38h-.12a2.6 2.6 0 0 1-1.11 1.61c-.56.35-1.25.52-2.07.52-1.12 0-1.98-.29-2.58-.87-.6-.59-.9-1.37-.9-2.35 0-1.13.4-1.96 1.22-2.5.8-.57 1.96-.85 3.45-.85h1.86v-.8c0-.6-.16-1.08-.48-1.41-.32-.34-.84-.5-1.55-.5-.63 0-1.13.13-1.52.41-.38.27-.7.59-.97.97l-1.59-1.43c.4-.63.94-1.13 1.61-1.5.67-.4 1.56-.59 2.66-.59 1.48 0 2.6.33 3.37 1 .77.67 1.15 1.64 1.15 2.9v5.14h1.09v2.13h-1.49Zm-4.43-1.7c.6 0 1.1-.12 1.53-.39.41-.26.62-.65.62-1.17v-1.44h-1.71c-1.4 0-2.1.44-2.1 1.33v.36c0 .45.14.78.42 1 .3.21.7.32 1.24.32Zm10.76 1.7c-.92 0-1.6-.23-2.02-.69a2.73 2.73 0 0 1-.65-1.94V71.44h2.67v13.35h1.45v2.13h-1.45Zm7.8.25c-.77 0-1.48-.13-2.1-.4a4.47 4.47 0 0 1-1.6-1.14c-.43-.5-.76-1.1-1-1.8a7.52 7.52 0 0 1-.36-2.39c0-.88.12-1.67.36-2.36.24-.7.57-1.3 1-1.78.45-.5.98-.89 1.6-1.15.62-.27 1.33-.4 2.1-.4.79 0 1.5.13 2.12.4.63.26 1.16.65 1.6 1.15a5.1 5.1 0 0 1 1.02 1.78c.23.7.35 1.48.35 2.36 0 .88-.12 1.68-.35 2.39-.24.7-.58 1.3-1.03 1.8-.43.5-.96.88-1.59 1.15-.63.26-1.33.4-2.11.4Zm0-2.15c.72 0 1.28-.22 1.68-.65.4-.43.6-1.07.6-1.9v-2.03c0-.83-.2-1.45-.6-1.89-.4-.43-.96-.64-1.67-.64-.7 0-1.25.21-1.66.64-.4.44-.6 1.06-.6 1.89v2.03c0 .83.2 1.47.6 1.9.4.43.96.65 1.66.65Zm17.32 2.82c0 .58-.1 1.08-.31 1.51-.2.45-.53.82-.99 1.1a5.4 5.4 0 0 1-1.78.68c-.72.15-1.6.23-2.65.23-.92 0-1.7-.06-2.35-.19a5.35 5.35 0 0 1-1.59-.5 2 2 0 0 1-.87-.8 2.17 2.17 0 0 1-.28-1.08 2 2 0 0 1 .5-1.45 2.7 2.7 0 0 1 1.45-.65v-.23c-.45-.1-.8-.32-1.05-.65a1.98 1.98 0 0 1-.19-1.9c.12-.22.26-.41.44-.56a3.41 3.41 0 0 1 1.4-.63v-.09a3.34 3.34 0 0 1-1.5-1.27 3.68 3.68 0 0 1-.48-1.9c0-1.12.38-2.02 1.15-2.68.77-.69 1.89-1.03 3.37-1.03.33 0 .66.02.98.06.34.04.64.11.92.21v-.35c0-1.06.52-1.6 1.55-1.6h1.7v2.06h-2.33v.29c.57.32 1 .74 1.28 1.26.28.51.42 1.1.42 1.77 0 1.1-.39 2-1.15 2.66-.76.67-1.88 1-3.37 1-.64 0-1.2-.06-1.68-.18-.2.1-.39.23-.54.4a.8.8 0 0 0-.23.58c0 .54.47.82 1.42.82h2.93c1.34 0 2.31.28 2.91.83.61.55.92 1.3.92 2.28Zm-2.51.32a.94.94 0 0 0-.42-.82c-.28-.2-.76-.3-1.44-.3h-3.73c-.37.29-.56.66-.56 1.14 0 .42.17.74.52.98s.94.36 1.78.36h1.34c.88 0 1.51-.11 1.9-.34.4-.22.61-.56.61-1.02Zm-3.22-6.87c1.3 0 1.97-.55 1.97-1.67v-.35c0-1.12-.66-1.68-1.97-1.68s-1.97.56-1.97 1.68v.35c0 1.12.66 1.67 1.97 1.67Zm21.24-.54h-6.09v6.17h-2.76v-14.6h2.76v5.98h6.09v-5.98h2.76v14.6h-2.76v-6.17Zm10.43 6.42a4.8 4.8 0 0 1-3.79-1.55 5.6 5.6 0 0 1-1-1.8 7.52 7.52 0 0 1-.35-2.38c0-.86.11-1.64.33-2.34.24-.7.58-1.3 1-1.78.44-.5.97-.89 1.6-1.15a5.2 5.2 0 0 1 2.13-.42c.85 0 1.6.15 2.22.44.63.3 1.14.69 1.55 1.2.4.5.7 1.08.9 1.75.2.66.31 1.36.31 2.11v.88h-7.26v.27c0 .8.22 1.44.67 1.93.45.47 1.11.71 1.99.71.67 0 1.21-.14 1.63-.42.43-.28.82-.63 1.15-1.07l1.44 1.62a4.56 4.56 0 0 1-1.84 1.48c-.76.35-1.66.52-2.68.52Zm-.04-9.41c-.7 0-1.27.24-1.7.71a2.68 2.68 0 0 0-.62 1.84v.17h4.48v-.19c0-.75-.19-1.36-.57-1.82-.36-.47-.89-.71-1.59-.71Zm15.33 9.16c-.58 0-1.05-.16-1.4-.5a2.5 2.5 0 0 1-.63-1.38h-.12a2.6 2.6 0 0 1-1.11 1.61c-.56.35-1.25.52-2.07.52-1.12 0-1.98-.29-2.58-.87-.6-.59-.9-1.37-.9-2.35 0-1.13.4-1.96 1.22-2.5.8-.57 1.96-.85 3.45-.85h1.86v-.8c0-.6-.16-1.08-.48-1.41-.32-.34-.84-.5-1.55-.5-.63 0-1.14.13-1.53.41-.37.27-.7.59-.96.97l-1.59-1.43c.4-.63.94-1.13 1.61-1.5.67-.4 1.56-.59 2.66-.59 1.48 0 2.6.33 3.37 1 .77.67 1.15 1.64 1.15 2.9v5.14h1.09v2.13h-1.49Zm-4.43-1.7c.6 0 1.1-.12 1.52-.39.42-.26.63-.65.63-1.17v-1.44h-1.71c-1.4 0-2.1.44-2.1 1.33v.36c0 .45.14.78.42 1 .3.21.7.32 1.24.32Zm14.86-.12h-.1a2.8 2.8 0 0 1-1.1 1.5c-.55.39-1.19.57-1.91.57-1.38 0-2.44-.5-3.18-1.48-.73-1-1.1-2.4-1.1-4.25 0-1.83.37-3.23 1.1-4.2a3.73 3.73 0 0 1 3.18-1.49c.72 0 1.36.19 1.9.57.54.36.91.85 1.11 1.48h.1v-6.36h2.68v15.48h-2.68V85.1Zm-2.25-.14c.64 0 1.17-.16 1.6-.46.44-.31.65-.75.65-1.32V79.7c0-.53-.21-.95-.64-1.27a2.63 2.63 0 0 0-1.62-.48c-.7 0-1.26.23-1.69.7a2.66 2.66 0 0 0-.63 1.87v1.88c0 .78.21 1.4.63 1.87.43.46 1 .69 1.7.69Zm9.36-10.55c-.56 0-.96-.12-1.21-.38a1.35 1.35 0 0 1-.36-.96v-.42c0-.39.12-.7.36-.96.25-.25.65-.38 1.21-.38.54 0 .94.13 1.2.38.24.25.37.57.37.96v.42c0 .4-.13.71-.38.96-.25.26-.65.38-1.19.38Zm-1.34 1.6h2.68v10.91h-2.68V76Zm5.78 10.91V76h2.68v1.82h.1c.23-.58.58-1.07 1.05-1.46a3.1 3.1 0 0 1 2.01-.61c1.13 0 2 .37 2.6 1.1.6.75.9 1.8.9 3.17v6.9h-2.68V80.3c0-.78-.14-1.37-.42-1.76-.28-.39-.74-.58-1.38-.58a2.7 2.7 0 0 0-1.5.46c-.2.14-.37.32-.49.54a1.4 1.4 0 0 0-.19.75v7.22h-2.68Zm22.16.92c0 .58-.1 1.08-.31 1.51-.2.45-.53.82-.99 1.1-.46.3-1.05.53-1.78.68-.72.15-1.6.23-2.65.23-.92 0-1.7-.06-2.35-.19a5.35 5.35 0 0 1-1.59-.5 2.1 2.1 0 0 1-.88-.8 2.18 2.18 0 0 1-.27-1.08 2 2 0 0 1 .5-1.45c.35-.33.83-.55 1.45-.65v-.23c-.45-.1-.8-.32-1.05-.65a1.98 1.98 0 0 1-.35-1.17c0-.28.05-.52.16-.73.11-.22.26-.41.44-.56a3.41 3.41 0 0 1 1.4-.63v-.09a3.34 3.34 0 0 1-1.5-1.27 3.69 3.69 0 0 1-.48-1.9c0-1.12.38-2.02 1.15-2.68.76-.69 1.89-1.03 3.37-1.03.33 0 .66.02.98.06.33.04.64.11.92.21v-.35c0-1.06.52-1.6 1.55-1.6h1.7v2.06h-2.33v.29c.57.32 1 .74 1.28 1.26.28.51.42 1.1.42 1.77 0 1.1-.39 2-1.16 2.66-.75.67-1.87 1-3.36 1-.65 0-1.2-.06-1.68-.18-.2.1-.39.23-.54.4a.8.8 0 0 0-.23.58c0 .54.47.82 1.42.82h2.93c1.34 0 2.3.28 2.9.83.62.55.93 1.3.93 2.28Zm-2.51.32a.94.94 0 0 0-.42-.82c-.28-.2-.76-.3-1.44-.3h-3.73c-.38.29-.56.66-.56 1.14 0 .42.17.74.52.98s.94.36 1.78.36h1.34c.88 0 1.51-.11 1.9-.34.4-.22.6-.56.6-1.02Zm-3.22-6.87c1.3 0 1.96-.55 1.96-1.67v-.35c0-1.12-.65-1.68-1.96-1.68-1.32 0-1.97.56-1.97 1.68v.35c0 1.12.65 1.67 1.97 1.67Zm-190.2 36.79h5.25c1.06 0 1.9.3 2.5.9.6.6.9 1.4.9 2.4 0 .47-.06.87-.2 1.2-.13.33-.3.6-.5.83a2.3 2.3 0 0 1-1.36.67v.11c.23.01.49.07.77.18.3.11.57.3.82.54.26.23.47.53.64.91.19.37.28.81.28 1.34a4.1 4.1 0 0 1-.94 2.63c-.29.33-.64.6-1.04.8-.4.17-.84.27-1.32.27h-5.8v-12.78Zm1.54 11.42h3.79c.66 0 1.17-.16 1.55-.5.38-.34.57-.83.57-1.48v-.62c0-.64-.19-1.13-.57-1.46a2.2 2.2 0 0 0-1.55-.52h-3.8v4.58Zm0-5.9h3.53a2.1 2.1 0 0 0 1.43-.45c.34-.3.51-.75.51-1.32v-.62c0-.58-.17-1.02-.51-1.32a2.1 2.1 0 0 0-1.43-.46h-3.53v4.18Zm13.84 7.48c-.63 0-1.21-.12-1.74-.35a3.88 3.88 0 0 1-1.35-1 4.93 4.93 0 0 1-.86-1.55c-.2-.6-.31-1.3-.31-2.05 0-.74.1-1.42.3-2.03.22-.61.5-1.13.87-1.56.38-.44.83-.77 1.35-1a4.3 4.3 0 0 1 1.74-.35c.64 0 1.21.12 1.72.35.53.23.98.56 1.36 1 .38.43.67.95.88 1.56.2.61.3 1.29.3 2.03 0 .76-.1 1.44-.3 2.05-.21.6-.5 1.12-.88 1.56a4.13 4.13 0 0 1-3.07 1.34Zm0-1.3c.8 0 1.44-.25 1.94-.74s.75-1.23.75-2.23v-1.36c0-1-.25-1.74-.75-2.23a2.66 2.66 0 0 0-1.94-.73c-.8 0-1.44.24-1.94.73s-.75 1.23-.75 2.23v1.36c0 1 .25 1.74.75 2.23.5.5 1.15.74 1.94.74Zm12.72-.46h-.08a2.88 2.88 0 0 1-2.76 1.76 3.53 3.53 0 0 1-2.82-1.34 4.75 4.75 0 0 1-.77-1.56 7.6 7.6 0 0 1-.25-2.05c0-.75.08-1.44.25-2.05.19-.6.44-1.13.77-1.55a3.53 3.53 0 0 1 2.82-1.34c.66 0 1.22.15 1.69.44.47.28.83.72 1.08 1.32h.07v-5.64h1.46v13.55h-1.46v-1.54Zm-2.44.44c.33 0 .64-.04.94-.13.3-.09.56-.2.78-.37a1.76 1.76 0 0 0 .72-1.43v-3.51c0-.26-.07-.5-.2-.71-.13-.24-.3-.43-.52-.59a2.5 2.5 0 0 0-.78-.37c-.3-.1-.6-.14-.94-.14-.83 0-1.48.26-1.96.78a2.87 2.87 0 0 0-.7 2.04v1.6c0 .85.23 1.53.7 2.06.48.51 1.13.77 1.96.77Zm12.84-8.35h1.44l-4.22 11.64a4.8 4.8 0 0 1-.33.7c-.11.2-.25.35-.4.46a1.6 1.6 0 0 1-.61.23c-.23.05-.52.08-.86.08h-.75v-1.28h1.48l.72-2.02-3.54-9.81h1.47l2.27 6.42.44 1.54h.09l.51-1.54 2.29-6.42Zm11.16 9.67c-.66 0-1.26-.12-1.78-.35a3.71 3.71 0 0 1-1.34-1 4.6 4.6 0 0 1-.82-1.55 7.1 7.1 0 0 1-.28-2.05c0-.75.1-1.44.28-2.05a3.8 3.8 0 0 1 2.16-2.55 4.35 4.35 0 0 1 1.78-.34c.93 0 1.69.2 2.25.62.57.4 1 .94 1.28 1.6l-1.23.62a2.22 2.22 0 0 0-.84-1.14c-.4-.27-.88-.4-1.46-.4-.44 0-.83.07-1.16.22-.33.13-.6.33-.82.58-.22.25-.39.55-.5.9a3.7 3.7 0 0 0-.16 1.14v1.6c0 .84.22 1.52.66 2.06.45.52 1.1.79 1.98.79 1.18 0 2.03-.55 2.56-1.65l1.06.71c-.3.69-.76 1.23-1.37 1.63-.6.4-1.35.6-2.25.6Zm9.15 0c-.64 0-1.22-.12-1.74-.35a3.88 3.88 0 0 1-1.35-1 4.93 4.93 0 0 1-.87-1.55c-.2-.6-.3-1.3-.3-2.05 0-.74.1-1.42.3-2.03.21-.61.5-1.13.87-1.56a3.7 3.7 0 0 1 1.35-1 4.3 4.3 0 0 1 1.74-.35c.63 0 1.2.12 1.72.35.53.23.98.56 1.36 1 .37.43.67.95.87 1.56.21.61.32 1.29.32 2.03a6 6 0 0 1-.32 2.05c-.2.6-.5 1.12-.87 1.56a4.13 4.13 0 0 1-3.08 1.34Zm0-1.3c.8 0 1.44-.25 1.94-.74s.75-1.23.75-2.23v-1.36c0-1-.25-1.74-.75-2.23a2.66 2.66 0 0 0-1.94-.73c-.8 0-1.44.24-1.94.73s-.75 1.23-.75 2.23v1.36c0 1 .25 1.74.75 2.23.5.5 1.15.74 1.94.74Zm6.67-8.37h1.47v1.54h.07c.25-.6.6-1.04 1.06-1.32.48-.3 1.05-.44 1.7-.44a3.37 3.37 0 0 1 2.8 1.34c.35.42.6.94.78 1.55.18.61.27 1.3.27 2.05 0 .76-.09 1.44-.27 2.05a4.34 4.34 0 0 1-.77 1.56 3.38 3.38 0 0 1-2.8 1.34c-1.28 0-2.2-.59-2.77-1.76h-.07v5.2h-1.47V121.4Zm3.9 8.35c.83 0 1.49-.26 1.96-.77.48-.53.72-1.21.72-2.05v-1.61c0-.84-.24-1.52-.72-2.03a2.51 2.51 0 0 0-1.96-.8 3.12 3.12 0 0 0-1.72.52c-.22.16-.4.35-.53.59-.12.22-.18.45-.18.71v3.52c0 .3.06.58.18.82a2.06 2.06 0 0 0 1.3.97c.3.09.62.13.95.13Zm12.46-8.35h1.44l-4.23 11.64c-.1.28-.22.52-.33.7-.1.2-.24.35-.4.46a1.6 1.6 0 0 1-.6.23 4.2 4.2 0 0 1-.86.08h-.75v-1.28h1.48l.71-2.02-3.53-9.81H169l2.28 6.42.43 1.54h.1l.5-1.54 2.3-6.42Zm11.19 9.67a3.92 3.92 0 0 1-3.1-1.34 4.91 4.91 0 0 1-.85-1.56c-.2-.6-.3-1.3-.3-2.05 0-.74.1-1.42.3-2.03.2-.61.49-1.13.86-1.56a3.82 3.82 0 0 1 3.09-1.35 3.7 3.7 0 0 1 2.98 1.32c.36.4.63.88.8 1.44.2.57.3 1.18.3 1.85v.7h-6.79v.44c0 .4.06.78.18 1.13.14.34.32.64.55.9.25.26.54.46.88.6.36.15.75.22 1.2.22a2.74 2.74 0 0 0 2.6-1.63l1.03.76a3.7 3.7 0 0 1-1.42 1.57c-.65.4-1.42.59-2.31.59Zm0-8.66a2.68 2.68 0 0 0-1.96.8 3.09 3.09 0 0 0-.75 2.05v.13h5.22v-.2a2.9 2.9 0 0 0-.7-2.02 2.3 2.3 0 0 0-1.81-.76Zm5.1 8.44 3.5-4.76-3.34-4.7h1.72l2.4 3.52h.05l2.49-3.51h1.63l-3.33 4.58 3.4 4.87h-1.72l-2.45-3.7h-.06l-2.65 3.7h-1.63Zm10.46-9.45h1.46v1.54h.08c.24-.6.6-1.04 1.06-1.32a3.1 3.1 0 0 1 1.7-.44 3.37 3.37 0 0 1 2.8 1.34c.35.42.6.94.77 1.55.19.61.28 1.3.28 2.05 0 .76-.1 1.44-.28 2.05a4.32 4.32 0 0 1-.77 1.56 3.37 3.37 0 0 1-2.8 1.34c-1.28 0-2.2-.59-2.76-1.76h-.08v5.2h-1.46V121.4Zm3.9 8.35c.83 0 1.48-.26 1.96-.77.47-.53.71-1.21.71-2.05v-1.61c0-.84-.24-1.52-.71-2.03a2.51 2.51 0 0 0-1.96-.8 3.13 3.13 0 0 0-1.72.52c-.22.16-.4.35-.53.59-.13.22-.19.45-.19.71v3.52c0 .3.06.58.19.82a2.1 2.1 0 0 0 1.3.97c.3.09.62.13.95.13Zm8.28 1.1c-.52 0-.9-.14-1.18-.42a1.6 1.6 0 0 1-.38-1.1V117.3h1.46v12.27h1.4v1.28h-1.3Zm10.3 0c-.56 0-.95-.15-1.2-.44-.23-.3-.38-.66-.44-1.1h-.09c-.2.58-.55 1.02-1.02 1.32-.48.29-1.05.44-1.7.44-1 0-1.79-.26-2.35-.77a2.72 2.72 0 0 1-.82-2.09c0-.9.32-1.58.97-2.05.66-.48 1.68-.72 3.06-.72h1.86v-.93c0-.67-.18-1.18-.55-1.54-.36-.35-.93-.53-1.68-.53-.57 0-1.06.13-1.45.39-.38.25-.7.6-.95 1.02l-.88-.82c.26-.51.67-.95 1.23-1.3a3.82 3.82 0 0 1 2.12-.55 3.9 3.9 0 0 1 2.68.84c.63.56.95 1.34.95 2.34v5.2h1.08v1.29h-.83Zm-4.22-1.03c.37 0 .7-.04 1-.13.31-.08.58-.2.8-.36.22-.16.39-.34.5-.55.13-.21.2-.44.2-.68v-1.56h-1.95a3.6 3.6 0 0 0-1.85.37c-.38.24-.56.6-.56 1.06v.39c0 .46.16.82.49 1.08.34.25.8.38 1.37.38Zm7.86-10.64c-.32 0-.55-.07-.7-.22a.9.9 0 0 1-.2-.6v-.24c0-.24.07-.44.2-.58.15-.16.38-.24.7-.24.32 0 .54.08.68.24a.8.8 0 0 1 .22.58v.24c0 .24-.08.45-.22.6-.14.15-.36.22-.68.22Zm-.73 2.22h1.46v9.45h-1.46v-9.45Zm4.57 9.45v-9.45h1.47v1.54h.07c.23-.54.56-.97.97-1.28.43-.32 1-.48 1.7-.48.98 0 1.75.32 2.31.95.57.62.86 1.5.86 2.66v6.06h-1.46v-5.8c0-1.7-.72-2.55-2.14-2.55-.3 0-.58.03-.86.1a2.5 2.5 0 0 0-.74.34c-.22.14-.4.33-.53.56a1.6 1.6 0 0 0-.18.8v6.55h-1.47Zm11.14-11.67c-.32 0-.55-.07-.7-.22a.9.9 0 0 1-.2-.6v-.24c0-.24.07-.44.2-.58.15-.16.38-.24.7-.24.32 0 .54.08.68.24a.8.8 0 0 1 .22.58v.24c0 .24-.07.45-.22.6-.13.15-.36.22-.68.22Zm-.73 2.22h1.46v9.45h-1.46v-9.45Zm4.58 9.45v-9.45h1.46v1.54h.07c.24-.54.56-.97.97-1.28.43-.32 1-.48 1.7-.48.98 0 1.75.32 2.31.95.58.62.86 1.5.86 2.66v6.06h-1.46v-5.8c0-1.7-.71-2.55-2.14-2.55-.3 0-.58.03-.86.1a2.5 2.5 0 0 0-.73.34c-.23.14-.4.33-.54.56a1.6 1.6 0 0 0-.18.8v6.55h-1.46Zm18.37 1.04c0 .98-.39 1.69-1.16 2.14-.75.47-1.9.7-3.42.7-1.48 0-2.54-.2-3.19-.6a1.95 1.95 0 0 1-.97-1.73c0-.51.14-.91.4-1.2a2.4 2.4 0 0 1 1.1-.63v-.2c-.56-.27-.84-.7-.84-1.32 0-.47.15-.83.46-1.08.3-.25.7-.44 1.17-.57v-.07c-.56-.27-1-.65-1.32-1.15a3.53 3.53 0 0 1-.2-3.06 3 3 0 0 1 .72-1.03c.31-.29.69-.51 1.11-.67.44-.16.93-.24 1.47-.24.67 0 1.27.12 1.8.37v-.17c0-.36.08-.66.25-.9.17-.24.45-.36.84-.36h1.4v1.28h-1.79v.6a3.11 3.11 0 0 1 1.08 2.43c0 .48-.08.92-.25 1.33a3 3 0 0 1-1.85 1.7 4.28 4.28 0 0 1-2.38.15c-.32.08-.6.2-.86.38a.75.75 0 0 0-.38.68c0 .28.13.47.4.57.27.1.61.14 1.04.14h2.01c1.18 0 2.03.23 2.55.68.54.44.8 1.05.8 1.83Zm-1.38.11c0-.38-.14-.68-.44-.92-.28-.22-.78-.33-1.52-.33h-3.14c-.6.27-.88.7-.88 1.29 0 .41.15.77.45 1.06.32.3.85.44 1.6.44h1.35a3.9 3.9 0 0 0 1.9-.39c.46-.25.68-.64.68-1.15Zm-3.28-5.47a2.3 2.3 0 0 0 1.49-.44c.37-.3.55-.77.55-1.4v-.5c0-.63-.19-1.09-.55-1.38-.37-.3-.86-.46-1.49-.46-.62 0-1.11.15-1.48.46-.36.3-.55.75-.55 1.37v.51c0 .63.19 1.1.55 1.4.37.29.86.44 1.48.44Zm16.73 2.78h-.07a2.88 2.88 0 0 1-2.76 1.76 3.54 3.54 0 0 1-2.82-1.34 4.77 4.77 0 0 1-.77-1.56 7.6 7.6 0 0 1-.26-2.05c0-.75.08-1.44.26-2.05.18-.6.44-1.13.77-1.55a3.54 3.54 0 0 1 4.5-.9c.47.28.83.72 1.08 1.32h.07v-5.64h1.47v13.55h-1.47v-1.54Zm-2.43.44a3.12 3.12 0 0 0 1.72-.5 1.76 1.76 0 0 0 .71-1.43v-3.51c0-.26-.06-.5-.2-.71a1.7 1.7 0 0 0-.51-.59 2.49 2.49 0 0 0-.79-.37c-.3-.1-.6-.14-.93-.14-.83 0-1.49.26-1.96.78a2.87 2.87 0 0 0-.72 2.04v1.6c0 .85.24 1.53.72 2.06.47.51 1.13.77 1.96.77Zm7.74-10.57c-.31 0-.55-.07-.7-.22a.9.9 0 0 1-.2-.6v-.24c0-.24.07-.44.2-.58.15-.16.39-.24.7-.24.32 0 .55.08.68.24a.8.8 0 0 1 .22.58v.24c0 .24-.07.45-.22.6-.13.15-.36.22-.68.22Zm-.73 2.22h1.47v9.45h-1.47v-9.45Zm5.09 1.28h-1.54v-1.28h1.54v-1.9c0-.66.17-1.2.51-1.6.34-.4.86-.6 1.56-.6h1.43v1.28h-2.04v2.82h2.04v1.28h-2.04v8.17h-1.46v-8.17Zm5.94 0h-1.54v-1.28h1.54v-1.9c0-.66.17-1.2.5-1.6.35-.4.87-.6 1.56-.6h1.43v1.28h-2.03v2.82h2.03v1.28h-2.03v8.17h-1.46v-8.17Zm8.9 8.39a3.92 3.92 0 0 1-3.1-1.34 4.91 4.91 0 0 1-.86-1.56c-.2-.6-.29-1.3-.29-2.05 0-.74.1-1.42.3-2.03.2-.61.49-1.13.86-1.56a3.82 3.82 0 0 1 3.09-1.35 3.7 3.7 0 0 1 2.98 1.32c.36.4.63.88.8 1.44.2.57.3 1.18.3 1.85v.7h-6.79v.44c0 .4.06.78.18 1.13.14.34.32.64.55.9.25.26.54.46.88.6.35.15.75.22 1.2.22a2.74 2.74 0 0 0 2.6-1.63l1.03.76a3.7 3.7 0 0 1-1.42 1.57c-.65.4-1.42.59-2.31.59Zm0-8.66a2.68 2.68 0 0 0-1.96.8 3.09 3.09 0 0 0-.75 2.05v.13h5.22v-.2c0-.84-.23-1.51-.7-2.02a2.3 2.3 0 0 0-1.81-.76Zm6.5 8.44v-9.45h1.46v1.74h.1c.16-.45.47-.86.9-1.21a2.81 2.81 0 0 1 1.82-.53h.57v1.46h-.86c-.8 0-1.42.16-1.87.46-.44.3-.66.67-.66 1.12v6.4h-1.47Zm10.18.22a3.93 3.93 0 0 1-3.1-1.34 4.93 4.93 0 0 1-.86-1.56c-.19-.6-.29-1.3-.29-2.05 0-.74.1-1.42.3-2.03.2-.61.49-1.13.86-1.56a3.82 3.82 0 0 1 3.09-1.35 3.7 3.7 0 0 1 2.98 1.32c.36.4.63.88.81 1.44.2.57.3 1.18.3 1.85v.7h-6.8v.44c0 .4.06.78.18 1.13.14.34.32.64.55.9.25.26.54.46.88.6.36.15.75.22 1.2.22a2.74 2.74 0 0 0 2.6-1.63l1.04.76a3.7 3.7 0 0 1-1.43 1.57c-.65.4-1.42.59-2.31.59Zm0-8.66a2.69 2.69 0 0 0-1.96.8 3.06 3.06 0 0 0-.75 2.05v.13h5.22v-.2c0-.84-.23-1.51-.7-2.02a2.3 2.3 0 0 0-1.81-.76Zm6.5 8.44v-9.45h1.46v1.54h.07c.24-.54.56-.97.97-1.28.43-.32 1-.48 1.7-.48.98 0 1.75.32 2.31.95.58.62.86 1.5.86 2.66v6.06h-1.46v-5.8c0-1.7-.72-2.55-2.14-2.55-.3 0-.58.03-.86.1-.27.08-.52.2-.74.34-.22.14-.4.33-.53.56a1.6 1.6 0 0 0-.18.8v6.55h-1.46Zm12.49 0c-.51 0-.9-.14-1.17-.42-.26-.3-.39-.68-.39-1.14v-6.6h-1.55v-1.3h.88c.31 0 .53-.05.64-.17.12-.14.18-.36.18-.68v-1.76h1.32v2.62h2.07v1.28h-2.07v6.88h1.92v1.29h-1.83Zm-252.1 26.22c-.63 0-1.21-.12-1.74-.35a3.88 3.88 0 0 1-1.35-1 4.92 4.92 0 0 1-.86-1.55c-.21-.6-.32-1.3-.32-2.05 0-.74.1-1.42.32-2.03.2-.61.49-1.13.86-1.56a3.7 3.7 0 0 1 1.35-1 4.3 4.3 0 0 1 1.74-.35c.63 0 1.2.12 1.72.35.53.23.98.56 1.36 1 .37.43.67.95.87 1.56.21.61.32 1.29.32 2.03a6 6 0 0 1-.32 2.05c-.2.6-.5 1.12-.87 1.56a4.13 4.13 0 0 1-3.08 1.34Zm0-1.3c.8 0 1.44-.25 1.94-.74s.75-1.23.75-2.23v-1.36c0-1-.25-1.74-.75-2.23a2.66 2.66 0 0 0-1.94-.73c-.8 0-1.44.24-1.94.73s-.75 1.23-.75 2.23v1.36c0 1 .25 1.74.75 2.23.5.5 1.15.74 1.94.74Zm6.67-8.37h1.47v1.54h.07c.25-.6.6-1.04 1.06-1.32.48-.3 1.05-.44 1.7-.44a3.37 3.37 0 0 1 2.8 1.34c.35.42.6.94.78 1.55.18.61.27 1.3.27 2.05 0 .76-.09 1.44-.27 2.05a4.33 4.33 0 0 1-.77 1.56 3.37 3.37 0 0 1-2.8 1.34c-1.28 0-2.2-.59-2.77-1.76h-.07v5.2H91.5V147.4Zm3.9 8.35c.83 0 1.49-.26 1.96-.77.48-.53.72-1.21.72-2.05v-1.61c0-.84-.24-1.52-.72-2.03a2.51 2.51 0 0 0-1.96-.8 3.12 3.12 0 0 0-1.72.52c-.22.16-.4.35-.53.59-.12.22-.18.45-.18.71v3.51c0 .31.06.59.18.83a2.07 2.07 0 0 0 1.3.97c.3.09.62.13.95.13Zm8.7 1.1c-.5 0-.9-.14-1.17-.42-.25-.3-.38-.68-.38-1.14v-6.6h-1.56v-1.3h.88c.32 0 .53-.05.64-.17.12-.14.18-.36.18-.68v-1.76h1.32v2.62h2.07v1.28h-2.07v6.88h1.92v1.29h-1.83Zm5.07-11.67c-.32 0-.55-.07-.7-.22a.9.9 0 0 1-.2-.6v-.24c0-.24.07-.44.2-.58.15-.16.38-.24.7-.24.31 0 .54.08.67.24a.8.8 0 0 1 .22.58v.24c0 .24-.07.45-.22.6-.13.15-.36.22-.67.22Zm-.73 2.22h1.46v9.45h-1.46v-9.45Zm8.14 9.67c-.63 0-1.21-.12-1.74-.35a3.88 3.88 0 0 1-1.35-1 4.91 4.91 0 0 1-.86-1.55c-.21-.6-.31-1.3-.31-2.05 0-.74.1-1.42.3-2.03.21-.61.5-1.13.87-1.56.38-.44.83-.77 1.35-1a4.3 4.3 0 0 1 1.74-.35c.64 0 1.21.12 1.72.35.53.23.98.56 1.36 1 .38.43.67.95.88 1.56.2.61.3 1.29.3 2.03 0 .76-.1 1.44-.3 2.05-.21.6-.5 1.12-.88 1.56a4.12 4.12 0 0 1-3.08 1.34Zm0-1.3c.8 0 1.44-.25 1.94-.74s.75-1.23.75-2.23v-1.36c0-1-.25-1.74-.75-2.23a2.66 2.66 0 0 0-1.94-.73c-.8 0-1.44.24-1.94.73s-.75 1.23-.75 2.23v1.36c0 1 .25 1.74.75 2.23.5.5 1.15.74 1.94.74Zm6.68 1.08v-9.45h1.46v1.54h.08c.23-.54.55-.97.97-1.28.42-.32.99-.48 1.7-.48.97 0 1.74.32 2.3.95.58.62.86 1.5.86 2.66v6.06h-1.46v-5.8c0-1.7-.71-2.55-2.14-2.55-.3 0-.58.03-.86.1-.27.08-.52.2-.73.34-.22.14-.4.33-.53.56a1.6 1.6 0 0 0-.19.8v6.55h-1.46Zm13.24.22c-.88 0-1.62-.17-2.22-.5a5.42 5.42 0 0 1-1.52-1.35l1.05-.84c.37.46.77.82 1.22 1.08.46.24.98.36 1.58.36.62 0 1.1-.13 1.45-.4.35-.27.53-.65.53-1.14 0-.36-.13-.67-.37-.93-.23-.27-.66-.45-1.28-.55l-.75-.11a6.78 6.78 0 0 1-1.21-.27 3.6 3.6 0 0 1-.97-.52 2.45 2.45 0 0 1-.64-.8 2.7 2.7 0 0 1-.22-1.14 2.65 2.65 0 0 1 .96-2.08c.3-.24.66-.4 1.07-.52.42-.12.86-.18 1.34-.18.77 0 1.4.13 1.92.4.53.27.98.64 1.37 1.12l-.97.88a2.89 2.89 0 0 0-2.44-1.15c-.6 0-1.07.13-1.38.4-.3.25-.46.6-.46 1.06 0 .46.15.8.46 1 .31.21.77.37 1.35.46l.73.11c1.05.16 1.8.47 2.24.92.44.44.66 1.02.66 1.74 0 .91-.31 1.63-.94 2.16-.62.52-1.47.79-2.56.79Zm17.28-.22c-.55 0-.95-.15-1.2-.44-.23-.3-.37-.66-.43-1.1h-.1c-.2.58-.54 1.02-1.02 1.32-.48.29-1.04.44-1.7.44-1 0-1.79-.26-2.35-.77a2.71 2.71 0 0 1-.82-2.09c0-.9.32-1.58.97-2.05.66-.48 1.68-.72 3.06-.72h1.87v-.93c0-.67-.19-1.18-.55-1.54-.37-.35-.93-.53-1.69-.53-.57 0-1.06.13-1.44.39-.38.25-.7.6-.96 1.02l-.88-.82c.26-.51.67-.95 1.23-1.3a3.81 3.81 0 0 1 2.12-.55 3.9 3.9 0 0 1 2.68.84c.63.56.95 1.34.95 2.34v5.2h1.08v1.29h-.82Zm-4.22-1.03c.37 0 .7-.04 1.01-.13.3-.08.57-.2.79-.36.22-.16.39-.34.51-.55.12-.21.19-.44.19-.68v-1.56h-1.95a3.6 3.6 0 0 0-1.85.37c-.37.24-.56.6-.56 1.06v.39c0 .46.16.82.5 1.08.33.25.8.38 1.37.38Zm7.13 1.03v-9.45h1.46v1.54h.08c.23-.54.55-.97.97-1.28.43-.32 1-.48 1.7-.48.98 0 1.75.32 2.3.95.58.62.87 1.5.87 2.66v6.06h-1.47v-5.8c0-1.7-.71-2.55-2.14-2.55-.3 0-.58.03-.86.1a2.5 2.5 0 0 0-.73.34c-.22.14-.4.33-.53.56a1.6 1.6 0 0 0-.19.8v6.55h-1.46Zm16.45-1.54h-.08a2.88 2.88 0 0 1-2.76 1.76 3.53 3.53 0 0 1-2.82-1.34 4.75 4.75 0 0 1-.77-1.56 7.6 7.6 0 0 1-.26-2.05c0-.75.09-1.44.26-2.05.18-.6.44-1.13.77-1.55a3.53 3.53 0 0 1 2.82-1.34c.66 0 1.22.15 1.68.44.48.28.84.72 1.08 1.32h.08v-5.64h1.46v13.55h-1.46v-1.54Zm-2.44.44c.33 0 .64-.04.94-.13.3-.09.56-.2.78-.37a1.76 1.76 0 0 0 .72-1.43v-3.51c0-.26-.07-.5-.2-.71-.13-.24-.3-.43-.52-.59a2.5 2.5 0 0 0-.78-.37c-.3-.1-.6-.14-.94-.14-.83 0-1.48.26-1.96.78a2.87 2.87 0 0 0-.71 2.04v1.6c0 .85.24 1.53.71 2.06.48.51 1.13.77 1.96.77Zm14.86 1.32c-.66 0-1.25-.12-1.78-.35a3.7 3.7 0 0 1-1.34-1 4.6 4.6 0 0 1-.82-1.55 7.13 7.13 0 0 1-.27-2.05c0-.75.09-1.44.27-2.05.2-.6.47-1.13.82-1.55a3.7 3.7 0 0 1 1.34-1 4.35 4.35 0 0 1 1.78-.34c.94 0 1.69.2 2.25.62.57.4 1 .94 1.28 1.6l-1.23.62a2.23 2.23 0 0 0-.84-1.14c-.39-.27-.88-.4-1.46-.4-.44 0-.83.07-1.16.22a2.37 2.37 0 0 0-1.32 1.48 3.7 3.7 0 0 0-.16 1.14v1.6c0 .84.22 1.52.66 2.06.45.52 1.11.79 1.98.79 1.18 0 2.03-.55 2.56-1.65l1.06.71c-.3.69-.76 1.23-1.37 1.63-.6.4-1.35.6-2.25.6Zm9.15 0c-.63 0-1.21-.12-1.74-.35a3.88 3.88 0 0 1-1.35-1 4.93 4.93 0 0 1-.86-1.55c-.21-.6-.31-1.3-.31-2.05 0-.74.1-1.42.3-2.03.22-.61.5-1.13.87-1.56.38-.44.83-.77 1.35-1a4.3 4.3 0 0 1 1.74-.35c.64 0 1.21.12 1.72.35.53.23.98.56 1.36 1 .38.43.67.95.88 1.56.2.61.3 1.29.3 2.03 0 .76-.1 1.44-.3 2.05-.21.6-.5 1.12-.88 1.56a4.13 4.13 0 0 1-3.08 1.34Zm0-1.3c.8 0 1.44-.25 1.94-.74s.75-1.23.75-2.23v-1.36c0-1-.25-1.74-.75-2.23a2.66 2.66 0 0 0-1.94-.73c-.8 0-1.44.24-1.94.73s-.75 1.23-.75 2.23v1.36c0 1 .25 1.74.75 2.23.5.5 1.15.74 1.94.74Zm6.68 1.08v-9.45h1.46v1.54h.07c.24-.54.56-.97.98-1.28.42-.32.99-.48 1.7-.48.97 0 1.74.32 2.3.95.58.62.86 1.5.86 2.66v6.06h-1.46v-5.8c0-1.7-.71-2.55-2.14-2.55-.3 0-.58.03-.86.1a2.5 2.5 0 0 0-.74.34c-.22.14-.4.33-.53.56a1.6 1.6 0 0 0-.18.8v6.55h-1.46Zm13.24.22c-.88 0-1.62-.17-2.22-.5a5.24 5.24 0 0 1-1.51-1.35l1.04-.84c.36.46.77.82 1.22 1.08.46.24.98.36 1.58.36.62 0 1.1-.13 1.45-.4.35-.27.53-.65.53-1.14 0-.36-.13-.67-.37-.93-.23-.27-.66-.45-1.28-.55l-.75-.11a6.77 6.77 0 0 1-1.21-.27 3.6 3.6 0 0 1-.97-.52 2.42 2.42 0 0 1-.64-.8c-.15-.32-.22-.7-.22-1.14 0-.46.09-.86.25-1.2.18-.36.4-.65.7-.88.3-.24.67-.4 1.08-.52.42-.12.86-.18 1.34-.18.77 0 1.4.13 1.92.4.53.27.98.64 1.37 1.12l-.97.88a2.89 2.89 0 0 0-2.44-1.15c-.6 0-1.07.13-1.38.4-.3.25-.46.6-.46 1.06 0 .46.15.8.46 1 .31.21.76.37 1.35.46l.73.11c1.05.16 1.8.47 2.24.92.44.44.66 1.02.66 1.74 0 .91-.31 1.63-.94 2.16-.62.52-1.47.79-2.56.79Zm9.65 0c-.63 0-1.21-.12-1.74-.35a3.88 3.88 0 0 1-1.35-1 4.91 4.91 0 0 1-.86-1.55c-.2-.6-.31-1.3-.31-2.05 0-.74.1-1.42.3-2.03.22-.61.5-1.13.87-1.56.38-.44.83-.77 1.35-1a4.3 4.3 0 0 1 1.74-.35c.64 0 1.21.12 1.72.35.53.23.98.56 1.36 1 .38.43.67.95.88 1.56.2.61.3 1.29.3 2.03 0 .76-.1 1.44-.3 2.05-.21.6-.5 1.12-.88 1.56a4.13 4.13 0 0 1-3.08 1.34Zm0-1.3c.8 0 1.44-.25 1.94-.74s.75-1.23.75-2.23v-1.36c0-1-.25-1.74-.75-2.23a2.66 2.66 0 0 0-1.94-.73c-.79 0-1.44.24-1.94.73s-.75 1.23-.75 2.23v1.36c0 1 .25 1.74.75 2.23.5.5 1.15.74 1.94.74Zm12.72-.46h-.07a2.88 2.88 0 0 1-2.77 1.76 3.54 3.54 0 0 1-2.82-1.34 4.77 4.77 0 0 1-.77-1.56 7.6 7.6 0 0 1-.25-2.05c0-.75.08-1.44.25-2.05.19-.6.44-1.13.77-1.55a3.54 3.54 0 0 1 4.5-.9c.48.28.84.72 1.09 1.32h.07v-1.54h1.46v13.1H237v-5.2Zm-2.44.44c.33 0 .65-.04.94-.13.3-.09.56-.2.78-.37a1.76 1.76 0 0 0 .72-1.43v-3.51c0-.26-.07-.5-.2-.71-.12-.24-.3-.43-.52-.59a2.5 2.5 0 0 0-.78-.37c-.3-.1-.6-.14-.94-.14-.83 0-1.48.26-1.96.78a2.87 2.87 0 0 0-.7 2.04v1.6c0 .85.23 1.53.7 2.06.48.51 1.13.77 1.96.77Zm12.84-.44h-.07c-.1.22-.22.44-.37.66a2.24 2.24 0 0 1-1.26.95c-.3.1-.64.15-1.03.15a3 3 0 0 1-2.32-.94 3.85 3.85 0 0 1-.86-2.67v-6.06h1.46v5.8c0 1.7.72 2.55 2.16 2.55.3 0 .57-.04.84-.11.28-.07.53-.18.74-.33a1.56 1.56 0 0 0 .7-1.38v-6.53h1.47v9.45h-1.46v-1.54Zm8.13 1.76a3.92 3.92 0 0 1-3.1-1.34 4.92 4.92 0 0 1-.85-1.56c-.2-.6-.3-1.3-.3-2.05 0-.74.1-1.42.3-2.03.2-.61.5-1.13.86-1.56a3.82 3.82 0 0 1 3.1-1.35 3.7 3.7 0 0 1 2.98 1.32c.35.4.62.88.8 1.44.2.57.3 1.18.3 1.85v.7h-6.8v.44a2.9 2.9 0 0 0 .73 2.03c.25.26.54.46.89.6a3 3 0 0 0 1.19.22 2.73 2.73 0 0 0 2.6-1.63l1.04.76a3.7 3.7 0 0 1-1.43 1.57c-.65.4-1.41.59-2.3.59Zm0-8.66a2.69 2.69 0 0 0-1.95.8 3.09 3.09 0 0 0-.75 2.05v.13h5.21v-.2c0-.84-.23-1.51-.7-2.01a2.3 2.3 0 0 0-1.8-.77Zm6.5 8.44v-9.45h1.47v1.54h.07c.23-.54.55-.97.97-1.28.43-.32 1-.48 1.7-.48.98 0 1.75.32 2.3.95.58.62.87 1.5.87 2.66v6.06h-1.47v-5.8c0-1.7-.71-2.55-2.14-2.55-.3 0-.58.03-.86.1a2.5 2.5 0 0 0-.73.34c-.22.14-.4.33-.53.56a1.6 1.6 0 0 0-.19.8v6.55h-1.46Zm13.92.22c-.66 0-1.25-.12-1.77-.35a3.7 3.7 0 0 1-1.34-1 4.6 4.6 0 0 1-.82-1.55 7.13 7.13 0 0 1-.28-2.05c0-.75.1-1.44.27-2.05.2-.6.48-1.13.83-1.55a3.7 3.7 0 0 1 1.34-1 4.35 4.35 0 0 1 1.77-.34c.94 0 1.7.2 2.25.62.58.4 1 .94 1.28 1.6l-1.22.62a2.23 2.23 0 0 0-.84-1.14c-.4-.27-.88-.4-1.47-.4-.44 0-.82.07-1.15.22-.33.13-.6.33-.83.59-.22.24-.38.54-.5.9-.1.33-.16.71-.16 1.13v1.6c0 .84.22 1.52.66 2.06.45.52 1.11.79 1.98.79 1.19 0 2.04-.55 2.56-1.65l1.07.71c-.3.69-.77 1.23-1.38 1.63-.6.4-1.35.6-2.25.6Zm9.14 0a3.93 3.93 0 0 1-3.1-1.34 4.93 4.93 0 0 1-.86-1.56c-.2-.6-.29-1.3-.29-2.05 0-.74.1-1.42.3-2.03.2-.61.49-1.13.85-1.56a3.82 3.82 0 0 1 3.1-1.35 3.7 3.7 0 0 1 2.98 1.32c.36.4.62.88.8 1.44.2.57.3 1.18.3 1.85v.7h-6.8v.44a2.91 2.91 0 0 0 .73 2.03c.26.26.55.46.89.6a3 3 0 0 0 1.19.22 2.74 2.74 0 0 0 2.6-1.63l1.04.76a3.7 3.7 0 0 1-1.43 1.57c-.64.4-1.41.59-2.3.59Zm0-8.66a2.69 2.69 0 0 0-1.96.8 3.06 3.06 0 0 0-.75 2.05v.13h5.22v-.2c0-.84-.24-1.51-.7-2.01a2.3 2.3 0 0 0-1.81-.77Zm9.33 8.66c-.88 0-1.62-.17-2.21-.5a5.2 5.2 0 0 1-1.52-1.35l1.04-.84c.37.46.77.82 1.23 1.08.45.24.97.36 1.57.36.62 0 1.1-.13 1.45-.4.35-.27.53-.65.53-1.14 0-.36-.12-.67-.37-.93-.23-.27-.66-.45-1.28-.55l-.75-.11a6.77 6.77 0 0 1-1.2-.27c-.37-.14-.7-.3-.98-.52a2.44 2.44 0 0 1-.64-.8 2.7 2.7 0 0 1-.22-1.14 2.65 2.65 0 0 1 .96-2.08c.3-.24.66-.4 1.07-.52.42-.12.86-.18 1.34-.18.77 0 1.41.13 1.92.4.53.27.99.64 1.38 1.12l-.98.88a2.9 2.9 0 0 0-2.44-1.15c-.6 0-1.06.13-1.38.4-.3.25-.46.6-.46 1.06 0 .46.15.8.46 1 .32.21.77.37 1.35.46l.74.11c1.05.16 1.79.47 2.23.92.44.44.66 1.02.66 1.74 0 .91-.31 1.63-.94 2.16-.62.52-1.47.79-2.56.79Zm12.5-.22c-.51 0-.9-.14-1.17-.42-.26-.3-.39-.68-.39-1.14v-6.6h-1.55v-1.3h.88c.31 0 .53-.05.64-.17.12-.14.18-.36.18-.68v-1.76h1.32v2.62h2.07v1.28h-2.07v6.88h1.92v1.29h-1.83Zm7.83.22a4.3 4.3 0 0 1-1.74-.35 3.88 3.88 0 0 1-1.36-1 4.93 4.93 0 0 1-.86-1.55c-.2-.6-.3-1.3-.3-2.05 0-.74.1-1.42.3-2.03.21-.61.5-1.13.86-1.56.38-.44.84-.77 1.36-1a4.3 4.3 0 0 1 1.74-.35c.63 0 1.2.12 1.72.35.52.23.98.56 1.35 1 .38.43.68.95.88 1.56.21.61.31 1.29.31 2.03 0 .76-.1 1.44-.3 2.05-.21.6-.5 1.12-.88 1.56a4.13 4.13 0 0 1-3.08 1.34Zm0-1.3c.8 0 1.44-.25 1.94-.74s.75-1.23.75-2.23v-1.36c0-1-.25-1.74-.75-2.23a2.66 2.66 0 0 0-1.94-.73c-.8 0-1.44.24-1.94.73s-.75 1.23-.75 2.23v1.36c0 1 .25 1.74.75 2.23.5.5 1.15.74 1.94.74Zm13.09 1.08c-.52 0-.9-.14-1.17-.42-.26-.3-.39-.68-.39-1.14v-6.6h-1.55v-1.3h.87c.32 0 .53-.05.64-.17.13-.14.19-.36.19-.68v-1.76h1.32v2.62h2.06v1.28h-2.06v6.88h1.92v1.29h-1.83Zm4.33-13.55h1.46v5.64h.08c.23-.54.55-.97.97-1.28.42-.32 1-.48 1.7-.48.98 0 1.74.32 2.3.95.58.62.87 1.5.87 2.66v6.06h-1.47v-5.8c0-1.7-.71-2.55-2.14-2.55-.3 0-.58.03-.86.1a2.5 2.5 0 0 0-.73.34c-.22.14-.4.33-.53.56a1.6 1.6 0 0 0-.19.8v6.55h-1.46V143.3Zm13.95 13.77a3.93 3.93 0 0 1-3.1-1.34 4.91 4.91 0 0 1-.85-1.56c-.2-.6-.3-1.3-.3-2.05 0-.74.1-1.42.3-2.03.2-.61.5-1.13.86-1.56a3.83 3.83 0 0 1 3.1-1.35 3.71 3.71 0 0 1 2.99 1.32c.34.4.61.88.8 1.44.19.57.29 1.18.29 1.85v.7h-6.8v.44a2.9 2.9 0 0 0 .73 2.03c.25.26.54.46.89.6a3 3 0 0 0 1.19.22 2.73 2.73 0 0 0 2.6-1.63l1.04.76a3.7 3.7 0 0 1-1.43 1.57c-.64.4-1.41.59-2.3.59Zm0-8.66a2.68 2.68 0 0 0-1.95.8 3.09 3.09 0 0 0-.75 2.05v.13h5.21v-.2c0-.84-.23-1.51-.7-2.01a2.3 2.3 0 0 0-1.8-.77Zm-143.17 32.9h-.07c-.1.22-.22.44-.37.66-.13.2-.3.4-.5.56-.22.16-.47.3-.76.39-.3.1-.63.15-1.03.15a3 3 0 0 1-2.32-.94 3.85 3.85 0 0 1-.86-2.67v-6.06h1.46v5.8c0 1.7.72 2.55 2.16 2.55.3 0 .58-.04.85-.11.28-.07.52-.18.73-.33a1.56 1.56 0 0 0 .71-1.38v-6.53h1.47v9.45h-1.47v-1.54Zm7.42 1.76c-.87 0-1.61-.17-2.21-.5-.59-.34-1.1-.8-1.52-1.35l1.04-.84c.37.46.78.82 1.23 1.08.45.24.98.36 1.57.36.63 0 1.1-.13 1.45-.4.35-.27.53-.65.53-1.14 0-.36-.12-.67-.37-.93-.23-.27-.65-.45-1.28-.55l-.75-.11a6.77 6.77 0 0 1-1.2-.27c-.37-.14-.7-.3-.98-.52a2.43 2.43 0 0 1-.64-.8c-.14-.32-.22-.7-.22-1.14a2.65 2.65 0 0 1 .96-2.08c.3-.24.66-.4 1.08-.52.41-.12.86-.18 1.33-.18.77 0 1.41.13 1.93.4s.98.64 1.37 1.12l-.97.88a2.9 2.9 0 0 0-2.44-1.15c-.6 0-1.07.13-1.39.4-.3.25-.46.6-.46 1.06 0 .46.16.8.46 1 .32.21.77.37 1.36.46l.73.11c1.05.16 1.8.47 2.23.92.44.44.66 1.02.66 1.74a2.7 2.7 0 0 1-.93 2.16 3.9 3.9 0 0 1-2.57.79Zm9.64 0a3.93 3.93 0 0 1-3.1-1.34 4.93 4.93 0 0 1-.85-1.56c-.2-.6-.3-1.3-.3-2.05 0-.74.1-1.42.3-2.03.2-.61.49-1.13.86-1.56a3.82 3.82 0 0 1 3.09-1.35 3.7 3.7 0 0 1 2.98 1.32c.36.4.63.88.8 1.44.2.57.3 1.18.3 1.85v.7h-6.79v.44c0 .4.06.78.18 1.13.14.34.32.64.55.9.25.26.54.46.88.6.35.15.75.22 1.2.22a2.73 2.73 0 0 0 2.6-1.63l1.03.76a3.7 3.7 0 0 1-1.42 1.57c-.65.4-1.42.59-2.31.59Zm0-8.66a2.69 2.69 0 0 0-1.96.8 3.06 3.06 0 0 0-.75 2.05v.13h5.22v-.2c0-.84-.23-1.51-.7-2.01a2.3 2.3 0 0 0-1.81-.77Zm6.5 8.44v-9.45h1.46v1.74h.1c.16-.45.47-.86.9-1.21a2.81 2.81 0 0 1 1.82-.53h.57v1.46h-.86c-.8 0-1.42.16-1.87.46-.44.3-.66.67-.66 1.12v6.4h-1.46Zm6.19.22c-.4 0-.68-.1-.86-.3-.18-.2-.26-.45-.26-.77v-.23c0-.32.08-.58.25-.77.19-.2.47-.3.87-.3.39 0 .67.1.84.3.18.2.27.45.27.77v.23c0 .32-.09.58-.27.77-.17.2-.45.3-.84.3Z" fill="#19134D"/><rect x="68.92" y="210.77" width="136" height="41.85" rx="5.23" fill="#19134D" fill-opacity=".05"/><path d="M111.51 239.48a5.58 5.58 0 0 1-4.5-1.92c-1.08-1.3-1.63-3.18-1.63-5.63 0-1.23.14-2.31.42-3.24.28-.94.68-1.73 1.21-2.37a5 5 0 0 1 1.93-1.44c.77-.34 1.62-.5 2.57-.5 1.27 0 2.33.27 3.18.83a5.53 5.53 0 0 1 2.03 2.47l-1.99 1.09a3.52 3.52 0 0 0-1.17-1.65 3.16 3.16 0 0 0-2.05-.63c-1.13 0-2.01.38-2.66 1.15a4.81 4.81 0 0 0-.96 3.18v2.22c0 1.35.32 2.41.97 3.18a3.28 3.28 0 0 0 2.65 1.15c.88 0 1.6-.22 2.14-.67a4.1 4.1 0 0 0 1.23-1.76l1.9 1.15a5.95 5.95 0 0 1-2.05 2.5c-.88.6-1.95.9-3.22.9Zm15.58-.25c-.6 0-1.06-.17-1.38-.5a2.34 2.34 0 0 1-.58-1.32h-.1c-.22.68-.6 1.2-1.16 1.55-.56.35-1.23.52-2.03.52-1.13 0-2-.3-2.61-.88-.6-.58-.9-1.37-.9-2.36 0-1.09.39-1.9 1.17-2.45.8-.54 1.95-.81 3.47-.81h1.97v-.93c0-.67-.18-1.18-.54-1.54-.37-.37-.93-.55-1.7-.55a2.7 2.7 0 0 0-1.57.42c-.4.28-.74.63-1.02 1.07l-1.36-1.24c.36-.61.87-1.11 1.52-1.5.66-.4 1.52-.61 2.58-.61 1.4 0 2.49.33 3.24.98.75.66 1.13 1.6 1.13 2.83v5.46h1.15v1.86h-1.28Zm-4.6-1.48c.71 0 1.3-.16 1.76-.47.46-.32.69-.74.69-1.27v-1.57h-1.92c-1.58 0-2.37.49-2.37 1.46v.38c0 .49.16.86.48 1.11.34.24.79.36 1.36.36Zm8.12 1.48v-10.88h2.28v1.8h.1c.24-.59.6-1.07 1.07-1.46a3.1 3.1 0 0 1 1.99-.59c1.11 0 1.98.37 2.6 1.1.62.73.93 1.77.93 3.13v6.9h-2.28v-6.61c0-1.7-.68-2.55-2.05-2.55a3.18 3.18 0 0 0-1.63.46c-.22.15-.4.34-.54.58-.13.24-.2.52-.2.84v7.28h-2.27Zm16.34.25a5.2 5.2 0 0 1-2.1-.4 4.18 4.18 0 0 1-1.54-1.13c-.42-.5-.74-1.1-.96-1.8a7.87 7.87 0 0 1-.34-2.36c0-.86.11-1.64.34-2.34a5 5 0 0 1 .96-1.8c.42-.5.93-.89 1.55-1.15a5.1 5.1 0 0 1 2.09-.4c1.09 0 1.98.24 2.68.73.7.49 1.2 1.14 1.53 1.95l-1.89.88a2.28 2.28 0 0 0-2.32-1.66c-.84 0-1.47.27-1.9.8-.42.51-.63 1.2-.63 2.03v1.94c0 .84.2 1.52.63 2.05.43.52 1.06.78 1.9.78.67 0 1.2-.16 1.59-.48.4-.34.72-.78.96-1.32l1.74.92a4.3 4.3 0 0 1-1.63 2.05c-.73.47-1.62.71-2.66.71Zm10.6 0c-.78 0-1.47-.13-2.09-.4a4.38 4.38 0 0 1-1.57-1.13c-.43-.5-.76-1.1-1-1.8a7.84 7.84 0 0 1-.33-2.36c0-.86.1-1.64.33-2.34a5.1 5.1 0 0 1 1-1.8c.44-.5.96-.89 1.57-1.15.62-.27 1.31-.4 2.1-.4s1.49.14 2.09.42c.61.28 1.12.67 1.53 1.17.4.49.7 1.06.9 1.72.2.65.3 1.36.3 2.1v.87h-7.46v.35c0 .84.24 1.53.73 2.07.5.53 1.22.8 2.14.8a3.1 3.1 0 0 0 1.69-.44c.46-.3.85-.7 1.17-1.2l1.34 1.32a4.4 4.4 0 0 1-1.76 1.62 5.8 5.8 0 0 1-2.67.58Zm0-9.6c-.39 0-.75.07-1.08.2a2.48 2.48 0 0 0-1.36 1.5c-.13.34-.2.72-.2 1.14v.15h5.07v-.2c0-.85-.21-1.52-.65-2.02a2.2 2.2 0 0 0-1.78-.77Zm9.69 9.35c-.78 0-1.37-.2-1.76-.58a2.37 2.37 0 0 1-.57-1.68v-13.22h2.28v13.62h1.51v1.86h-1.46Z" fill="#19134D"/><g filter="url(#c)"><rect x="225.85" y="210.77" width="136" height="41.85" rx="5.23" fill="#B83C2E"/><rect x="225.85" y="210.77" width="136" height="41.85" rx="5.23" fill="url(#d)" fill-opacity=".2" style="mix-blend-mode:overlay"/></g><path d="M261 224.63h5.16c.93 0 1.78.15 2.53.46.77.3 1.42.76 1.95 1.38.54.6.96 1.36 1.25 2.28.3.9.44 1.97.44 3.18 0 1.21-.14 2.28-.44 3.2a6.3 6.3 0 0 1-1.25 2.28 5.05 5.05 0 0 1-1.95 1.36c-.75.3-1.6.46-2.53.46h-5.17v-14.6Zm5.16 12.5a3.5 3.5 0 0 0 2.64-1.02c.67-.68 1-1.69 1-3.01v-2.34c0-1.33-.33-2.33-1-3.02a3.53 3.53 0 0 0-2.64-1.02h-2.8v10.42h2.8Zm16.92 2.1c-.6 0-1.06-.17-1.38-.5a2.34 2.34 0 0 1-.59-1.32h-.1c-.21.68-.6 1.2-1.15 1.55-.56.35-1.24.52-2.03.52-1.13 0-2-.3-2.62-.88-.6-.58-.9-1.37-.9-2.36 0-1.09.4-1.9 1.17-2.45.8-.54 1.96-.81 3.48-.81h1.96v-.93c0-.67-.18-1.18-.54-1.54-.36-.37-.93-.55-1.7-.55-.64 0-1.16.14-1.56.42-.4.28-.75.63-1.03 1.07l-1.36-1.24c.36-.61.87-1.11 1.53-1.5.65-.4 1.51-.61 2.57-.61 1.41 0 2.5.33 3.24.98.76.66 1.13 1.6 1.13 2.83v5.46h1.16v1.86h-1.28Zm-4.6-1.48c.7 0 1.3-.16 1.75-.47.46-.32.7-.74.7-1.27v-1.57H279c-1.58 0-2.37.49-2.37 1.46v.38c0 .49.17.86.49 1.11.33.24.78.36 1.36.36Zm8.11 1.48v-10.88h2.28v1.8h.1c.24-.59.6-1.07 1.07-1.46a3.1 3.1 0 0 1 1.99-.59c1.12 0 1.98.37 2.6 1.1.62.73.94 1.77.94 3.13v6.9h-2.28v-6.61c0-1.7-.69-2.55-2.06-2.55a3.18 3.18 0 0 0-1.63.46c-.22.15-.4.34-.54.58-.13.24-.19.52-.19.84v7.28h-2.28Zm21.68 1.03c0 1.13-.44 1.98-1.3 2.55-.86.57-2.27.86-4.23.86-.89 0-1.65-.07-2.28-.2a5.03 5.03 0 0 1-1.52-.5c-.4-.22-.68-.49-.86-.81a2.22 2.22 0 0 1-.27-1.1c0-.6.16-1.08.48-1.41.33-.34.8-.57 1.38-.7v-.22c-.82-.27-1.24-.82-1.24-1.67 0-.56.2-.99.57-1.28.38-.3.83-.53 1.36-.65v-.08a3.52 3.52 0 0 1-1.49-1.28c-.33-.56-.5-1.2-.5-1.95a3.5 3.5 0 0 1 1.11-2.7c.75-.68 1.83-1.02 3.22-1.02.77 0 1.43.11 1.97.33v-.29c0-.49.11-.86.33-1.13.24-.28.6-.42 1.1-.42h1.67v1.84h-2.22v.44c.49.32.86.74 1.13 1.26.26.5.4 1.07.4 1.7 0 1.1-.38 1.99-1.13 2.67-.76.67-1.83 1-3.23 1-.53 0-1-.05-1.42-.16-.28.1-.52.24-.73.42a.81.81 0 0 0-.32.67c0 .29.14.5.4.63.27.12.64.18 1.13.18h2.68c1.34 0 2.3.27 2.9.82.6.53.9 1.26.9 2.2Zm-2.14.25c0-.38-.14-.68-.44-.9-.27-.23-.8-.34-1.54-.34h-3.69c-.5.3-.75.71-.75 1.26 0 .44.18.8.52 1.06.37.28.97.42 1.82.42h1.43c1.77 0 2.65-.5 2.65-1.5Zm-3.4-6.66a2.4 2.4 0 0 0 1.54-.44c.38-.3.57-.77.57-1.4v-.42c0-.62-.2-1.08-.57-1.38-.36-.3-.88-.46-1.55-.46s-1.19.16-1.57.46c-.36.3-.54.76-.54 1.38v.42c0 .63.18 1.1.54 1.4.38.3.9.44 1.57.44Zm11.38 5.63a5.2 5.2 0 0 1-2.1-.4 4.4 4.4 0 0 1-1.56-1.13c-.43-.5-.77-1.1-1-1.8a7.87 7.87 0 0 1-.34-2.36c0-.86.11-1.64.33-2.34a5.4 5.4 0 0 1 1-1.8c.44-.5.96-.89 1.58-1.15.61-.27 1.31-.4 2.1-.4s1.48.14 2.08.42a4.1 4.1 0 0 1 1.53 1.17c.4.49.7 1.06.9 1.72.2.65.31 1.36.31 2.1v.87h-7.47v.35c0 .84.25 1.53.74 2.07.5.53 1.21.8 2.13.8a3.1 3.1 0 0 0 1.7-.44c.46-.3.85-.7 1.17-1.2l1.34 1.32c-.4.67-1 1.21-1.76 1.62-.77.39-1.66.58-2.68.58Zm0-9.6c-.39 0-.75.07-1.09.2a2.5 2.5 0 0 0-1.36 1.5 3.4 3.4 0 0 0-.19 1.14v.15h5.07v-.2c0-.85-.22-1.52-.65-2.02a2.2 2.2 0 0 0-1.78-.77Zm7.36 9.35v-10.88h2.28v2.1h.1a3 3 0 0 1 .97-1.47 3.02 3.02 0 0 1 2.03-.63h.6v2.2h-.9c-.9 0-1.6.14-2.09.44-.47.29-.71.72-.71 1.3v6.94h-2.28Z" fill="#fff"/><g filter="url(#e)"><path d="m487 81.49-10.15-10.15c-1-1-1.5-1.5-1.7-2.08a2.62 2.62 0 0 1 0-1.7c.2-.57.7-1.07 1.7-2.07L487 55.34c0-11.03.1-16.7 2.36-21.06a20.92 20.92 0 0 1 8.92-8.92C502.8 23 508.78 23 520.68 23H756.7c11.91 0 17.87 0 22.4 2.36a20.92 20.92 0 0 1 8.93 8.92c2.36 4.53 2.36 10.5 2.36 22.4V292.7c0 11.91 0 17.87-2.36 22.4a20.92 20.92 0 0 1-8.92 8.93c-4.54 2.36-10.5 2.36-22.41 2.36H520.69c-11.92 0-17.88 0-22.41-2.36a20.93 20.93 0 0 1-8.92-8.92C487 310.57 487 304.6 487 292.7V81.49Z" fill="#F8F9FA"/></g><rect x="487" y="23" width="303.38" height="303.38" rx="20.92" fill="#fff"/><path fill-rule="evenodd" clip-rule="evenodd" d="M790.38 151.15H487V81.5l-10.15-10.15c-1-1-1.5-1.5-1.7-2.08a2.62 2.62 0 0 1 0-1.7c.2-.57.7-1.07 1.7-2.07L487 55.34c0-11.03.1-16.7 2.36-21.06a20.92 20.92 0 0 1 8.92-8.92C502.8 23 508.78 23 520.68 23H756.7c11.91 0 17.87 0 22.4 2.36a20.92 20.92 0 0 1 8.93 8.92c2.36 4.53 2.36 10.5 2.36 22.4v94.47Z" fill="#F8F9FA"/><path d="M509.64 190.08v-14.6h9.4v2.44h-6.64v3.54h5.77v2.44h-5.77v6.18h-2.76Zm15.69.25a4.8 4.8 0 0 1-3.79-1.55c-.43-.5-.77-1.1-1-1.8a7.51 7.51 0 0 1-.36-2.38c0-.87.11-1.65.34-2.35.23-.7.57-1.29 1-1.78.43-.5.96-.88 1.6-1.15a5.2 5.2 0 0 1 2.13-.42c.85 0 1.59.15 2.21.44.63.3 1.15.7 1.55 1.2.4.5.7 1.08.9 1.75.21.66.31 1.36.31 2.12v.88h-7.26v.27c0 .8.23 1.43.67 1.92.45.48 1.11.71 2 .71.66 0 1.2-.14 1.62-.41a4.6 4.6 0 0 0 1.15-1.07l1.45 1.6a4.55 4.55 0 0 1-1.84 1.5c-.77.34-1.66.52-2.68.52Zm-.04-9.42c-.71 0-1.28.24-1.7.71a2.68 2.68 0 0 0-.63 1.84v.17h4.48v-.19c0-.75-.19-1.36-.56-1.82-.37-.47-.9-.7-1.6-.7Zm15.33 9.17c-.6 0-1.06-.17-1.4-.5a2.4 2.4 0 0 1-.63-1.39h-.13a2.6 2.6 0 0 1-1.1 1.62c-.57.34-1.26.52-2.08.52-1.12 0-1.97-.3-2.57-.88-.6-.59-.9-1.37-.9-2.34 0-1.13.4-1.97 1.21-2.52.8-.55 1.96-.83 3.45-.83h1.87v-.8c0-.61-.17-1.09-.49-1.42-.32-.33-.83-.5-1.55-.5-.62 0-1.13.14-1.52.42-.38.26-.7.58-.96.96l-1.6-1.42a4.6 4.6 0 0 1 1.62-1.51c.67-.4 1.55-.59 2.65-.59 1.48 0 2.6.34 3.37 1 .77.68 1.15 1.64 1.15 2.9v5.14h1.1v2.14h-1.5Zm-4.44-1.7c.6 0 1.1-.13 1.53-.4.41-.26.63-.65.63-1.17v-1.44h-1.72c-1.4 0-2.1.45-2.1 1.34v.35c0 .45.15.78.43 1a2 2 0 0 0 1.23.32Zm11.42 1.7c-.92 0-1.63-.24-2.12-.71a2.85 2.85 0 0 1-.7-2.08v-6h-1.62v-2.13h.84c.4 0 .67-.1.81-.28.16-.2.23-.48.23-.85v-1.87h2.41v3h2.24v2.13h-2.24v6.65h2.07v2.14h-1.92Zm10.94-1.82h-.1a2.99 2.99 0 0 1-1 1.44c-.25.2-.54.35-.89.46a3.7 3.7 0 0 1-1.17.17c-1.13 0-2-.37-2.6-1.11a4.9 4.9 0 0 1-.9-3.16v-6.9h2.69v6.63c0 .75.14 1.33.43 1.73.3.4.76.59 1.4.59.27 0 .53-.04.78-.1.27-.07.5-.18.7-.32.19-.15.35-.33.47-.54.13-.22.19-.48.19-.78v-7.22h2.68v10.93h-2.68v-1.82Zm5.77 1.82v-10.93H567v2.26h.1c.07-.29.18-.57.32-.83a2.72 2.72 0 0 1 1.42-1.24c.34-.12.72-.19 1.15-.19h.59v2.54h-.84c-.9 0-1.59.13-2.05.4-.46.26-.69.7-.69 1.3v6.69h-2.68Zm12.53.25a4.8 4.8 0 0 1-3.79-1.55c-.43-.5-.76-1.1-1-1.8a7.51 7.51 0 0 1-.36-2.38c0-.87.11-1.65.34-2.35.23-.7.57-1.29 1-1.78.43-.5.96-.88 1.6-1.15a5.2 5.2 0 0 1 2.13-.42c.85 0 1.59.15 2.21.44.63.3 1.15.7 1.55 1.2a5 5 0 0 1 .9 1.75c.21.66.32 1.36.32 2.12v.88h-7.26v.27c0 .8.22 1.43.66 1.92.45.48 1.11.71 2 .71.66 0 1.2-.14 1.62-.41a4.6 4.6 0 0 0 1.15-1.07l1.45 1.6a4.56 4.56 0 0 1-1.84 1.5 6.4 6.4 0 0 1-2.68.52Zm-.04-9.42c-.71 0-1.28.24-1.7.71a2.68 2.68 0 0 0-.63 1.84v.17h4.48v-.19c0-.75-.19-1.36-.56-1.82-.37-.47-.9-.7-1.6-.7Zm16.94 9.42a7 7 0 0 1-3.2-.67 7.45 7.45 0 0 1-2.24-1.76l1.87-1.8a4.66 4.66 0 0 0 3.74 1.8c.85 0 1.5-.18 1.93-.54.43-.38.64-.88.64-1.51 0-.49-.13-.88-.41-1.2-.28-.3-.8-.52-1.57-.66l-1.38-.21c-2.92-.46-4.38-1.88-4.38-4.25a3.9 3.9 0 0 1 1.42-3.14 4.79 4.79 0 0 1 1.66-.85 7.3 7.3 0 0 1 2.22-.32c1.1 0 2.06.18 2.88.55.83.36 1.53.9 2.12 1.6l-1.89 1.78c-.36-.44-.8-.8-1.31-1.08a4.06 4.06 0 0 0-1.95-.42c-.8 0-1.4.15-1.8.46-.39.3-.59.71-.59 1.25 0 .56.17.97.49 1.24.32.26.83.46 1.54.59l1.37.25c1.47.26 2.56.74 3.26 1.42a3.7 3.7 0 0 1 1.07 2.82c0 .7-.13 1.33-.38 1.9-.24.56-.6 1.05-1.07 1.47-.46.4-1.03.72-1.71.94a7.2 7.2 0 0 1-2.33.34Zm8.09-11.18h2.67v1.8h.09a2.7 2.7 0 0 1 1.1-1.48 3.26 3.26 0 0 1 1.91-.57c1.4 0 2.46.5 3.18 1.49.74.98 1.11 2.38 1.11 4.2 0 1.85-.37 3.26-1.1 4.25a3.7 3.7 0 0 1-3.19 1.49c-.72 0-1.36-.19-1.9-.57-.53-.37-.9-.88-1.11-1.5h-.09v6h-2.67v-15.1Zm4.91 8.96c.7 0 1.27-.23 1.7-.69.43-.46.65-1.08.65-1.86v-1.89c0-.78-.22-1.4-.65-1.86-.43-.47-1-.7-1.7-.7a2.6 2.6 0 0 0-1.6.47c-.42.32-.63.75-.63 1.28v3.47c0 .57.2 1.01.62 1.32.44.3.97.46 1.61.46Zm11.96 2.22c-.78 0-1.48-.14-2.1-.4a4.47 4.47 0 0 1-1.6-1.15c-.43-.5-.77-1.1-1-1.8a7.51 7.51 0 0 1-.36-2.38c0-.88.12-1.67.36-2.37a4.58 4.58 0 0 1 2.6-2.93c.62-.26 1.32-.4 2.1-.4s1.49.14 2.12.4c.63.27 1.15.65 1.59 1.15.44.5.79 1.08 1.02 1.78.24.7.36 1.49.36 2.37 0 .87-.12 1.67-.36 2.38-.23.7-.58 1.3-1.02 1.8-.43.5-.96.88-1.6 1.15-.62.26-1.32.4-2.1.4Zm0-2.16c.71 0 1.27-.21 1.68-.65.4-.43.6-1.06.6-1.9v-2.03c0-.82-.2-1.45-.6-1.88-.4-.44-.97-.65-1.68-.65-.7 0-1.24.22-1.65.65-.4.43-.6 1.06-.6 1.88v2.03c0 .84.2 1.47.6 1.9.4.44.96.65 1.65.65Zm10.8 1.9c-.93 0-1.63-.23-2.12-.7a2.85 2.85 0 0 1-.71-2.08v-6h-1.61v-2.13h.83c.4 0 .68-.1.82-.28.15-.2.23-.48.23-.85v-1.87h2.4v3h2.24v2.13h-2.24v6.65h2.08v2.14h-1.93Zm7.09 0c-.93 0-1.6-.22-2.04-.68a2.73 2.73 0 0 1-.64-1.95V174.6h2.68v13.35h1.44v2.14h-1.44Zm4.8-12.5c-.55 0-.96-.13-1.2-.38a1.35 1.35 0 0 1-.36-.96v-.42c0-.4.12-.71.35-.97.25-.25.66-.37 1.22-.37.54 0 .94.12 1.19.38.25.25.38.57.38.96v.42c0 .39-.13.7-.38.96-.25.25-.65.38-1.2.38Zm-1.33 1.59h2.68v10.92h-2.68v-10.93ZM655.69 191c0 .57-.1 1.07-.31 1.5-.2.45-.52.82-.98 1.11-.46.3-1.06.52-1.78.67-.73.16-1.61.23-2.66.23a12 12 0 0 1-2.34-.19 5.33 5.33 0 0 1-1.6-.5c-.4-.2-.69-.47-.87-.8a2.16 2.16 0 0 1-.27-1.08 2 2 0 0 1 .5-1.44c.35-.34.83-.56 1.44-.65v-.23c-.44-.12-.8-.33-1.04-.65a1.98 1.98 0 0 1-.2-1.9c.12-.23.27-.42.45-.57a3.45 3.45 0 0 1 1.4-.63v-.08a3.35 3.35 0 0 1-1.5-1.28 3.67 3.67 0 0 1-.49-1.9c0-1.12.38-2.01 1.15-2.68.77-.68 1.9-1.03 3.37-1.03a7.8 7.8 0 0 1 1.9.27v-.35c0-1.06.52-1.59 1.55-1.59h1.7v2.05h-2.32v.3a3 3 0 0 1 1.27 1.25c.28.51.42 1.1.42 1.78 0 1.1-.38 1.98-1.15 2.65-.75.67-1.88 1-3.37 1-.64 0-1.2-.05-1.67-.18-.21.1-.4.23-.55.4a.8.8 0 0 0-.23.58c0 .55.48.82 1.43.82h2.92c1.34 0 2.31.28 2.91.84.62.54.92 1.3.92 2.28Zm-2.5.31a.94.94 0 0 0-.43-.81c-.27-.2-.75-.3-1.44-.3h-3.72c-.38.28-.57.66-.57 1.13 0 .42.18.75.52.99.35.23.95.35 1.78.35h1.34c.88 0 1.52-.11 1.9-.33.41-.23.61-.57.61-1.03Zm-3.23-6.86c1.31 0 1.97-.56 1.97-1.67v-.36c0-1.12-.66-1.67-1.97-1.67s-1.97.55-1.97 1.67v.36c0 1.11.66 1.67 1.97 1.67Zm7.28-9.86h2.68v6.38h.1c.23-.58.58-1.07 1.05-1.46.49-.4 1.16-.6 2-.6 1.14 0 2 .36 2.6 1.1.6.74.9 1.8.9 3.16v6.9h-2.68v-6.63c0-.78-.13-1.36-.41-1.75-.28-.4-.74-.59-1.38-.59a2.71 2.71 0 0 0-1.51.46c-.2.14-.36.32-.48.54-.13.21-.2.47-.2.76v7.22h-2.67v-15.49Zm15.71 15.49c-.92 0-1.62-.24-2.11-.71a2.85 2.85 0 0 1-.71-2.08v-6h-1.61v-2.13h.83c.4 0 .68-.1.82-.28.15-.2.23-.48.23-.85v-1.87h2.4v3h2.24v2.13h-2.24v6.65h2.08v2.14h-1.93Z" fill="#19134D"/><g filter="url(#f)"><rect x="626.39" y="29.19" width="83.69" height="83.69" rx="41.85" transform="rotate(33 626.39 29.2)" fill="#F7F8F9"/></g><rect x="626.97" y="31.9" width="79.77" height="79.77" rx="39.88" transform="rotate(33 626.97 31.9)" fill="#3723E7"/><path d="M644.29 69.65c4.31-2.87 6.47-4.3 7.9-3.37 1.45.94 1.02 3.49.15 8.6l-4.58 27.05c-.93 5.5-1.4 8.25-3.14 8.62-1.73.37-3.28-1.95-6.37-6.6l-5.96-8.93-8.01-1.06c-5.8-.77-8.7-1.15-9.12-2.92-.4-1.76 2.03-3.38 6.9-6.62l22.23-14.77Z" fill="#F8F9FA"/><rect x="626.97" y="31.9" width="79.77" height="79.77" rx="39.88" transform="rotate(33 626.97 31.9)" stroke="#F7F8F9" stroke-width="3.92"/><path d="M509.63 210.68h5.25c1.06 0 1.9.3 2.49.9.61.6.91 1.4.91 2.4 0 .47-.06.88-.2 1.2-.13.34-.3.61-.5.83-.22.2-.44.37-.69.48-.24.1-.47.16-.67.2v.1c.23.02.49.08.76.2a2.71 2.71 0 0 1 1.47 1.45c.18.35.28.8.28 1.32a4.1 4.1 0 0 1-.94 2.64c-.3.33-.64.6-1.04.79-.4.18-.85.27-1.32.27h-5.8v-12.78Zm1.53 11.43h3.8a2.3 2.3 0 0 0 1.55-.5c.38-.34.57-.83.57-1.48v-.62c0-.65-.2-1.14-.57-1.47-.38-.34-.9-.51-1.56-.51h-3.79v4.58Zm0-5.9h3.54c.6 0 1.08-.15 1.42-.46.35-.3.52-.74.52-1.31v-.63c0-.57-.17-1.01-.51-1.31a2.07 2.07 0 0 0-1.43-.46h-3.54v4.17Zm10.28 7.25v-9.45h1.46v1.74h.1c.17-.45.47-.85.91-1.2a2.81 2.81 0 0 1 1.81-.54h.57v1.47h-.86c-.8 0-1.41.15-1.87.46-.44.29-.65.66-.65 1.11v6.41h-1.47Zm7.45-11.66c-.31 0-.54-.07-.7-.22a.9.9 0 0 1-.2-.6v-.24c0-.25.08-.44.2-.59.15-.16.39-.24.7-.24.32 0 .55.08.68.24.15.15.22.34.22.59v.24c0 .24-.07.44-.22.6-.13.15-.36.22-.68.22Zm-.73 2.21h1.47v9.45h-1.47v-9.45Zm8.13 9.67a3.94 3.94 0 0 1-3.95-2.9 6.7 6.7 0 0 1-.3-2.04c0-.75.1-1.42.3-2.03.2-.61.5-1.13.86-1.56a3.83 3.83 0 0 1 3.1-1.36 3.72 3.72 0 0 1 2.98 1.32c.35.4.62.89.8 1.45.2.56.3 1.18.3 1.85v.7h-6.8v.43c0 .4.06.78.18 1.14.14.34.32.64.55.9.25.25.54.45.88.6.36.15.75.22 1.2.22a2.75 2.75 0 0 0 2.6-1.63l1.04.75a3.6 3.6 0 0 1-1.43 1.57c-.65.4-1.42.6-2.3.6Zm0-8.66a2.68 2.68 0 0 0-1.96.8 3.08 3.08 0 0 0-.75 2.05v.14h5.22v-.2c0-.85-.23-1.52-.7-2.02a2.3 2.3 0 0 0-1.8-.77Zm7.01.28h-1.54V214h1.54v-1.9c0-.66.17-1.19.51-1.6.34-.4.86-.6 1.56-.6h1.43v1.28h-2.04V214h2.04v1.29h-2.04v8.16h-1.46v-8.16Zm10.48-3.5c-.32 0-.55-.07-.7-.22a.9.9 0 0 1-.2-.6v-.24c0-.25.07-.44.2-.59.15-.16.38-.24.7-.24.32 0 .55.08.68.24.15.15.22.34.22.59v.24c0 .24-.07.44-.22.6-.13.15-.36.22-.68.22Zm-.73 2.21h1.46v9.45h-1.46v-9.45Zm4.58 9.45v-9.45h1.46v1.54h.07c.24-.53.56-.96.97-1.28.43-.32 1-.48 1.7-.48.98 0 1.75.32 2.31.96.58.62.86 1.5.86 2.65v6.06h-1.46v-5.8c0-1.7-.71-2.55-2.14-2.55-.3 0-.58.04-.86.11a3.1 3.1 0 0 0-.74.33c-.21.15-.4.34-.53.57a1.6 1.6 0 0 0-.18.79v6.55h-1.46Zm12.49 0c-.51 0-.9-.14-1.17-.42-.26-.3-.39-.67-.39-1.13v-6.61h-1.55V214h.88c.31 0 .53-.06.64-.18.12-.13.18-.36.18-.68v-1.75h1.32V214h2.07v1.29h-2.07v6.88h1.92v1.28h-1.83Zm4.33 0v-9.45h1.46v1.74h.1c.17-.45.47-.85.91-1.2a2.81 2.81 0 0 1 1.81-.54h.57v1.47h-.86c-.8 0-1.42.15-1.87.46-.44.29-.66.66-.66 1.11v6.41h-1.46Zm10.2.22c-.63 0-1.21-.12-1.74-.35a3.88 3.88 0 0 1-1.35-.99 4.92 4.92 0 0 1-.86-1.55c-.2-.61-.31-1.3-.31-2.05 0-.75.1-1.42.3-2.03.22-.61.5-1.13.87-1.56a4.14 4.14 0 0 1 3.09-1.36 3.87 3.87 0 0 1 3.08 1.36c.38.43.67.95.88 1.56.2.6.3 1.28.3 2.03 0 .75-.1 1.44-.3 2.05-.21.6-.5 1.12-.88 1.56a4.13 4.13 0 0 1-3.08 1.34Zm0-1.3c.8 0 1.44-.24 1.94-.73s.75-1.23.75-2.23v-1.36c0-1-.25-1.75-.75-2.23a2.66 2.66 0 0 0-1.94-.74c-.79 0-1.44.25-1.94.74-.5.48-.75 1.23-.75 2.23v1.36c0 1 .25 1.74.75 2.23s1.15.73 1.94.73Zm12.72-.46h-.07a2.88 2.88 0 0 1-2.77 1.76 3.55 3.55 0 0 1-2.82-1.34 4.75 4.75 0 0 1-.77-1.55 7.6 7.6 0 0 1-.25-2.05c0-.76.08-1.44.25-2.05.19-.61.44-1.13.77-1.56a3.54 3.54 0 0 1 4.5-.9c.48.28.84.73 1.09 1.32h.07v-5.64h1.46v13.55h-1.46v-1.54Zm-2.44.44a3.19 3.19 0 0 0 1.72-.49 1.74 1.74 0 0 0 .72-1.43v-3.51c0-.26-.07-.5-.2-.72-.12-.23-.3-.43-.51-.58a2.45 2.45 0 0 0-.8-.37 2.8 2.8 0 0 0-.93-.15 2.5 2.5 0 0 0-1.95.79 2.87 2.87 0 0 0-.72 2.03v1.61c0 .85.24 1.53.72 2.05.47.52 1.12.77 1.95.77Zm12.84-.44h-.07c-.1.22-.22.44-.37.66-.13.21-.3.4-.51.57a2.4 2.4 0 0 1-.75.38c-.3.1-.64.15-1.03.15a3 3 0 0 1-2.32-.93 3.85 3.85 0 0 1-.86-2.68v-6.06h1.46v5.8c0 1.7.72 2.55 2.16 2.55.3 0 .57-.03.84-.1.28-.08.53-.19.73-.34a1.57 1.57 0 0 0 .72-1.37v-6.54h1.46v9.45h-1.46v-1.54Zm8.1 1.76c-.66 0-1.25-.12-1.78-.35a3.7 3.7 0 0 1-1.33-.99 4.6 4.6 0 0 1-.83-1.55 7.13 7.13 0 0 1-.27-2.05c0-.76.09-1.44.27-2.05.2-.61.47-1.13.83-1.56a3.7 3.7 0 0 1 1.33-.99 4.35 4.35 0 0 1 1.78-.34c.94 0 1.69.2 2.25.62.57.4 1 .93 1.28 1.59l-1.23.62a2.22 2.22 0 0 0-.84-1.13c-.39-.27-.88-.4-1.46-.4-.44 0-.83.07-1.16.22-.33.13-.6.32-.82.58-.22.25-.38.54-.5.9a4 4 0 0 0-.16 1.13v1.61c0 .83.22 1.52.66 2.05.45.53 1.11.8 1.98.8 1.18 0 2.04-.56 2.56-1.66l1.06.72c-.3.68-.76 1.22-1.37 1.63-.6.4-1.35.6-2.25.6Zm7.78-.22c-.51 0-.9-.14-1.17-.42-.26-.3-.39-.67-.39-1.13v-6.61h-1.56V214h.88c.32 0 .54-.06.64-.18.13-.13.19-.36.19-.68v-1.75h1.32V214h2.07v1.29h-2.07v6.88h1.92v1.28h-1.83Zm5.06-11.66c-.32 0-.55-.07-.7-.22a.9.9 0 0 1-.2-.6v-.24c0-.25.07-.44.2-.59.15-.16.38-.24.7-.24.32 0 .54.08.68.24.14.15.22.34.22.59v.24c0 .24-.08.44-.22.6-.14.15-.36.22-.68.22Zm-.73 2.21h1.46v9.45h-1.46v-9.45Zm8.15 9.67c-.64 0-1.22-.12-1.74-.35a3.89 3.89 0 0 1-1.36-.99 4.93 4.93 0 0 1-.86-1.55c-.2-.61-.31-1.3-.31-2.05 0-.75.1-1.42.31-2.03.2-.61.5-1.13.86-1.56a4.1 4.1 0 0 1 3.1-1.36 3.93 3.93 0 0 1 3.07 1.36c.38.43.67.95.88 1.56.2.6.31 1.28.31 2.03 0 .75-.1 1.44-.31 2.05-.2.6-.5 1.12-.88 1.56a4.12 4.12 0 0 1-3.08 1.34Zm0-1.3c.79 0 1.44-.24 1.94-.73s.75-1.23.75-2.23v-1.36c0-1-.25-1.75-.75-2.23a2.66 2.66 0 0 0-1.94-.74c-.8 0-1.45.25-1.95.74-.5.48-.75 1.23-.75 2.23v1.36c0 1 .25 1.74.75 2.23s1.15.73 1.95.73Zm6.67 1.08v-9.45h1.47v1.54h.07c.23-.53.55-.96.97-1.28.43-.32 1-.48 1.7-.48.98 0 1.75.32 2.3.96.58.62.87 1.5.87 2.65v6.06h-1.47v-5.8c0-1.7-.71-2.55-2.14-2.55a2.86 2.86 0 0 0-1.59.44c-.22.15-.4.34-.53.57a1.6 1.6 0 0 0-.19.79v6.55h-1.46Zm18.3.22c-.63 0-1.21-.12-1.74-.35a3.88 3.88 0 0 1-1.35-.99 4.92 4.92 0 0 1-.86-1.55 6.3 6.3 0 0 1-.31-2.05c0-.75.1-1.42.3-2.03.22-.61.5-1.13.87-1.56a4.14 4.14 0 0 1 3.09-1.36 3.87 3.87 0 0 1 3.08 1.36c.38.43.67.95.88 1.56.2.6.3 1.28.3 2.03 0 .75-.1 1.44-.3 2.05-.21.6-.5 1.12-.88 1.56a4.13 4.13 0 0 1-3.08 1.34Zm0-1.3c.8 0 1.44-.24 1.94-.73s.75-1.23.75-2.23v-1.36c0-1-.25-1.75-.75-2.23a2.66 2.66 0 0 0-1.94-.74c-.8 0-1.44.25-1.94.74-.5.48-.75 1.23-.75 2.23v1.36c0 1 .25 1.74.75 2.23s1.15.73 1.94.73Zm7.08-7.08h-1.54V214h1.54v-1.9c0-.66.17-1.19.51-1.6.35-.4.86-.6 1.56-.6h1.43v1.28h-2.03V214h2.03v1.29h-2.03v8.16h-1.47v-8.16Zm11.84 8.16c-.51 0-.9-.14-1.17-.42-.26-.3-.39-.67-.39-1.13v-6.61h-1.55V214h.88c.31 0 .53-.06.64-.18.12-.13.18-.36.18-.68v-1.75h1.32V214H682v1.29h-2.07v6.88h1.92v1.28h-1.83Zm4.33-13.55h1.47v5.64h.07c.23-.53.55-.96.97-1.28.42-.32 1-.48 1.7-.48.98 0 1.75.32 2.3.96.58.62.87 1.5.87 2.65v6.06h-1.47v-5.8c0-1.7-.71-2.55-2.14-2.55a2.86 2.86 0 0 0-1.59.44c-.22.15-.4.34-.53.57a1.6 1.6 0 0 0-.18.79v6.55h-1.47v-13.55Zm13.96 13.77a3.94 3.94 0 0 1-3.1-1.34 4.95 4.95 0 0 1-.86-1.55 6.6 6.6 0 0 1-.29-2.05c0-.75.1-1.42.3-2.03.2-.61.49-1.13.85-1.56a3.83 3.83 0 0 1 3.1-1.36 3.72 3.72 0 0 1 2.98 1.32c.36.4.62.89.8 1.45.2.56.3 1.18.3 1.85v.7h-6.8v.43a2.91 2.91 0 0 0 .73 2.03 2.77 2.77 0 0 0 2.08.83 2.75 2.75 0 0 0 2.6-1.63l1.04.75a3.6 3.6 0 0 1-1.43 1.57c-.64.4-1.41.6-2.3.6Zm0-8.66a2.69 2.69 0 0 0-1.96.8 3.08 3.08 0 0 0-.75 2.05v.14h5.22v-.2c0-.85-.24-1.52-.7-2.02a2.3 2.3 0 0 0-1.81-.77Zm10.82 8.44v-9.45h1.46v1.54h.08c.23-.53.55-.96.97-1.28.43-.32 1-.48 1.7-.48.98 0 1.75.32 2.3.96.58.62.87 1.5.87 2.65v6.06h-1.47v-5.8c0-1.7-.71-2.55-2.14-2.55a2.86 2.86 0 0 0-1.59.44c-.22.15-.4.34-.53.57a1.6 1.6 0 0 0-.19.79v6.55h-1.46Zm13.96.22a3.94 3.94 0 0 1-3.1-1.34 4.95 4.95 0 0 1-.86-1.55c-.2-.61-.3-1.3-.3-2.05 0-.75.1-1.42.3-2.03.21-.61.5-1.13.86-1.56a3.83 3.83 0 0 1 3.1-1.36 3.72 3.72 0 0 1 2.98 1.32c.36.4.62.89.8 1.45.2.56.3 1.18.3 1.85v.7h-6.8v.43a2.91 2.91 0 0 0 .73 2.03 2.77 2.77 0 0 0 2.08.83 2.74 2.74 0 0 0 2.6-1.63l1.04.75a3.6 3.6 0 0 1-1.43 1.57c-.64.4-1.41.6-2.3.6Zm0-8.66a2.69 2.69 0 0 0-1.96.8 3.06 3.06 0 0 0-.75 2.05v.14h5.22v-.2c0-.85-.24-1.52-.7-2.02a2.3 2.3 0 0 0-1.81-.77Zm5.41-1h1.43l1.01 4.08 1 4.14h.04l1.16-4.14 1.19-4.09h1.3l1.22 4.09 1.17 4.14h.04l.97-4.14 1.03-4.09h1.37l-2.5 9.45h-1.82l-1.32-4.54-.82-2.87h-.04l-.8 2.87-1.32 4.54h-1.78l-2.52-9.45ZM510 241.3h-1.55V240H510v-1.9c0-.66.17-1.19.51-1.6.35-.4.87-.6 1.56-.6h1.43v1.28h-2.03V240h2.03v1.29h-2.03v8.16H510v-8.16Zm8.9 8.38a3.93 3.93 0 0 1-3.1-1.34 4.92 4.92 0 0 1-.86-1.55 6.7 6.7 0 0 1-.3-2.05c0-.75.1-1.42.3-2.03.2-.61.5-1.13.86-1.56a3.82 3.82 0 0 1 3.1-1.36 3.72 3.72 0 0 1 2.98 1.32c.35.4.62.89.8 1.45.2.56.3 1.18.3 1.85v.7h-6.8v.43a2.9 2.9 0 0 0 .73 2.03 2.77 2.77 0 0 0 2.08.83 2.75 2.75 0 0 0 2.6-1.63l1.04.75a3.6 3.6 0 0 1-1.43 1.57c-.65.4-1.41.6-2.3.6Zm0-8.66a2.68 2.68 0 0 0-1.96.8 3.08 3.08 0 0 0-.75 2.05v.14h5.21v-.2c0-.85-.23-1.52-.7-2.02a2.3 2.3 0 0 0-1.8-.77Zm13.36 8.44c-.55 0-.95-.15-1.2-.44-.22-.3-.37-.66-.43-1.1h-.1c-.2.59-.54 1.03-1.02 1.32-.48.3-1.04.44-1.7.44-1 0-1.78-.25-2.35-.77a2.72 2.72 0 0 1-.82-2.09c0-.89.32-1.57.97-2.04.66-.48 1.68-.72 3.06-.72h1.87v-.93c0-.67-.19-1.19-.55-1.54-.37-.35-.93-.53-1.69-.53-.57 0-1.05.13-1.44.38-.38.26-.7.6-.96 1.03l-.88-.83c.26-.5.67-.94 1.23-1.3a3.81 3.81 0 0 1 2.13-.55 3.9 3.9 0 0 1 2.67.85c.63.56.95 1.34.95 2.34v5.2h1.08v1.28h-.82Zm-4.21-1.02c.36 0 .7-.05 1-.13.3-.09.57-.2.79-.37.22-.16.4-.34.51-.55.13-.2.19-.43.19-.67v-1.56h-1.94a3.6 3.6 0 0 0-1.85.37c-.38.24-.57.6-.57 1.06v.38c0 .47.16.83.5 1.08.33.26.8.39 1.37.39Zm9.2 1.02c-.5 0-.9-.14-1.16-.42-.26-.3-.39-.67-.39-1.13v-6.61h-1.55V240h.87c.32 0 .53-.06.64-.18.13-.13.19-.36.19-.68v-1.75h1.32V240h2.07v1.29h-2.07v6.88h1.92v1.28h-1.83Zm10.16-1.54h-.07c-.1.22-.22.44-.37.66-.13.21-.3.4-.51.57-.2.16-.46.29-.75.38-.3.1-.64.15-1.03.15a3 3 0 0 1-2.32-.93 3.85 3.85 0 0 1-.86-2.68v-6.06h1.46v5.8c0 1.7.72 2.55 2.16 2.55.3 0 .58-.03.85-.1.27-.08.52-.19.73-.34a1.57 1.57 0 0 0 .71-1.37v-6.54h1.47v9.45h-1.47v-1.54Zm4.59 1.54v-9.45h1.46v1.74h.1c.16-.45.47-.85.9-1.2a2.81 2.81 0 0 1 1.82-.54h.57v1.47h-.86c-.8 0-1.42.15-1.87.46-.44.29-.66.66-.66 1.11v6.41h-1.47Zm10.18.22a3.94 3.94 0 0 1-3.95-2.9 6.7 6.7 0 0 1-.3-2.04c0-.75.1-1.42.3-2.03.2-.61.49-1.13.86-1.56a3.83 3.83 0 0 1 3.09-1.36 3.72 3.72 0 0 1 2.98 1.32c.36.4.63.89.8 1.45.2.56.3 1.18.3 1.85v.7h-6.79v.43c0 .4.06.78.18 1.14.14.34.32.64.55.9.25.25.54.45.88.6.35.15.75.22 1.2.22a2.74 2.74 0 0 0 2.6-1.63l1.03.75c-.3.65-.78 1.17-1.42 1.57-.65.4-1.42.6-2.31.6Zm0-8.66a2.68 2.68 0 0 0-1.96.8 3.08 3.08 0 0 0-.75 2.05v.14h5.22v-.2c0-.85-.24-1.52-.7-2.02a2.3 2.3 0 0 0-1.81-.77Zm17.69 8.44c-.55 0-.95-.15-1.2-.44-.22-.3-.37-.66-.43-1.1h-.1c-.2.59-.54 1.03-1.02 1.32-.48.3-1.04.44-1.7.44-1 0-1.78-.25-2.34-.77a2.72 2.72 0 0 1-.83-2.09c0-.89.33-1.57.97-2.04.66-.48 1.68-.72 3.06-.72h1.87v-.93c0-.67-.19-1.19-.55-1.54-.37-.35-.93-.53-1.69-.53-.57 0-1.05.13-1.44.38-.38.26-.7.6-.96 1.03l-.87-.83c.25-.5.66-.94 1.22-1.3a3.82 3.82 0 0 1 2.13-.55 3.9 3.9 0 0 1 2.67.85c.63.56.95 1.34.95 2.34v5.2h1.08v1.28h-.82Zm-4.21-1.02c.36 0 .7-.05 1-.13.3-.09.57-.2.8-.37.21-.16.38-.34.5-.55.13-.2.19-.43.19-.67v-1.56h-1.94a3.6 3.6 0 0 0-1.85.37c-.38.24-.57.6-.57 1.06v.38c0 .47.16.83.5 1.08.34.26.8.39 1.37.39Zm7.12 1.02v-9.45h1.47v1.54h.07c.23-.53.55-.96.97-1.28.43-.32 1-.48 1.7-.48.98 0 1.75.32 2.3.96.58.62.87 1.5.87 2.65v6.06h-1.46v-5.8c0-1.7-.72-2.55-2.15-2.55a2.86 2.86 0 0 0-1.59.44c-.22.15-.4.34-.53.57a1.6 1.6 0 0 0-.18.79v6.55h-1.47Zm16.45-1.54h-.08a2.88 2.88 0 0 1-2.76 1.76 3.55 3.55 0 0 1-2.82-1.34 4.77 4.77 0 0 1-.77-1.55 7.64 7.64 0 0 1-.25-2.05c0-.76.08-1.44.25-2.05.19-.61.44-1.13.77-1.56a3.54 3.54 0 0 1 4.5-.9c.48.28.84.73 1.08 1.32h.08v-5.64h1.46v13.55h-1.46v-1.54Zm-2.44.44a3.24 3.24 0 0 0 1.72-.49 1.76 1.76 0 0 0 .72-1.43v-3.51a1.7 1.7 0 0 0-.72-1.3 2.44 2.44 0 0 0-.78-.37c-.3-.1-.6-.15-.94-.15a2.5 2.5 0 0 0-1.95.79 2.87 2.87 0 0 0-.72 2.03v1.61c0 .85.24 1.53.72 2.05.47.52 1.12.77 1.95.77Zm11.34-12.45h1.47v5.64h.07c.23-.53.56-.96.97-1.28.43-.32 1-.48 1.7-.48.98 0 1.75.32 2.31.96.58.62.86 1.5.86 2.65v6.06h-1.46v-5.8c0-1.7-.72-2.55-2.14-2.55-.3 0-.58.04-.87.11-.26.08-.5.19-.73.33-.22.15-.4.34-.53.57a1.6 1.6 0 0 0-.18.79v6.55h-1.47v-13.55Zm13.98 13.77c-.64 0-1.22-.12-1.74-.35a3.88 3.88 0 0 1-1.36-.99 4.95 4.95 0 0 1-.86-1.55c-.2-.61-.3-1.3-.3-2.05 0-.75.1-1.42.3-2.03.21-.61.5-1.13.87-1.56a4.1 4.1 0 0 1 3.09-1.36 3.84 3.84 0 0 1 3.07 1.36c.38.43.68.95.88 1.56.21.6.31 1.28.31 2.03 0 .75-.1 1.44-.3 2.05a4.6 4.6 0 0 1-.89 1.56 4.13 4.13 0 0 1-3.07 1.34Zm0-1.3c.8 0 1.44-.24 1.94-.73s.75-1.23.75-2.23v-1.36c0-1-.25-1.75-.75-2.23a2.66 2.66 0 0 0-1.94-.74c-.8 0-1.44.25-1.94.74-.5.48-.75 1.23-.75 2.23v1.36c0 1 .25 1.74.75 2.23s1.15.73 1.94.73Zm5.6-8.37h1.42l1.01 4.09 1 4.14h.04l1.16-4.14 1.19-4.09h1.3l1.22 4.09 1.18 4.14h.03l.97-4.14 1.03-4.09h1.37l-2.5 9.45h-1.82l-1.32-4.54-.82-2.87h-.04l-.8 2.87-1.32 4.54h-1.78l-2.52-9.45Zm21.45 9.45c-.51 0-.9-.14-1.17-.42-.26-.3-.39-.67-.39-1.13v-6.61h-1.55V240h.88c.31 0 .53-.06.64-.18.12-.13.18-.36.18-.68v-1.75h1.32V240h2.07v1.29h-2.07v6.88h1.92v1.28h-1.83Zm7.83.22a4.3 4.3 0 0 1-1.74-.35 3.88 3.88 0 0 1-1.35-.99 4.95 4.95 0 0 1-.87-1.55c-.2-.61-.3-1.3-.3-2.05 0-.75.1-1.42.3-2.03.21-.61.5-1.13.87-1.56a4.1 4.1 0 0 1 3.09-1.36 3.87 3.87 0 0 1 3.08 1.36c.37.43.67.95.87 1.56.21.6.32 1.28.32 2.03 0 .75-.1 1.44-.32 2.05-.2.6-.5 1.12-.87 1.56a4.13 4.13 0 0 1-3.08 1.34Zm0-1.3c.8 0 1.44-.24 1.94-.73s.75-1.23.75-2.23v-1.36c0-1-.25-1.75-.75-2.23a2.66 2.66 0 0 0-1.94-.74c-.8 0-1.44.25-1.94.74-.5.48-.75 1.23-.75 2.23v1.36c0 1 .25 1.74.75 2.23s1.15.73 1.94.73Zm16.82-.46h-.07c-.1.22-.22.44-.37.66-.13.21-.3.4-.5.57-.22.16-.47.29-.76.38-.3.1-.63.15-1.02.15a3 3 0 0 1-2.33-.93 3.85 3.85 0 0 1-.86-2.68v-6.06h1.46v5.8c0 1.7.72 2.55 2.16 2.55.3 0 .58-.03.85-.1.28-.08.52-.19.73-.34a1.57 1.57 0 0 0 .71-1.37v-6.54h1.47v9.45h-1.47v-1.54Zm7.42 1.76a4.4 4.4 0 0 1-2.21-.5 5.02 5.02 0 0 1-1.52-1.35l1.04-.84c.37.46.78.82 1.23 1.08.45.24.98.37 1.57.37.63 0 1.1-.14 1.45-.4.35-.28.53-.65.53-1.14 0-.37-.12-.68-.37-.94-.23-.26-.65-.45-1.28-.54l-.75-.11a6.78 6.78 0 0 1-1.2-.28c-.37-.13-.7-.3-.98-.51a2.44 2.44 0 0 1-.64-.8 2.7 2.7 0 0 1-.22-1.14c0-.47.09-.87.26-1.21.17-.35.4-.65.7-.88a3 3 0 0 1 1.08-.51 4.75 4.75 0 0 1 3.25.21c.53.28.99.65 1.38 1.13l-.97.87a2.79 2.79 0 0 0-.92-.78 2.8 2.8 0 0 0-1.52-.37c-.6 0-1.07.13-1.39.4-.3.26-.46.61-.46 1.06 0 .47.16.8.46 1.01.32.2.77.36 1.36.46l.73.1c1.05.17 1.8.47 2.23.92.44.44.66 1.02.66 1.74 0 .92-.31 1.64-.93 2.16-.63.53-1.48.8-2.57.8Zm9.64 0a3.94 3.94 0 0 1-3.95-2.9c-.2-.6-.3-1.28-.3-2.04 0-.75.1-1.42.3-2.03.2-.61.49-1.13.86-1.56a3.83 3.83 0 0 1 3.09-1.36 3.72 3.72 0 0 1 2.99 1.32c.35.4.62.89.8 1.45.2.56.3 1.18.3 1.85v.7h-6.8v.43c0 .4.06.78.18 1.14.14.34.32.64.55.9.25.25.54.45.88.6.36.15.75.22 1.2.22a2.74 2.74 0 0 0 2.6-1.63l1.03.75c-.3.65-.78 1.17-1.42 1.57-.65.4-1.42.6-2.31.6Zm0-8.66a2.68 2.68 0 0 0-1.96.8 3.08 3.08 0 0 0-.75 2.05v.14h5.22v-.2c0-.85-.23-1.52-.7-2.02a2.3 2.3 0 0 0-1.81-.77Zm11.55-3.22c-.31 0-.54-.07-.7-.22a.9.9 0 0 1-.2-.6v-.24c0-.25.07-.44.2-.59.15-.16.39-.24.7-.24.32 0 .55.08.68.24a.8.8 0 0 1 .22.59v.24c0 .24-.07.44-.22.6-.13.15-.36.22-.68.22Zm-.73 2.21h1.47v9.45h-1.47v-9.45Zm6.67 9.45c-.52 0-.9-.14-1.18-.42a1.7 1.7 0 0 1-.38-1.13v-6.61h-1.56V240h.88c.32 0 .53-.06.64-.18.13-.13.19-.36.19-.68v-1.75h1.31V240h2.07v1.29h-2.07v6.88h1.93v1.28h-1.83Zm5.26.22c-.39 0-.68-.1-.86-.3a1.1 1.1 0 0 1-.26-.76v-.24c0-.32.09-.57.26-.77.18-.2.47-.29.86-.29.4 0 .67.1.84.3.19.19.28.44.28.76v.24c0 .32-.1.57-.28.77-.17.2-.45.3-.84.3Z" fill="#19134D"/><circle cx="515.77" cy="297.62" r="5.23" fill="#19134D" fill-opacity=".1"/><circle cx="531.46" cy="297.62" r="5.23" fill="#3723E7"/><circle cx="547.15" cy="297.62" r="5.23" fill="#19134D" fill-opacity=".1"/><circle cx="562.85" cy="297.62" r="5.23" fill="#19134D" fill-opacity=".1"/><g filter="url(#g)"><rect width="388.38" height="340" rx="20.92" transform="matrix(1 0 0 -1 48 710)" fill="#fff"/></g><rect width="388.38" height="340" rx="20.92" transform="matrix(1 0 0 -1 48 710)" fill="#fff"/><rect x="55.85" y="590.12" width="57.23" height="42" rx="2.62" fill="#F8F9FA"/><path d="M74.9 618.04v-1.36h3.57V606.4h-.13l-3.22 3-.9-.97 3.4-3.17H80v11.42h3.3v1.36h-8.4Zm16.16 0v-2.51h-6.17v-1.35l5.35-8.92h2.28v8.99h1.85v1.28h-1.85v2.5h-1.46Zm-4.72-3.8h4.72v-7.79h-.1l-4.62 7.8Z" fill="#19134D"/><rect x="108.34" y="590.12" width="57.23" height="42" rx="2.62" fill="#F8F9FA"/><path d="M127.4 618.04v-1.36h3.56V606.4h-.12l-3.23 3-.9-.97 3.4-3.17h2.4v11.42h3.29v1.36h-8.4Zm18.4-11.42h-5.6l-.36 4.86h.13c.3-.42.64-.76 1.02-1.02.4-.26.92-.38 1.6-.38.54 0 1.05.09 1.51.27a3.51 3.51 0 0 1 2 2.01 4.9 4.9 0 0 1 0 3.39 3.77 3.77 0 0 1-2.22 2.2 5 5 0 0 1-1.8.3 4.2 4.2 0 0 1-3.35-1.37 8.2 8.2 0 0 1-.63-.8l1.15-.88a3.61 3.61 0 0 0 1.08 1.23 2.81 2.81 0 0 0 1.76.46c.88 0 1.54-.24 2-.7.45-.46.67-1.12.67-1.96v-.18c0-.84-.22-1.5-.67-1.96-.46-.47-1.12-.7-2-.7-.59 0-1.05.11-1.4.33-.32.21-.62.46-.89.75l-1.3-.18.46-7.03h6.85v1.36Z" fill="#19134D"/><path fill="#F8F9FA" d="M163.45 590.19h26.25v41.85h-26.25z"/><rect x="168.53" y="590.19" width="41.85" height="41.85" rx="20.92" fill="#3723E7"/><path d="M179.89 618.04v-1.36h3.57V606.4h-.13l-3.22 3-.9-.97 3.39-3.17h2.4v11.42h3.3v1.36h-8.41Zm14.8.22a4 4 0 0 1-3.15-1.3 4.42 4.42 0 0 1-.84-1.56 8.28 8.28 0 0 1 .13-4.72 10.19 10.19 0 0 1 2.56-4.12 9.61 9.61 0 0 1 1.58-1.3h1.98c-.69.5-1.3.99-1.83 1.46-.54.48-1.01.98-1.41 1.5a9.54 9.54 0 0 0-1.7 3.66l.08.04c.3-.52.7-.95 1.18-1.3a3.17 3.17 0 0 1 1.9-.53c.55 0 1.06.1 1.52.28a3.31 3.31 0 0 1 1.96 2.03 4.65 4.65 0 0 1-.02 3.35 3.75 3.75 0 0 1-2.2 2.2c-.52.2-1.1.3-1.74.3Zm-.01-1.34c.84 0 1.5-.23 1.95-.7.48-.46.72-1.12.72-1.99v-.15c0-.86-.24-1.53-.72-2a2.65 2.65 0 0 0-1.95-.69c-.85 0-1.5.24-1.98.7-.47.46-.7 1.13-.7 2v.14c0 .87.23 1.53.7 2 .47.46 1.13.7 1.98.7Z" fill="#fff"/><g clip-path="url(#h)"><path d="M232.38 618.04v-1.36h3.57V606.4h-.12l-3.23 3-.9-.97 3.4-3.17h2.4v11.42h3.29v1.36h-8.4Zm12.5 0 4.89-11.46h-5.46v2.38h-1.37v-3.7h8.39v1.36l-4.8 11.42h-1.65Z" fill="#19134D"/></g><g clip-path="url(#i)"><path fill-rule="evenodd" clip-rule="evenodd" d="M284.69 616.68v1.36h8.4v-1.36h-3.3v-3.2h5.4c-.1.32-.14.68-.14 1.08a3.34 3.34 0 0 0 1.12 2.64c.37.33.83.59 1.38.78.55.19 1.2.28 1.93.28s1.37-.1 1.92-.28c.55-.2 1-.45 1.37-.78.38-.33.66-.72.84-1.18a3.74 3.74 0 0 0 .15-2.54h1.2v-1.1h-1.86a3.9 3.9 0 0 0-1.78-.99v-.14a3.3 3.3 0 0 0 1.6-1.12 3 3 0 0 0 .6-1.89c0-.97-.35-1.75-1.06-2.32a4.5 4.5 0 0 0-2.98-.88 4.6 4.6 0 0 0-2.99.88 2.83 2.83 0 0 0-1.06 2.32c0 .74.2 1.37.58 1.89.4.51.94.88 1.62 1.12v.14a3.9 3.9 0 0 0-1.78 1h-5.52v-1.27 1.26h-.53v-7.12h-2.4l-3.39 3.17.9.97 3.22-3h.13v5.98h-5.18v1.1h5.18v3.2h-3.57Zm12.1-3.2c-.08.23-.12.49-.12.77v.38c0 .74.25 1.3.74 1.7.48.4 1.17.6 2.06.6.9 0 1.59-.2 2.07-.6.5-.4.74-.96.74-1.7v-.38c0-.28-.04-.54-.11-.77h-5.39Zm4.5-1.1h-3.63a3.46 3.46 0 0 1 1.81-.42c.75 0 1.35.14 1.82.42Zm.02-2.21c-.42.34-1.03.5-1.83.5-.81 0-1.42-.16-1.84-.5a1.87 1.87 0 0 1-.62-1.5v-.28c0-.66.21-1.16.63-1.5.41-.34 1.02-.51 1.83-.51.8 0 1.41.17 1.83.5.41.35.62.85.62 1.51v.27c0 .66-.2 1.16-.62 1.5Z" fill="#00194B" fill-opacity=".2"/></g><g clip-path="url(#j)"><path d="M337.37 618.04v-1.36h3.57V606.4h-.13l-3.22 3-.9-.97 3.4-3.17h2.4v11.42h3.29v1.36h-8.4Zm19.06-8.1c0 .96-.15 1.86-.43 2.7a10.87 10.87 0 0 1-4.14 5.4h-1.97c.68-.5 1.3-.99 1.83-1.47a9.35 9.35 0 0 0 3.11-5.16l-.09-.04c-.3.53-.7.97-1.19 1.32-.48.34-1.1.51-1.88.51a4.1 4.1 0 0 1-1.53-.27 3.33 3.33 0 0 1-1.19-.79 3.84 3.84 0 0 1-1.06-2.87c0-.62.1-1.2.3-1.7a3.88 3.88 0 0 1 2.2-2.22 4.83 4.83 0 0 1 3.53.04 3.98 3.98 0 0 1 2.21 2.51c.2.6.3 1.29.3 2.05Zm-4.27 1.96c.84 0 1.5-.23 1.96-.69.47-.46.71-1.13.71-2v-.14a2.7 2.7 0 0 0-.71-2 2.65 2.65 0 0 0-1.96-.7c-.84 0-1.5.24-1.98.7-.46.47-.7 1.13-.7 2v.14c0 .87.24 1.54.7 2 .48.46 1.14.7 1.98.7Z" fill="#19134D"/></g><g clip-path="url(#k)"><path d="M398.01 618.04h-8.38v-1.58l4.17-3.84c.6-.55 1.1-1.13 1.5-1.74.4-.62.61-1.25.61-1.87v-.22c0-.7-.2-1.28-.59-1.72-.39-.44-.98-.66-1.77-.66-.4 0-.73.06-1.03.17a2.41 2.41 0 0 0-1.3 1.15c-.13.26-.24.54-.33.84l-1.37-.53c.12-.38.29-.74.5-1.1.21-.36.48-.69.8-.97.33-.28.72-.5 1.17-.67.46-.17 1-.26 1.63-.26.62 0 1.18.1 1.67.28a3.28 3.28 0 0 1 1.98 1.94 4.25 4.25 0 0 1 .06 2.9 6.17 6.17 0 0 1-1.48 2.33c-.34.37-.7.73-1.11 1.1l-3.44 3.1h6.7v1.35Zm6.64.22c-1.52 0-2.64-.58-3.35-1.74-.7-1.16-1.04-2.78-1.04-4.87 0-2.09.35-3.71 1.04-4.87.71-1.16 1.83-1.74 3.35-1.74 1.53 0 2.64.58 3.34 1.74.7 1.16 1.06 2.78 1.06 4.87 0 2.09-.36 3.71-1.06 4.87-.7 1.16-1.81 1.74-3.34 1.74Zm0-1.34c.5 0 .93-.1 1.29-.3.35-.22.64-.51.86-.89.21-.38.37-.82.47-1.34.11-.5.17-1.07.17-1.7v-2.08c0-.63-.06-1.2-.17-1.7-.1-.52-.25-.96-.47-1.34a2.3 2.3 0 0 0-.87-.88c-.35-.21-.78-.31-1.28-.31s-.92.1-1.28.3c-.35.22-.64.5-.86.89-.22.38-.38.82-.5 1.33a9.1 9.1 0 0 0-.14 1.7v2.1c0 .62.05 1.18.15 1.7.1.5.27.95.5 1.33.21.38.5.67.85.88.36.2.78.31 1.28.31Z" fill="#19134D"/></g><g clip-path="url(#l)"><path d="m82.45 565.73 4.88-11.46h-5.45v2.38H80.5v-3.7h8.38v1.36l-4.8 11.42h-1.64Z" fill="#19134D"/></g><g clip-path="url(#m)"><path d="M137.23 565.95a6.1 6.1 0 0 1-1.92-.27 4.27 4.27 0 0 1-1.4-.8 3.34 3.34 0 0 1-1.11-2.63c0-.88.24-1.57.71-2.09a3.9 3.9 0 0 1 1.87-1.07v-.15a3.4 3.4 0 0 1-1.61-1.12 3.07 3.07 0 0 1-.59-1.88c0-.98.36-1.76 1.06-2.33.71-.59 1.7-.88 2.99-.88 1.28 0 2.28.3 2.98.88a2.83 2.83 0 0 1 1.06 2.33 3 3 0 0 1-.6 1.88c-.39.51-.92.89-1.6 1.12v.14c.78.21 1.4.57 1.88 1.08a3 3 0 0 1 .7 2.1c0 .52-.09 1-.28 1.46-.19.45-.47.84-.85 1.17-.36.33-.82.6-1.37.79-.55.18-1.19.27-1.92.27Zm0-1.34c.89 0 1.58-.2 2.07-.58.49-.4.73-.97.73-1.7v-.39c0-.73-.24-1.3-.73-1.68-.5-.4-1.18-.6-2.07-.6-.9 0-1.58.2-2.07.6-.49.39-.73.95-.73 1.68v.39c0 .73.24 1.3.73 1.7.49.39 1.18.58 2.07.58Zm0-6.24c.8 0 1.42-.17 1.83-.51.41-.34.62-.84.62-1.5v-.28c0-.66-.2-1.16-.62-1.5-.41-.34-1.03-.51-1.83-.51s-1.42.17-1.83.51c-.42.34-.62.84-.62 1.5v.28c0 .66.2 1.16.62 1.5.41.34 1.02.51 1.83.51Z" fill="#19134D"/><circle cx="136.96" cy="570.58" r="2.62" fill="#3723E7"/></g><g clip-path="url(#n)"><path d="M193.99 557.64c0 .95-.14 1.85-.42 2.69a10.94 10.94 0 0 1-2.56 4.12c-.54.52-1.07.95-1.58 1.28h-1.98c.69-.5 1.3-.99 1.83-1.46a9.47 9.47 0 0 0 3.11-5.16l-.08-.04c-.31.52-.7.96-1.2 1.31-.47.35-1.1.52-1.88.52a4.1 4.1 0 0 1-1.52-.28 3.33 3.33 0 0 1-1.2-.78 3.88 3.88 0 0 1-1.05-2.88c0-.62.1-1.19.3-1.7a3.88 3.88 0 0 1 2.19-2.22c.52-.2 1.1-.3 1.76-.3.65 0 1.25.1 1.77.34.54.22.99.54 1.36.97.37.42.66.93.86 1.54.2.6.29 1.3.29 2.05Zm-4.27 1.96c.84 0 1.5-.23 1.96-.7.48-.46.72-1.13.72-2v-.14c0-.87-.24-1.53-.72-2a2.65 2.65 0 0 0-1.96-.7c-.84 0-1.5.24-1.97.7-.47.47-.7 1.13-.7 2v.15c0 .86.23 1.53.7 2a2.7 2.7 0 0 0 1.97.69Z" fill="#19134D"/><circle cx="181.6" cy="570.58" r="2.62" fill="#3723E7"/><circle cx="189.45" cy="570.58" r="2.62" fill="#BA3D2F"/><circle cx="197.3" cy="570.58" r="2.62" fill="#00123E" fill-opacity=".3"/></g><g clip-path="url(#o)"><path d="M232.38 565.73v-1.35h3.57v-10.3h-.12l-3.23 3.01-.9-.97 3.4-3.17h2.4v11.43h3.29v1.35h-8.4Zm14.79.22c-1.53 0-2.64-.58-3.35-1.74-.7-1.16-1.04-2.78-1.04-4.87 0-2.09.34-3.7 1.04-4.87.7-1.16 1.82-1.74 3.35-1.74s2.64.58 3.33 1.74c.71 1.16 1.06 2.78 1.06 4.87 0 2.09-.35 3.71-1.06 4.87-.7 1.16-1.8 1.74-3.33 1.74Zm0-1.34c.5 0 .93-.1 1.28-.3.36-.21.64-.5.86-.89.22-.37.38-.82.48-1.33.1-.51.16-1.08.16-1.7v-2.1c0-.62-.05-1.18-.16-1.7-.1-.5-.26-.95-.48-1.33-.22-.38-.5-.67-.86-.88a2.5 2.5 0 0 0-1.28-.31 2.28 2.28 0 0 0-2.14 1.19 4.5 4.5 0 0 0-.5 1.34 9.1 9.1 0 0 0-.14 1.7v2.09c0 .62.05 1.19.14 1.7.11.51.28.96.5 1.33a2.28 2.28 0 0 0 2.14 1.19Z" fill="#19134D"/></g><path fill="#F8F9FA" d="M294.69 537.88h26.25v41.85h-26.25z"/><rect x="273.52" y="537.88" width="41.85" height="41.85" rx="20.92" fill="#3723E7"/><path d="M284.88 565.73v-1.35h3.57v-10.3h-.13l-3.22 3.01-.9-.97 3.39-3.17h2.4v11.43h3.3v1.35h-8.41Zm10.9 0v-1.35h3.57v-10.3h-.13L296 557.1l-.9-.97 3.4-3.17h2.4v11.43h3.29v1.35h-8.4Z" fill="#fff"/><rect x="318.32" y="537.81" width="57.23" height="42" rx="2.62" fill="#F8F9FA"/><path d="M337.37 565.73v-1.35h3.57v-10.3h-.13l-3.22 3.01-.9-.97 3.4-3.17h2.4v11.43h3.29v1.35h-8.4Zm19.06 0h-8.39v-1.57l4.17-3.85c.6-.55 1.1-1.13 1.5-1.74.4-.62.6-1.24.6-1.87v-.22c0-.7-.19-1.28-.58-1.72-.39-.43-.98-.65-1.77-.65-.4 0-.73.05-1.03.16a2.29 2.29 0 0 0-1.3 1.16 4.3 4.3 0 0 0-.33.84l-1.37-.53c.12-.38.29-.75.5-1.1a3.58 3.58 0 0 1 1.97-1.65c.47-.17 1-.26 1.63-.26.62 0 1.18.1 1.67.28a3.26 3.26 0 0 1 1.98 1.94 4.27 4.27 0 0 1 .06 2.9c-.14.42-.33.83-.58 1.22a7.4 7.4 0 0 1-.9 1.11c-.34.37-.71.74-1.11 1.1l-3.44 3.1h6.72v1.35Z" fill="#19134D"/><rect x="370.81" y="537.81" width="57.23" height="42" rx="2.62" fill="#F8F9FA"/><path d="M389.87 565.73v-1.35h3.57v-10.3h-.13l-3.22 3.01-.9-.97 3.39-3.17h2.4v11.43h3.3v1.35h-8.41Zm14.07-7.36c.87 0 1.51-.2 1.94-.59a2 2 0 0 0 .66-1.53v-.13c0-.67-.21-1.17-.64-1.5a2.5 2.5 0 0 0-1.65-.51c-.66 0-1.2.14-1.61.43-.41.29-.76.67-1.03 1.16l-1.13-.88c.16-.26.35-.5.57-.75a4 4 0 0 1 1.86-1.16 5.16 5.16 0 0 1 2.9.04 3.31 3.31 0 0 1 2.05 1.63c.2.4.3.86.3 1.38a2.94 2.94 0 0 1-1.5 2.6c-.29.17-.6.3-.95.38v.07a3.7 3.7 0 0 1 1.85 1c.26.26.46.58.6.96a3.67 3.67 0 0 1-.07 2.78c-.2.46-.5.85-.87 1.17-.38.32-.84.57-1.38.76-.53.18-1.13.27-1.77.27a5.3 5.3 0 0 1-1.47-.18 4.35 4.35 0 0 1-2.01-1.2 6.72 6.72 0 0 1-.66-.8l1.15-.88a3.32 3.32 0 0 0 1.15 1.23 3.12 3.12 0 0 0 1.82.46c.9 0 1.59-.2 2.05-.6.46-.42.7-1 .7-1.76v-.15c0-.76-.24-1.34-.7-1.74-.46-.42-1.15-.62-2.05-.62h-1.5v-1.34h1.39Z" fill="#19134D"/><g clip-path="url(#p)"><path d="M78.07 506.06c.86 0 1.51-.2 1.94-.58a2 2 0 0 0 .66-1.54v-.13c0-.67-.22-1.17-.64-1.5a2.51 2.51 0 0 0-1.65-.51c-.66 0-1.2.14-1.61.44a3.2 3.2 0 0 0-1.03 1.15l-1.13-.88c.16-.25.35-.5.57-.75a3.95 3.95 0 0 1 1.86-1.15 5.16 5.16 0 0 1 2.9.04 3.34 3.34 0 0 1 2.05 1.62c.2.4.3.86.3 1.38a2.94 2.94 0 0 1-1.5 2.6c-.29.17-.6.3-.95.38v.07a3.7 3.7 0 0 1 1.85 1.01 3.15 3.15 0 0 1 .84 2.21c0 .56-.1 1.06-.3 1.53-.21.45-.5.84-.88 1.17-.38.31-.84.56-1.38.75-.53.18-1.13.27-1.77.27-.55 0-1.04-.06-1.47-.18a4.35 4.35 0 0 1-2.01-1.19 6.83 6.83 0 0 1-.66-.8l1.15-.89a3.26 3.26 0 0 0 1.94 1.57 4 4 0 0 0 1.03.12c.9 0 1.58-.2 2.05-.6.46-.42.7-1 .7-1.76v-.15c0-.75-.24-1.33-.7-1.74-.47-.41-1.15-.62-2.05-.62h-1.5v-1.34h1.39Zm11.62 7.58c-1.53 0-2.65-.58-3.35-1.74-.7-1.16-1.05-2.78-1.05-4.87 0-2.08.35-3.7 1.05-4.87.7-1.16 1.82-1.74 3.35-1.74 1.52 0 2.63.58 3.33 1.74.7 1.16 1.06 2.79 1.06 4.87 0 2.1-.35 3.71-1.06 4.87-.7 1.16-1.8 1.74-3.33 1.74Zm0-1.33c.5 0 .92-.1 1.28-.31.35-.21.64-.5.86-.88.22-.38.38-.83.47-1.34.11-.51.17-1.08.17-1.7v-2.09c0-.62-.06-1.19-.17-1.7-.1-.52-.25-.96-.47-1.34-.22-.38-.5-.67-.86-.88a2.5 2.5 0 0 0-1.28-.3c-.5 0-.93.1-1.29.3-.35.21-.64.5-.86.88a4.5 4.5 0 0 0-.49 1.34c-.1.51-.15 1.08-.15 1.7v2.09c0 .62.05 1.19.15 1.7.11.51.27.96.5 1.34.21.38.5.67.85.88.36.2.79.3 1.29.3Z" fill="#19134D" fill-opacity=".5"/></g><g clip-path="url(#q)"><path d="M133.35 513.42v-1.35h3.57v-10.3h-.13l-3.22 3.01-.9-.97 3.39-3.17h2.4v11.43h3.3v1.35h-8.41Z" fill="#19134D"/></g><g clip-path="url(#r)"><path d="M193.99 513.42h-8.39v-1.57l4.18-3.85c.6-.55 1.1-1.13 1.5-1.74.4-.62.6-1.24.6-1.86v-.22c0-.71-.2-1.28-.58-1.72-.4-.44-.99-.66-1.78-.66a2.46 2.46 0 0 0-1.79.62 3.5 3.5 0 0 0-.86 1.54l-1.38-.53c.13-.38.3-.75.5-1.1.22-.37.49-.7.8-.97a4.1 4.1 0 0 1 2.81-.93c.62 0 1.17.09 1.66.27a3.27 3.27 0 0 1 1.98 1.94 4.24 4.24 0 0 1 .06 2.9 5.87 5.87 0 0 1-1.47 2.34c-.34.36-.72.73-1.12 1.1l-3.44 3.09h6.72v1.35Z" fill="#3723E7"/></g><g clip-path="url(#s)"><path fill-rule="evenodd" clip-rule="evenodd" d="M243.25 505.48c-.42.39-1.07.58-1.94.58h-1.39v1.34h1.5c.7 0 1.26.12 1.7.37h-5.29v-1.27 1.27h-1.3v1.1h7.5c.1.26.14.56.14.9v.14c0 .75-.23 1.34-.7 1.76-.46.4-1.14.6-2.04.6-.4 0-.74-.04-1.03-.11a3.13 3.13 0 0 1-1.43-.88c-.18-.2-.35-.44-.51-.7l-1.16.88a5 5 0 0 0 1.54 1.5c.33.21.71.38 1.14.5.43.12.91.18 1.46.18.65 0 1.24-.09 1.78-.27.54-.19 1-.44 1.37-.75a3.47 3.47 0 0 0 1.2-2.7c0-.38-.06-.74-.17-1.06h1.9v-1.1H245a2.8 2.8 0 0 0-.91-.7 4.53 4.53 0 0 0-.99-.36v-.07a3.65 3.65 0 0 0 1.74-1c.22-.25.4-.54.51-.87.14-.33.2-.7.2-1.11a2.96 2.96 0 0 0-1.13-2.38 3.34 3.34 0 0 0-1.23-.63 5.15 5.15 0 0 0-2.89-.03 4.21 4.21 0 0 0-2.44 1.9l1.14.88c.27-.49.61-.87 1.02-1.15.42-.3.96-.44 1.62-.44.68 0 1.23.17 1.64.51.43.33.64.83.64 1.5v.13a2 2 0 0 1-.66 1.54Z" fill="#00194B" fill-opacity=".2"/></g><g clip-path="url(#t)"><path fill-rule="evenodd" clip-rule="evenodd" d="M295.9 510.92v2.5h1.46v-2.5h1.85v-1.29h-1.85v-.77h2.66v-1.1h-2.66v-7.12h-2.29l-4.27 7.13h-.47v-1.27 1.27h-1.3v1.1h1.11l-.41.69v1.36h6.17Zm-4.27-2.06-.46.77h4.73v-.77h-4.27Zm4.27-1.1v-5.93h-.1l-3.52 5.94h3.62Z" fill="#00194B" fill-opacity=".2"/></g><g clip-path="url(#u)"><path fill-rule="evenodd" clip-rule="evenodd" d="M345.04 502h5.6v-1.36h-6.84l-.46 7.03.65.1h-1.17v-1.27 1.27h-1.3v1.1h8.04c.03.17.04.36.04.56v.19c0 .84-.23 1.49-.68 1.95-.45.47-1.12.7-2 .7-.38 0-.72-.04-1-.11a2.86 2.86 0 0 1-1.34-.88c-.17-.2-.33-.44-.5-.7l-1.14.88a4.73 4.73 0 0 0 2.56 2c.41.12.89.18 1.43.18.67 0 1.27-.1 1.79-.3a3.76 3.76 0 0 0 2.22-2.2 4.9 4.9 0 0 0 .26-2.28h1.31v-1.1h-1.57v-.01a3.5 3.5 0 0 0-2-2.01 4.1 4.1 0 0 0-1.52-.28c-.67 0-1.2.13-1.6.38-.37.26-.71.6-1.02 1.03h-.13l.37-4.87Zm4.12 5.77-.24-.3c-.45-.46-1.12-.7-2-.7-.58 0-1.04.12-1.38.34-.3.18-.57.4-.82.66h4.44Z" fill="#00194B" fill-opacity=".2"/></g><g clip-path="url(#v)"><path d="M399.72 513.64a4 4 0 0 1-3.15-1.3 4.43 4.43 0 0 1-.84-1.55 8.28 8.28 0 0 1 .13-4.72 10.07 10.07 0 0 1 2.56-4.13 9.67 9.67 0 0 1 1.57-1.3h1.98a26 26 0 0 0-1.83 1.47c-.54.47-1 .97-1.4 1.5a9.55 9.55 0 0 0-1.7 3.66l.08.04c.3-.53.7-.96 1.17-1.3a3.17 3.17 0 0 1 1.9-.53c.56 0 1.06.09 1.52.27a3.33 3.33 0 0 1 1.96 2.03 4.65 4.65 0 0 1-.02 3.35 3.75 3.75 0 0 1-2.2 2.2c-.52.2-1.1.31-1.73.31Zm-.02-1.33c.84 0 1.5-.24 1.96-.7.48-.46.71-1.13.71-2v-.14c0-.87-.23-1.53-.71-2a2.65 2.65 0 0 0-1.96-.7c-.84 0-1.5.24-1.98.7-.46.47-.7 1.13-.7 2v.14c0 .87.24 1.54.7 2 .48.46 1.14.7 1.98.7Z" fill="#19134D"/></g><path d="M78.62 449.85h-.1l-1.07 2.14-3.06 5.57-3.06-5.57-1.08-2.14h-.1v10.76h-1.5v-12.77h2.06l3.66 6.88h.1l3.67-6.88h1.98v12.78h-1.5v-10.77Zm8.32 10.98a3.89 3.89 0 0 1-3.1-1.34 4.93 4.93 0 0 1-.86-1.55c-.2-.6-.3-1.3-.3-2.05 0-.74.1-1.42.3-2.03.21-.61.5-1.13.86-1.56a4.1 4.1 0 0 1 3.1-1.35c.63 0 1.2.12 1.72.35.52.23.98.56 1.35 1 .38.43.68.95.88 1.56.21.61.31 1.29.31 2.03 0 .76-.1 1.44-.3 2.05a4.6 4.6 0 0 1-.89 1.56 3.9 3.9 0 0 1-3.07 1.33Zm0-1.3c.8 0 1.44-.24 1.94-.73s.75-1.23.75-2.23v-1.36c0-1-.25-1.74-.75-2.23a2.66 2.66 0 0 0-1.94-.73c-.8 0-1.44.24-1.94.73s-.75 1.23-.75 2.23v1.36c0 1 .25 1.75.75 2.23.5.5 1.15.74 1.94.74Zm6.67 1.09v-9.45h1.47v1.54h.07c.23-.54.56-.97.97-1.28.43-.32 1-.48 1.7-.48.98 0 1.75.32 2.31.95.57.62.86 1.5.86 2.66v6.06h-1.46v-5.8c0-1.7-.72-2.55-2.15-2.55-.29 0-.58.03-.86.1a2.5 2.5 0 0 0-.73.34c-.22.14-.4.33-.53.56a1.6 1.6 0 0 0-.18.8v6.55H93.6Zm34.59-11.42v11.42h-1.54v-11.43h-4.06v-1.35h9.66v1.35h-4.06Zm10.94 9.88h-.08c-.1.22-.22.44-.36.66-.14.2-.3.4-.51.56-.21.16-.46.3-.75.39-.3.1-.64.14-1.03.14a3 3 0 0 1-2.33-.93 3.85 3.85 0 0 1-.86-2.67v-6.06h1.47v5.8c0 1.7.72 2.55 2.16 2.55.3 0 .57-.04.84-.11.28-.08.53-.19.73-.33a1.57 1.57 0 0 0 .72-1.38v-6.53h1.46v9.44h-1.46v-1.53Zm8.13 1.75a3.94 3.94 0 0 1-3.95-2.9c-.2-.6-.3-1.28-.3-2.04 0-.74.1-1.42.3-2.03.2-.61.5-1.13.86-1.56a3.83 3.83 0 0 1 3.1-1.35 3.72 3.72 0 0 1 2.99 1.32c.34.4.6.88.8 1.44.19.56.28 1.18.28 1.85v.7h-6.79v.44a2.92 2.92 0 0 0 .73 2.03c.25.26.54.46.88.6.36.15.76.22 1.2.22a2.73 2.73 0 0 0 2.6-1.63l1.04.75c-.3.65-.78 1.18-1.43 1.58a4.4 4.4 0 0 1-2.3.58Zm0-8.65a2.68 2.68 0 0 0-1.96.8 3.1 3.1 0 0 0-.75 2.05v.13h5.22v-.2c0-.84-.23-1.51-.7-2.02a2.3 2.3 0 0 0-1.8-.76Zm27.55 8.44-3.1-12.78h1.62l1.37 6.15 1.07 4.78h.03l1.2-4.78 1.6-6.15h1.76l1.56 6.15 1.19 4.76h.05l1.1-4.76 1.45-6.15h1.57l-3.28 12.78h-1.7l-1.66-6.38-1.18-4.68h-.03l-1.21 4.68-1.7 6.38h-1.7Zm17.67.21a3.94 3.94 0 0 1-3.95-2.9c-.2-.6-.3-1.28-.3-2.04 0-.74.1-1.42.3-2.03.2-.61.49-1.13.86-1.56a3.83 3.83 0 0 1 3.09-1.35 3.72 3.72 0 0 1 2.98 1.32c.36.4.63.88.81 1.44.2.56.3 1.18.3 1.85v.7h-6.8v.44c0 .4.06.78.18 1.13.14.34.32.64.55.9.25.26.54.46.88.6.36.15.75.22 1.2.22a2.73 2.73 0 0 0 2.6-1.63l1.03.75c-.3.65-.78 1.18-1.42 1.58a4.4 4.4 0 0 1-2.31.58Zm0-8.65a2.68 2.68 0 0 0-1.96.8 3.1 3.1 0 0 0-.75 2.05v.13H195v-.2c0-.84-.23-1.51-.7-2.02a2.3 2.3 0 0 0-1.81-.76Zm12.54 6.9h-.07a2.88 2.88 0 0 1-2.77 1.75c-.59 0-1.12-.11-1.6-.34a3.55 3.55 0 0 1-1.22-1 4.75 4.75 0 0 1-.77-1.55 7.6 7.6 0 0 1-.25-2.05c0-.75.08-1.44.25-2.05.19-.6.44-1.13.77-1.55a3.55 3.55 0 0 1 4.5-.9c.48.28.84.72 1.09 1.32h.07v-5.64h1.46v13.55h-1.46v-1.54Zm-2.44.44c.33 0 .64-.05.94-.13.3-.09.56-.2.78-.37a1.74 1.74 0 0 0 .72-1.42v-3.52c0-.26-.07-.5-.2-.71-.13-.24-.3-.43-.52-.59a2.45 2.45 0 0 0-.78-.37c-.3-.1-.6-.14-.94-.14-.83 0-1.48.26-1.96.78a2.87 2.87 0 0 0-.71 2.04v1.6c0 .85.24 1.53.71 2.06.48.51 1.13.77 1.96.77Zm29.96-10.32v11.42h-1.53v-11.43h-4.07v-1.35h9.67v1.35h-4.07Zm6.03-2.13h1.47v5.64h.07c.23-.54.56-.97.97-1.28.43-.32 1-.48 1.7-.48.98 0 1.75.32 2.3.95.58.62.87 1.5.87 2.66v6.06h-1.47v-5.8c0-1.7-.7-2.55-2.14-2.55-.29 0-.58.03-.86.1a2.5 2.5 0 0 0-.73.34c-.22.14-.4.33-.53.56a1.6 1.6 0 0 0-.18.8v6.55h-1.47v-13.55Zm16.23 12h-.07c-.1.23-.22.45-.37.67a2.24 2.24 0 0 1-1.26.95c-.3.1-.64.14-1.03.14a3 3 0 0 1-2.32-.93 3.84 3.84 0 0 1-.86-2.67v-6.06h1.46v5.8c0 1.7.72 2.55 2.16 2.55.3 0 .57-.04.84-.11.28-.08.53-.19.73-.33a1.58 1.58 0 0 0 .72-1.38v-6.53h1.46v9.44h-1.46v-1.53Zm30.99 1.55v-12.78h7.62v1.35h-6.08v4.29h5.55v1.35h-5.55v5.79h-1.53Zm9.73 0v-9.45h1.46v1.74h.1c.17-.45.47-.86.9-1.21a2.81 2.81 0 0 1 1.82-.53h.57v1.46h-.86c-.8 0-1.42.16-1.87.46-.44.3-.66.67-.66 1.12v6.4h-1.46Zm7.45-11.67c-.31 0-.55-.07-.7-.22a.9.9 0 0 1-.2-.6v-.24c0-.24.07-.44.2-.58.15-.16.39-.24.7-.24.32 0 .55.08.68.24a.8.8 0 0 1 .22.58v.24c0 .24-.07.44-.22.6-.13.15-.36.22-.68.22Zm-.73 2.22h1.46v9.44h-1.46v-9.44Zm36.8 9.66a5.58 5.58 0 0 1-2.65-.58 5.74 5.74 0 0 1-1.87-1.65l1.14-.95a3.93 3.93 0 0 0 3.44 1.83c.91 0 1.61-.22 2.09-.66.49-.44.73-1.02.73-1.76 0-.6-.18-1.08-.55-1.4-.37-.34-.97-.6-1.81-.8l-1.05-.23a6.21 6.21 0 0 1-2.69-1.21 2.94 2.94 0 0 1-.91-2.3c0-.57.1-1.07.3-1.5.22-.45.5-.81.87-1.1.38-.3.82-.52 1.34-.66.52-.16 1.1-.24 1.72-.24a4.76 4.76 0 0 1 4.23 2.09l-1.16.84a3.97 3.97 0 0 0-1.28-1.16 3.77 3.77 0 0 0-1.87-.42c-.81 0-1.46.18-1.94.53-.46.34-.7.86-.7 1.56 0 .6.2 1.07.6 1.39.4.3 1 .55 1.8.73l1.05.24a5.4 5.4 0 0 1 2.73 1.28c.56.58.84 1.34.84 2.29 0 .59-.1 1.12-.31 1.6-.2.47-.49.87-.86 1.2-.38.33-.85.59-1.4.77-.53.18-1.14.27-1.83.27Zm13.77-.21c-.55 0-.94-.15-1.19-.44-.23-.3-.38-.66-.44-1.1h-.09c-.2.58-.55 1.02-1.02 1.32-.48.29-1.05.44-1.7.44-1 0-1.79-.26-2.35-.77a2.71 2.71 0 0 1-.82-2.1c0-.88.32-1.57.97-2.04.66-.48 1.68-.72 3.05-.72h1.87v-.93c0-.67-.18-1.18-.55-1.54-.36-.35-.93-.53-1.68-.53-.57 0-1.06.13-1.45.39-.38.25-.7.6-.95 1.02l-.88-.82c.26-.51.67-.95 1.23-1.3a3.81 3.81 0 0 1 2.12-.55 3.9 3.9 0 0 1 2.67.84c.64.56.96 1.34.96 2.34v5.2h1.08v1.29h-.83Zm-4.2-1.03c.36 0 .7-.04 1-.13.3-.08.57-.2.79-.36.22-.16.39-.35.5-.55.13-.21.2-.44.2-.68v-1.56h-1.95a3.6 3.6 0 0 0-1.85.37c-.38.24-.56.6-.56 1.06v.39c0 .46.16.82.49 1.08.34.25.8.38 1.37.38Zm9.2 1.03c-.5 0-.9-.14-1.17-.43a1.68 1.68 0 0 1-.38-1.13v-6.61h-1.56v-1.28h.88c.32 0 .53-.06.64-.18.12-.14.18-.37.18-.68v-1.76h1.32v2.62h2.07v1.28h-2.07v6.88h1.92v1.29h-1.83Zm31.42.21a5.55 5.55 0 0 1-2.65-.58 5.74 5.74 0 0 1-1.87-1.65l1.14-.95a3.93 3.93 0 0 0 3.44 1.83c.91 0 1.6-.22 2.08-.66.5-.44.74-1.02.74-1.76 0-.6-.19-1.08-.55-1.4-.37-.34-.97-.6-1.81-.8l-1.05-.23a6.21 6.21 0 0 1-2.69-1.21 2.94 2.94 0 0 1-.91-2.3c0-.57.1-1.07.3-1.5.21-.45.5-.81.87-1.1.38-.3.82-.52 1.33-.66.53-.16 1.1-.24 1.72-.24a4.76 4.76 0 0 1 4.23 2.09l-1.15.84a3.96 3.96 0 0 0-1.28-1.16 3.77 3.77 0 0 0-1.87-.42c-.82 0-1.46.18-1.94.53-.46.34-.7.86-.7 1.56 0 .6.2 1.07.59 1.39.4.3 1 .55 1.81.73l1.05.24c1.25.28 2.16.7 2.72 1.28.57.58.85 1.34.85 2.29 0 .59-.1 1.12-.31 1.6-.2.47-.49.87-.87 1.2-.37.33-.84.59-1.39.77-.53.18-1.14.27-1.83.27Zm12.73-1.75h-.08c-.1.22-.22.44-.36.66-.14.2-.3.4-.51.56-.21.16-.46.3-.75.39-.3.1-.64.14-1.03.14a3 3 0 0 1-2.33-.93 3.85 3.85 0 0 1-.86-2.67v-6.06h1.47v5.8c0 1.7.72 2.55 2.16 2.55.3 0 .57-.04.84-.11.28-.08.53-.19.73-.33a1.57 1.57 0 0 0 .72-1.38v-6.53h1.46v9.44h-1.46v-1.53Zm4.58 1.54v-9.45h1.46v1.54h.08c.23-.54.55-.97.97-1.28.43-.32 1-.48 1.7-.48.98 0 1.75.32 2.3.95.58.62.87 1.5.87 2.66v6.06h-1.47v-5.8c0-1.7-.71-2.55-2.14-2.55-.3 0-.58.03-.86.1a2.5 2.5 0 0 0-.73.34c-.22.14-.4.33-.53.56a1.6 1.6 0 0 0-.19.8v6.55h-1.46Z" fill="#19134D" fill-opacity=".5"/><g clip-path="url(#w)"><g clip-path="url(#x)"><path d="m127.11 404 5.24-5.23 1.3 1.3-3.92 3.93 3.92 3.92-1.3 1.31-5.23-5.23Z" fill="#19134D"/></g><path d="M168.93 400.72h-.1l-1 2.07-2.8 5.11-2.8-5.1-1-2.08h-.1v9.78h-1.98v-12.78h2.45l3.43 6.5h.1l3.43-6.5h2.35v12.78h-1.98v-9.78Zm11.89 9.78c-.53 0-.93-.15-1.21-.44-.28-.3-.45-.69-.51-1.15h-.1c-.18.6-.51 1.05-1 1.35-.49.3-1.08.46-1.78.46-.98 0-1.75-.26-2.28-.77a2.76 2.76 0 0 1-.8-2.07c0-.95.35-1.66 1.03-2.14.7-.48 1.71-.71 3.04-.71h1.72v-.81c0-.59-.16-1.04-.47-1.35-.32-.32-.81-.48-1.49-.48-.56 0-1.01.12-1.37.37-.35.24-.65.55-.9.93l-1.19-1.08c.32-.54.77-.98 1.34-1.32a4.24 4.24 0 0 1 2.25-.53 4.2 4.2 0 0 1 2.84.86c.66.57.99 1.4.99 2.47v4.78h1v1.63h-1.11Zm-4.03-1.3c.62 0 1.14-.13 1.54-.4.4-.28.6-.66.6-1.12v-1.37h-1.68c-1.38 0-2.07.43-2.07 1.28v.33c0 .43.14.75.42.97.3.2.69.31 1.2.31Zm7.03 1.3v-9.52h2v1.83h.09c.13-.49.41-.92.84-1.28a2.64 2.64 0 0 1 1.77-.55h.53v1.92h-.78c-.8 0-1.4.13-1.83.39-.42.25-.63.63-.63 1.13v6.08h-2Zm10.52.22c-.68 0-1.29-.12-1.83-.35a3.68 3.68 0 0 1-1.35-.99 4.63 4.63 0 0 1-.84-1.57c-.2-.62-.3-1.31-.3-2.07 0-.76.1-1.44.3-2.05.2-.62.47-1.15.84-1.57a3.6 3.6 0 0 1 1.35-1.01 4.57 4.57 0 0 1 1.83-.35 4 4 0 0 1 2.35.64c.6.43 1.05 1 1.33 1.7l-1.65.77a1.99 1.99 0 0 0-2.03-1.44c-.73 0-1.28.23-1.66.7a2.73 2.73 0 0 0-.55 1.77v1.7c0 .73.18 1.33.55 1.8.38.45.93.67 1.66.67.59 0 1.05-.14 1.4-.42.35-.3.63-.68.84-1.15l1.52.8c-.32.78-.8 1.38-1.43 1.8-.64.41-1.41.62-2.33.62Zm5.58-13.77h2v5.6h.09c.2-.5.52-.94.93-1.28a2.73 2.73 0 0 1 1.74-.51c.98 0 1.74.32 2.27.97.55.63.83 1.54.83 2.73v6.04h-2v-5.8c0-1.48-.6-2.22-1.8-2.22a2.8 2.8 0 0 0-1.42.4c-.2.14-.35.3-.48.52-.1.2-.16.44-.16.71v6.39h-2v-13.55Z" fill="#3723E7"/><g clip-path="url(#y)"><path d="m239.58 404-5.23 5.23-1.31-1.3 3.92-3.93-3.92-3.92 1.3-1.31 5.24 5.23Z" fill="#19134D"/></g><g clip-path="url(#z)"><path d="m284.04 403.58 5.23-5.23 1.3 1.3-3.92 3.93 3.93 3.92-1.31 1.3-5.23-5.22Z" fill="#19134D"/></g><path d="M308.71 410.5h-8.67v-1.98l4.08-3.64a8.86 8.86 0 0 0 1.48-1.67c.35-.53.53-1.1.53-1.68v-.24a1.9 1.9 0 0 0-.57-1.46 2.07 2.07 0 0 0-1.5-.53c-.35 0-.66.05-.93.16-.26.1-.48.24-.68.42-.2.19-.36.4-.5.64-.11.25-.21.5-.28.79l-1.82-.7c.14-.4.32-.78.55-1.15a4.01 4.01 0 0 1 2.13-1.7 5.15 5.15 0 0 1 1.7-.26c.64 0 1.22.1 1.74.3a3.4 3.4 0 0 1 2.08 1.97 4.19 4.19 0 0 1 .04 2.95 5.1 5.1 0 0 1-.66 1.24c-.28.4-.6.77-.99 1.12-.36.36-.75.72-1.17 1.08l-3 2.58h6.44v1.76Zm6.5.22a3.89 3.89 0 0 1-3.51-1.74 6.03 6.03 0 0 1-.85-2.07 12.9 12.9 0 0 1-.28-2.8c0-1.04.1-1.96.28-2.78.18-.83.46-1.53.84-2.09.38-.56.86-.99 1.45-1.28.58-.3 1.27-.46 2.06-.46 1.6 0 2.76.58 3.5 1.74.76 1.16 1.14 2.78 1.14 4.87 0 2.09-.38 3.71-1.14 4.87-.74 1.16-1.9 1.74-3.5 1.74Zm0-1.76c.44 0 .8-.08 1.11-.25.32-.19.58-.44.77-.77.2-.33.34-.72.42-1.18.09-.46.13-.97.13-1.53v-2.24a7.9 7.9 0 0 0-.13-1.52 3.6 3.6 0 0 0-.42-1.19 2.13 2.13 0 0 0-1.89-1.02 2.01 2.01 0 0 0-1.88 1.02c-.2.33-.34.73-.42 1.2-.09.45-.13.95-.13 1.51v2.24c0 .56.04 1.07.13 1.53.08.46.22.85.42 1.18.2.33.44.58.75.77.32.17.7.25 1.13.25Zm15.31 1.54h-8.68v-1.98l4.09-3.64a8.82 8.82 0 0 0 1.48-1.67c.35-.53.53-1.1.53-1.68v-.24a1.9 1.9 0 0 0-.57-1.46 2.07 2.07 0 0 0-1.5-.53c-.35 0-.66.05-.93.16-.26.1-.48.24-.68.42-.2.19-.36.4-.5.64-.12.25-.21.5-.29.79l-1.8-.7c.13-.4.3-.78.54-1.15a4.03 4.03 0 0 1 2.12-1.7 5.14 5.14 0 0 1 1.7-.26c.65 0 1.23.1 1.75.3a3.41 3.41 0 0 1 2.08 1.97 4.17 4.17 0 0 1 .04 2.95 5.1 5.1 0 0 1-.66 1.24c-.28.4-.61.77-.99 1.12-.37.36-.75.72-1.17 1.08l-3 2.58h6.44v1.76Zm2.61 0v-1.72h3.6v-9.56h-.16l-2.96 3.17-1.26-1.13 3.25-3.54h3.15v11.06h3.12v1.72h-8.74Z" fill="#3723E7"/><g clip-path="url(#A)"><path d="m357.27 403.58-5.23 5.23-1.3-1.31 3.91-3.92-3.92-3.93 1.3-1.3 5.24 5.23Z" fill="#19134D"/></g></g></g><defs><clipPath id="a"><path fill="#fff" d="M0 0h640v640H0z"/></clipPath><clipPath id="h"><path fill="#fff" transform="translate(215.94 590.12)" d="M0 0h52.49v41.85H0z"/></clipPath><clipPath id="i"><path fill="#fff" transform="translate(268.44 590.12)" d="M0 0h52.49v41.85H0z"/></clipPath><clipPath id="j"><path fill="#fff" transform="translate(320.93 590.12)" d="M0 0h52.49v41.85H0z"/></clipPath><clipPath id="k"><path fill="#fff" transform="translate(373.43 590.12)" d="M0 0h52.49v41.85H0z"/></clipPath><clipPath id="l"><path fill="#fff" transform="translate(58.46 537.8)" d="M0 0h52.49v41.85H0z"/></clipPath><clipPath id="m"><path fill="#fff" transform="translate(110.96 537.8)" d="M0 0h52.49v41.85H0z"/></clipPath><clipPath id="n"><path fill="#fff" transform="translate(163.45 537.8)" d="M0 0h52.49v41.85H0z"/></clipPath><clipPath id="o"><path fill="#fff" transform="translate(215.94 537.8)" d="M0 0h52.49v41.85H0z"/></clipPath><clipPath id="p"><path fill="#fff" transform="translate(58.46 485.5)" d="M0 0h52.49v41.85H0z"/></clipPath><clipPath id="q"><path fill="#fff" transform="translate(110.96 485.5)" d="M0 0h52.49v41.85H0z"/></clipPath><clipPath id="r"><path fill="#fff" transform="translate(163.45 485.5)" d="M0 0h52.49v41.85H0z"/></clipPath><clipPath id="s"><path fill="#fff" transform="translate(215.94 485.5)" d="M0 0h52.49v41.85H0z"/></clipPath><clipPath id="t"><path fill="#fff" transform="translate(268.44 485.5)" d="M0 0h52.49v41.85H0z"/></clipPath><clipPath id="u"><path fill="#fff" transform="translate(320.93 485.5)" d="M0 0h52.49v41.85H0z"/></clipPath><clipPath id="v"><path fill="#fff" transform="translate(373.43 485.5)" d="M0 0h52.49v41.85H0z"/></clipPath><clipPath id="w"><path fill="#fff" transform="translate(58.46 390.5)" d="M0 0h367.46v37.46H0z"/></clipPath><clipPath id="x"><path fill="#fff" transform="translate(125.8 398.77)" d="M0 0h10.46v10.46H0z"/></clipPath><clipPath id="y"><path fill="#fff" transform="translate(230.42 398.77)" d="M0 0h10.46v10.46H0z"/></clipPath><clipPath id="z"><path fill="#fff" transform="translate(282.73 398.35)" d="M0 0h10.46v10.46H0z"/></clipPath><clipPath id="A"><path fill="#fff" transform="translate(348.12 398.35)" d="M0 0h10.46v10.46H0z"/></clipPath><filter id="b" x="-56.62" y="-37" width="544" height="434.15" filterUnits="userSpaceOnUse" color-interpolation-filters="sRGB"><feFlood flood-opacity="0" result="BackgroundImageFix"/><feColorMatrix in="SourceAlpha" values="0 0 0 0 0 0 0 0 0 0 0 0 0 0 0 0 0 0 127 0" result="hardAlpha"/><feOffset dy=".54"/><feGaussianBlur stdDeviation="1.45"/><feColorMatrix values="0 0 0 0 0.0745098 0 0 0 0 0.152941 0 0 0 0 0.301961 0 0 0 0.0196802 0"/><feBlend in2="BackgroundImageFix" result="effect1_dropShadow_451_4745"/><feColorMatrix in="SourceAlpha" values="0 0 0 0 0 0 0 0 0 0 0 0 0 0 0 0 0 0 127 0" result="hardAlpha"/><feOffset dy="1.3"/><feGaussianBlur stdDeviation="3.48"/><feColorMatrix values="0 0 0 0 0.0745098 0 0 0 0 0.152941 0 0 0 0 0.301961 0 0 0 0.0282725 0"/><feBlend in2="effect1_dropShadow_451_4745" result="effect2_dropShadow_451_4745"/><feColorMatrix in="SourceAlpha" values="0 0 0 0 0 0 0 0 0 0 0 0 0 0 0 0 0 0 127 0" result="hardAlpha"/><feOffset dy="2.46"/><feGaussianBlur stdDeviation="6.55"/><feColorMatrix values="0 0 0 0 0.0745098 0 0 0 0 0.152941 0 0 0 0 0.301961 0 0 0 0.035 0"/><feBlend in2="effect2_dropShadow_451_4745" result="effect3_dropShadow_451_4745"/><feColorMatrix in="SourceAlpha" values="0 0 0 0 0 0 0 0 0 0 0 0 0 0 0 0 0 0 127 0" result="hardAlpha"/><feOffset dy="4.38"/><feGaussianBlur stdDeviation="11.68"/><feColorMatrix values="0 0 0 0 0.0745098 0 0 0 0 0.152941 0 0 0 0 0.301961 0 0 0 0.0417275 0"/><feBlend in2="effect3_dropShadow_451_4745" result="effect4_dropShadow_451_4745"/><feColorMatrix in="SourceAlpha" values="0 0 0 0 0 0 0 0 0 0 0 0 0 0 0 0 0 0 127 0" result="hardAlpha"/><feOffset dy="8.19"/><feGaussianBlur stdDeviation="21.85"/><feColorMatrix values="0 0 0 0 0.0745098 0 0 0 0 0.152941 0 0 0 0 0.301961 0 0 0 0.0503198 0"/><feBlend in2="effect4_dropShadow_451_4745" result="effect5_dropShadow_451_4745"/><feColorMatrix in="SourceAlpha" values="0 0 0 0 0 0 0 0 0 0 0 0 0 0 0 0 0 0 127 0" result="hardAlpha"/><feOffset dy="19.62"/><feGaussianBlur stdDeviation="52.31"/><feColorMatrix values="0 0 0 0 0.0745098 0 0 0 0 0.152941 0 0 0 0 0.301961 0 0 0 0.07 0"/><feBlend in2="effect5_dropShadow_451_4745" result="effect6_dropShadow_451_4745"/><feColorMatrix in="SourceAlpha" values="0 0 0 0 0 0 0 0 0 0 0 0 0 0 0 0 0 0 127 0" result="hardAlpha"/><feOffset dy=".65"/><feGaussianBlur stdDeviation="1.31"/><feComposite in2="hardAlpha" operator="out"/><feColorMatrix values="0 0 0 0 0.0745098 0 0 0 0 0.152941 0 0 0 0 0.301961 0 0 0 0.1 0"/><feBlend in2="effect6_dropShadow_451_4745" result="effect7_dropShadow_451_4745"/><feBlend in="SourceGraphic" in2="effect7_dropShadow_451_4745" result="shape"/><feColorMatrix in="SourceAlpha" values="0 0 0 0 0 0 0 0 0 0 0 0 0 0 0 0 0 0 127 0" result="hardAlpha"/><feOffset dy="-.65"/><feGaussianBlur stdDeviation=".33"/><feComposite in2="hardAlpha" operator="arithmetic" k2="-1" k3="1"/><feColorMatrix values="0 0 0 0 0.0745098 0 0 0 0 0.152941 0 0 0 0 0.301961 0 0 0 0.25 0"/><feBlend in2="shape" result="effect8_innerShadow_451_4745"/></filter><filter id="c" x="225.85" y="210.12" width="136" height="43.15" filterUnits="userSpaceOnUse" color-interpolation-filters="sRGB"><feFlood flood-opacity="0" result="BackgroundImageFix"/><feBlend in="SourceGraphic" in2="BackgroundImageFix" result="shape"/><feColorMatrix in="SourceAlpha" values="0 0 0 0 0 0 0 0 0 0 0 0 0 0 0 0 0 0 127 0" result="hardAlpha"/><feOffset dy=".65"/><feGaussianBlur stdDeviation=".33"/><feComposite in2="hardAlpha" operator="arithmetic" k2="-1" k3="1"/><feColorMatrix values="0 0 0 0 1 0 0 0 0 1 0 0 0 0 1 0 0 0 0.35 0"/><feBlend in2="shape" result="effect1_innerShadow_451_4745"/><feColorMatrix in="SourceAlpha" values="0 0 0 0 0 0 0 0 0 0 0 0 0 0 0 0 0 0 127 0" result="hardAlpha"/><feOffset dy="-.65"/><feGaussianBlur stdDeviation=".33"/><feComposite in2="hardAlpha" operator="arithmetic" k2="-1" k3="1"/><feColorMatrix values="0 0 0 0 0 0 0 0 0 0 0 0 0 0 0 0 0 0 0.1 0"/><feBlend in2="effect1_innerShadow_451_4745" result="effect2_innerShadow_451_4745"/></filter><filter id="e" x="370.39" y="-62" width="524.61" height="512.62" filterUnits="userSpaceOnUse" color-interpolation-filters="sRGB"><feFlood flood-opacity="0" result="BackgroundImageFix"/><feColorMatrix in="SourceAlpha" values="0 0 0 0 0 0 0 0 0 0 0 0 0 0 0 0 0 0 127 0" result="hardAlpha"/><feOffset dy=".54"/><feGaussianBlur stdDeviation="1.45"/><feColorMatrix values="0 0 0 0 0.0745098 0 0 0 0 0.152941 0 0 0 0 0.301961 0 0 0 0.0196802 0"/><feBlend in2="BackgroundImageFix" result="effect1_dropShadow_451_4745"/><feColorMatrix in="SourceAlpha" values="0 0 0 0 0 0 0 0 0 0 0 0 0 0 0 0 0 0 127 0" result="hardAlpha"/><feOffset dy="1.3"/><feGaussianBlur stdDeviation="3.48"/><feColorMatrix values="0 0 0 0 0.0745098 0 0 0 0 0.152941 0 0 0 0 0.301961 0 0 0 0.0282725 0"/><feBlend in2="effect1_dropShadow_451_4745" result="effect2_dropShadow_451_4745"/><feColorMatrix in="SourceAlpha" values="0 0 0 0 0 0 0 0 0 0 0 0 0 0 0 0 0 0 127 0" result="hardAlpha"/><feOffset dy="2.46"/><feGaussianBlur stdDeviation="6.55"/><feColorMatrix values="0 0 0 0 0.0745098 0 0 0 0 0.152941 0 0 0 0 0.301961 0 0 0 0.035 0"/><feBlend in2="effect2_dropShadow_451_4745" result="effect3_dropShadow_451_4745"/><feColorMatrix in="SourceAlpha" values="0 0 0 0 0 0 0 0 0 0 0 0 0 0 0 0 0 0 127 0" result="hardAlpha"/><feOffset dy="4.38"/><feGaussianBlur stdDeviation="11.68"/><feColorMatrix values="0 0 0 0 0.0745098 0 0 0 0 0.152941 0 0 0 0 0.301961 0 0 0 0.0417275 0"/><feBlend in2="effect3_dropShadow_451_4745" result="effect4_dropShadow_451_4745"/><feColorMatrix in="SourceAlpha" values="0 0 0 0 0 0 0 0 0 0 0 0 0 0 0 0 0 0 127 0" result="hardAlpha"/><feOffset dy="8.19"/><feGaussianBlur stdDeviation="21.85"/><feColorMatrix values="0 0 0 0 0.0745098 0 0 0 0 0.152941 0 0 0 0 0.301961 0 0 0 0.0503198 0"/><feBlend in2="effect4_dropShadow_451_4745" result="effect5_dropShadow_451_4745"/><feColorMatrix in="SourceAlpha" values="0 0 0 0 0 0 0 0 0 0 0 0 0 0 0 0 0 0 127 0" result="hardAlpha"/><feOffset dy="19.62"/><feGaussianBlur stdDeviation="52.31"/><feColorMatrix values="0 0 0 0 0.0745098 0 0 0 0 0.152941 0 0 0 0 0.301961 0 0 0 0.07 0"/><feBlend in2="effect5_dropShadow_451_4745" result="effect6_dropShadow_451_4745"/><feColorMatrix in="SourceAlpha" values="0 0 0 0 0 0 0 0 0 0 0 0 0 0 0 0 0 0 127 0" result="hardAlpha"/><feOffset dy=".65"/><feGaussianBlur stdDeviation="1.31"/><feComposite in2="hardAlpha" operator="out"/><feColorMatrix values="0 0 0 0 0.0745098 0 0 0 0 0.152941 0 0 0 0 0.301961 0 0 0 0.1 0"/><feBlend in2="effect6_dropShadow_451_4745" result="effect7_dropShadow_451_4745"/><feBlend in="SourceGraphic" in2="effect7_dropShadow_451_4745" result="shape"/><feColorMatrix in="SourceAlpha" values="0 0 0 0 0 0 0 0 0 0 0 0 0 0 0 0 0 0 127 0" result="hardAlpha"/><feOffset dy="-.65"/><feGaussianBlur stdDeviation=".33"/><feComposite in2="hardAlpha" operator="arithmetic" k2="-1" k3="1"/><feColorMatrix values="0 0 0 0 0.0745098 0 0 0 0 0.152941 0 0 0 0 0.301961 0 0 0 0.25 0"/><feBlend in2="shape" result="effect8_innerShadow_451_4745"/></filter><filter id="f" x="476.19" y="-55.81" width="325" height="325" filterUnits="userSpaceOnUse" color-interpolation-filters="sRGB"><feFlood flood-opacity="0" result="BackgroundImageFix"/><feColorMatrix in="SourceAlpha" values="0 0 0 0 0 0 0 0 0 0 0 0 0 0 0 0 0 0 127 0" result="hardAlpha"/><feOffset dy=".54"/><feGaussianBlur stdDeviation="1.45"/><feColorMatrix values="0 0 0 0 0.0745098 0 0 0 0 0.152941 0 0 0 0 0.301961 0 0 0 0.0196802 0"/><feBlend in2="BackgroundImageFix" result="effect1_dropShadow_451_4745"/><feColorMatrix in="SourceAlpha" values="0 0 0 0 0 0 0 0 0 0 0 0 0 0 0 0 0 0 127 0" result="hardAlpha"/><feOffset dy="1.3"/><feGaussianBlur stdDeviation="3.48"/><feColorMatrix values="0 0 0 0 0.0745098 0 0 0 0 0.152941 0 0 0 0 0.301961 0 0 0 0.0282725 0"/><feBlend in2="effect1_dropShadow_451_4745" result="effect2_dropShadow_451_4745"/><feColorMatrix in="SourceAlpha" values="0 0 0 0 0 0 0 0 0 0 0 0 0 0 0 0 0 0 127 0" result="hardAlpha"/><feOffset dy="2.46"/><feGaussianBlur stdDeviation="6.55"/><feColorMatrix values="0 0 0 0 0.0745098 0 0 0 0 0.152941 0 0 0 0 0.301961 0 0 0 0.035 0"/><feBlend in2="effect2_dropShadow_451_4745" result="effect3_dropShadow_451_4745"/><feColorMatrix in="SourceAlpha" values="0 0 0 0 0 0 0 0 0 0 0 0 0 0 0 0 0 0 127 0" result="hardAlpha"/><feOffset dy="4.38"/><feGaussianBlur stdDeviation="11.68"/><feColorMatrix values="0 0 0 0 0.0745098 0 0 0 0 0.152941 0 0 0 0 0.301961 0 0 0 0.0417275 0"/><feBlend in2="effect3_dropShadow_451_4745" result="effect4_dropShadow_451_4745"/><feColorMatrix in="SourceAlpha" values="0 0 0 0 0 0 0 0 0 0 0 0 0 0 0 0 0 0 127 0" result="hardAlpha"/><feOffset dy="8.19"/><feGaussianBlur stdDeviation="21.85"/><feColorMatrix values="0 0 0 0 0.0745098 0 0 0 0 0.152941 0 0 0 0 0.301961 0 0 0 0.0503198 0"/><feBlend in2="effect4_dropShadow_451_4745" result="effect5_dropShadow_451_4745"/><feColorMatrix in="SourceAlpha" values="0 0 0 0 0 0 0 0 0 0 0 0 0 0 0 0 0 0 127 0" result="hardAlpha"/><feOffset dy="19.62"/><feGaussianBlur stdDeviation="52.31"/><feColorMatrix values="0 0 0 0 0.0745098 0 0 0 0 0.152941 0 0 0 0 0.301961 0 0 0 0.07 0"/><feBlend in2="effect5_dropShadow_451_4745" result="effect6_dropShadow_451_4745"/><feColorMatrix in="SourceAlpha" values="0 0 0 0 0 0 0 0 0 0 0 0 0 0 0 0 0 0 127 0" result="hardAlpha"/><feOffset dy=".65"/><feGaussianBlur stdDeviation="1.31"/><feComposite in2="hardAlpha" operator="out"/><feColorMatrix values="0 0 0 0 0.0745098 0 0 0 0 0.152941 0 0 0 0 0.301961 0 0 0 0.1 0"/><feBlend in2="effect6_dropShadow_451_4745" result="effect7_dropShadow_451_4745"/><feBlend in="SourceGraphic" in2="effect7_dropShadow_451_4745" result="shape"/></filter><filter id="g" x="-56.62" y="285" width="597.62" height="549.23" filterUnits="userSpaceOnUse" color-interpolation-filters="sRGB"><feFlood flood-opacity="0" result="BackgroundImageFix"/><feColorMatrix in="SourceAlpha" values="0 0 0 0 0 0 0 0 0 0 0 0 0 0 0 0 0 0 127 0" result="hardAlpha"/><feOffset dy=".54"/><feGaussianBlur stdDeviation="1.45"/><feColorMatrix values="0 0 0 0 0.0745098 0 0 0 0 0.152941 0 0 0 0 0.301961 0 0 0 0.0196802 0"/><feBlend in2="BackgroundImageFix" result="effect1_dropShadow_451_4745"/><feColorMatrix in="SourceAlpha" values="0 0 0 0 0 0 0 0 0 0 0 0 0 0 0 0 0 0 127 0" result="hardAlpha"/><feOffset dy="1.3"/><feGaussianBlur stdDeviation="3.48"/><feColorMatrix values="0 0 0 0 0.0745098 0 0 0 0 0.152941 0 0 0 0 0.301961 0 0 0 0.0282725 0"/><feBlend in2="effect1_dropShadow_451_4745" result="effect2_dropShadow_451_4745"/><feColorMatrix in="SourceAlpha" values="0 0 0 0 0 0 0 0 0 0 0 0 0 0 0 0 0 0 127 0" result="hardAlpha"/><feOffset dy="2.46"/><feGaussianBlur stdDeviation="6.55"/><feColorMatrix values="0 0 0 0 0.0745098 0 0 0 0 0.152941 0 0 0 0 0.301961 0 0 0 0.035 0"/><feBlend in2="effect2_dropShadow_451_4745" result="effect3_dropShadow_451_4745"/><feColorMatrix in="SourceAlpha" values="0 0 0 0 0 0 0 0 0 0 0 0 0 0 0 0 0 0 127 0" result="hardAlpha"/><feOffset dy="4.38"/><feGaussianBlur stdDeviation="11.68"/><feColorMatrix values="0 0 0 0 0.0745098 0 0 0 0 0.152941 0 0 0 0 0.301961 0 0 0 0.0417275 0"/><feBlend in2="effect3_dropShadow_451_4745" result="effect4_dropShadow_451_4745"/><feColorMatrix in="SourceAlpha" values="0 0 0 0 0 0 0 0 0 0 0 0 0 0 0 0 0 0 127 0" result="hardAlpha"/><feOffset dy="8.19"/><feGaussianBlur stdDeviation="21.85"/><feColorMatrix values="0 0 0 0 0.0745098 0 0 0 0 0.152941 0 0 0 0 0.301961 0 0 0 0.0503198 0"/><feBlend in2="effect4_dropShadow_451_4745" result="effect5_dropShadow_451_4745"/><feColorMatrix in="SourceAlpha" values="0 0 0 0 0 0 0 0 0 0 0 0 0 0 0 0 0 0 127 0" result="hardAlpha"/><feOffset dy="19.62"/><feGaussianBlur stdDeviation="52.31"/><feColorMatrix values="0 0 0 0 0.0745098 0 0 0 0 0.152941 0 0 0 0 0.301961 0 0 0 0.07 0"/><feBlend in2="effect5_dropShadow_451_4745" result="effect6_dropShadow_451_4745"/><feColorMatrix in="SourceAlpha" values="0 0 0 0 0 0 0 0 0 0 0 0 0 0 0 0 0 0 127 0" result="hardAlpha"/><feOffset dy=".65"/><feGaussianBlur stdDeviation="1.31"/><feComposite in2="hardAlpha" operator="out"/><feColorMatrix values="0 0 0 0 0.0745098 0 0 0 0 0.152941 0 0 0 0 0.301961 0 0 0 0.1 0"/><feBlend in2="effect6_dropShadow_451_4745" result="effect7_dropShadow_451_4745"/><feBlend in="SourceGraphic" in2="effect7_dropShadow_451_4745" result="shape"/><feColorMatrix in="SourceAlpha" values="0 0 0 0 0 0 0 0 0 0 0 0 0 0 0 0 0 0 127 0" result="hardAlpha"/><feOffset dy="-.65"/><feGaussianBlur stdDeviation=".33"/><feComposite in2="hardAlpha" operator="arithmetic" k2="-1" k3="1"/><feColorMatrix values="0 0 0 0 0.0745098 0 0 0 0 0.152941 0 0 0 0 0.301961 0 0 0 0.25 0"/><feBlend in2="shape" result="effect8_innerShadow_451_4745"/></filter><linearGradient id="d" x1="293.85" y1="210.77" x2="293.85" y2="252.62" gradientUnits="userSpaceOnUse"><stop stop-color="#fff"/><stop offset="1"/></linearGradient></defs></svg>