<svg width="221" height="478" viewBox="0 0 221 478" fill="none" xmlns="http://www.w3.org/2000/svg" xmlns:xlink="http://www.w3.org/1999/xlink">
<path d="M0.230469 38.7037C0.230469 25.38 0.230469 18.7182 2.82342 13.6292C5.10425 9.15284 8.74366 5.51343 13.22 3.2326C18.309 0.639648 24.9708 0.639648 38.2945 0.639648H182.345C195.669 0.639648 202.331 0.639648 207.419 3.2326C211.896 5.51343 215.535 9.15284 217.816 13.6292C220.409 18.7182 220.409 25.38 220.409 38.7037V439.336C220.409 452.659 220.409 459.321 217.816 464.41C215.535 468.886 211.896 472.526 207.419 474.807C202.331 477.4 195.669 477.4 182.345 477.4H38.2945C24.9708 477.4 18.309 477.4 13.22 474.807C8.74366 472.526 5.10425 468.886 2.82342 464.41C0.230469 459.321 0.230469 452.659 0.230469 439.336V38.7037Z" fill="#031017" fill-opacity="0.5"/>
<g clip-path="url(#clip0_406_533)">
<rect x="9.62451" y="308.89" width="63.8554" height="63.8554" fill="url(#pattern0)"/>
<rect x="58.7441" y="313.802" width="9.8239" height="9.8239" rx="2.45598" fill="#EB47AF"/>
<path d="M61.0512 316.109L63.6562 318.714M66.2612 321.319L63.6562 318.714M63.6562 318.714L66.2612 316.109L61.0512 321.319" stroke="#FDFDFC" stroke-width="1.22799"/>
</g>
<g clip-path="url(#clip1_406_533)">
<rect x="78.3916" y="308.89" width="63.8554" height="63.8554" fill="url(#pattern1)"/>
</g>
<g clip-path="url(#clip2_406_533)">
<rect x="147.159" y="308.89" width="63.8554" height="63.8554" fill="url(#pattern2)"/>
</g>
<g clip-path="url(#clip3_406_533)">
<rect x="9.62451" y="377.657" width="63.8554" height="63.8554" fill="url(#pattern3)"/>
</g>
<g clip-path="url(#clip4_406_533)">
<rect x="78.3916" y="377.657" width="63.8554" height="63.8554" fill="url(#pattern4)"/>
</g>
<g clip-path="url(#clip5_406_533)">
<rect x="147.159" y="377.657" width="63.8554" height="63.8554" fill="url(#pattern5)"/>
</g>
<path d="M10.6711 33.3614H17.2332V51.0591H21.7125V33.3614H28.2746V29.6251H10.6711V33.3614ZM36.1324 51.3731C41.0095 51.3731 44.0446 48.0345 44.0446 43.0841C44.0446 38.1024 41.0095 34.7743 36.1324 34.7743C31.2553 34.7743 28.2203 38.1024 28.2203 43.0841C28.2203 48.0345 31.2553 51.3731 36.1324 51.3731ZM36.1533 47.9193C33.9032 47.9193 32.752 45.8576 32.752 43.0527C32.752 40.2479 33.9032 38.1757 36.1533 38.1757C38.3616 38.1757 39.5129 40.2479 39.5129 43.0527C39.5129 45.8576 38.3616 47.9193 36.1533 47.9193ZM52.9778 51.3207C55.5733 51.3207 56.9234 49.8241 57.5408 48.4845H57.7292V51.0591H62.1249V29.6251H57.6769V37.6838H57.5408C56.9443 36.3756 55.657 34.7743 52.9673 34.7743C49.4403 34.7743 46.4576 37.5163 46.4576 43.0423C46.4576 48.4217 49.3147 51.3207 52.9778 51.3207ZM54.3906 47.7728C52.2033 47.7728 51.0102 45.8262 51.0102 43.0213C51.0102 40.2374 52.1823 38.3222 54.3906 38.3222C56.5571 38.3222 57.7711 40.1537 57.7711 43.0213C57.7711 45.889 56.5361 47.7728 54.3906 47.7728ZM70.4851 51.3626C72.8608 51.3626 74.3993 50.3265 75.1842 48.8299H75.3098V51.0591H79.538V40.2165C79.538 36.386 76.2936 34.7743 72.7143 34.7743C68.8629 34.7743 66.3301 36.6163 65.7126 39.5467L69.8362 39.8816C70.1397 38.8141 71.0921 38.0292 72.6933 38.0292C74.2109 38.0292 75.0795 38.7932 75.0795 40.1118V40.1746C75.0795 41.2108 73.9806 41.3468 71.1863 41.6189C68.0047 41.912 65.1475 42.9795 65.1475 46.5693C65.1475 49.7509 67.4186 51.3626 70.4851 51.3626ZM71.7619 48.2856C70.3909 48.2856 69.4071 47.6472 69.4071 46.4227C69.4071 45.1668 70.4432 44.5494 72.0131 44.3296C72.9864 44.1935 74.5772 43.9633 75.1109 43.6074V45.3134C75.1109 46.9983 73.719 48.2856 71.7619 48.2856ZM85.2843 57.0874C88.602 57.0874 90.3602 55.3919 91.2708 52.7964L97.5189 35.0045L92.7988 34.9836L89.4392 46.789H89.2718L85.9437 34.9836H81.255L87.0216 51.5196L86.76 52.1999C86.1739 53.7069 85.0541 53.7802 83.4842 53.2988L82.4795 56.6269C83.1179 56.899 84.154 57.0874 85.2843 57.0874Z" fill="#F0F0EC"/>
<g clip-path="url(#clip6_406_533)">
<path d="M0.230469 427.714H220.23V440.062C220.23 453.216 220.23 459.792 217.671 464.816C215.419 469.235 211.826 472.828 207.407 475.08C202.383 477.64 195.807 477.64 182.653 477.64H37.8076C24.6544 477.64 18.0778 477.64 13.0539 475.08C8.63477 472.828 5.04191 469.235 2.79026 464.816C0.230469 459.792 0.230469 453.216 0.230469 440.062V427.714Z" fill="#111C22"/>
<path d="M37.3407 434.344C37.8391 434.165 38.0882 434.075 38.3272 434.089C38.5292 434.101 38.7248 434.164 38.8951 434.274C39.0964 434.403 39.2453 434.622 39.5432 435.06L39.8085 435.45L40.2613 435.581C40.7697 435.729 41.0239 435.803 41.2092 435.955C41.3659 436.083 41.4868 436.249 41.5602 436.438C41.647 436.661 41.6388 436.926 41.6225 437.455L41.6079 437.926L41.8968 438.299C42.2211 438.718 42.3832 438.927 42.4441 439.158C42.4955 439.354 42.4955 439.56 42.4441 439.756C42.3832 439.987 42.2211 440.196 41.8968 440.615L41.6079 440.988L41.6225 441.459C41.6388 441.988 41.647 442.253 41.5602 442.476C41.4868 442.665 41.3659 442.831 41.2092 442.959C41.0239 443.111 40.7697 443.185 40.2613 443.333L39.8085 443.464L39.5432 443.854C39.2453 444.292 39.0964 444.511 38.8951 444.64C38.7248 444.75 38.5292 444.813 38.3272 444.825C38.0882 444.839 37.8391 444.749 37.3407 444.57L36.8969 444.41L36.4532 444.57C35.9548 444.749 35.7057 444.839 35.4667 444.825C35.2647 444.813 35.0691 444.75 34.8988 444.64C34.6975 444.511 34.5486 444.292 34.2507 443.854L33.9854 443.464L33.5326 443.333C33.0242 443.185 32.77 443.111 32.5847 442.959C32.428 442.831 32.3071 442.665 32.2337 442.476C32.1469 442.253 32.1551 441.988 32.1714 441.459L32.1859 440.988L31.8971 440.615C31.5728 440.196 31.4107 439.987 31.3498 439.756C31.2983 439.56 31.2983 439.354 31.3498 439.158C31.4107 438.927 31.5728 438.718 31.8971 438.299L32.1859 437.926L32.1714 437.455C32.1551 436.926 32.1469 436.661 32.2337 436.438C32.3071 436.249 32.428 436.083 32.5847 435.955C32.77 435.803 33.0242 435.729 33.5326 435.581L33.9854 435.45L34.2507 435.06C34.5486 434.622 34.6975 434.403 34.8988 434.274C35.0691 434.164 35.2647 434.101 35.4667 434.089C35.7057 434.075 35.9548 434.165 36.4532 434.344L36.8969 434.504L37.3407 434.344Z" fill="#FDFDFC"/>
<path d="M25.1305 452.229H26.4503V455.851H27.2176V452.229H28.5374V451.581H25.1305V452.229ZM33.707 453.716C33.707 452.336 32.8647 451.523 31.745 451.523C30.6233 451.523 29.783 452.336 29.783 453.716C29.783 455.094 30.6233 455.909 31.745 455.909C32.8647 455.909 33.707 455.096 33.707 453.716ZM32.9293 453.716C32.9293 454.688 32.4414 455.215 31.745 455.215C31.0507 455.215 30.5607 454.688 30.5607 453.716C30.5607 452.744 31.0507 452.217 31.745 452.217C32.4414 452.217 32.9293 452.744 32.9293 453.716ZM36.7661 455.851C38.0671 455.851 38.8386 455.046 38.8386 453.712C38.8386 452.382 38.0671 451.581 36.7953 451.581H35.3191V455.851H36.7661ZM36.0926 455.182V452.25H36.7515C37.6189 452.25 38.0713 452.734 38.0713 453.712C38.0713 454.694 37.6189 455.182 36.7285 455.182H36.0926ZM40.7733 455.851L41.1257 454.798H42.7311L43.0856 455.851H43.9112L42.4059 451.581H41.4509L39.9476 455.851H40.7733ZM41.3342 454.177L41.9117 452.457H41.9451L42.5226 454.177H41.3342ZM44.6267 451.581L46.1801 454.258V455.851H46.9515V454.258L48.5049 451.581H47.6312L46.5866 453.47H46.5449L45.5003 451.581H44.6267Z" fill="#FDFDFC"/>
<g opacity="0.5">
<path d="M110.047 436.279L110.216 436.397L110.384 436.279C111.397 435.569 112.461 435.16 113.407 435.071C114.353 434.983 115.157 435.216 115.7 435.759C116.348 436.406 116.547 437.44 116.283 438.634C116.02 439.823 115.305 441.123 114.202 442.223C113.076 443.348 112.038 444.211 111.281 444.792C110.903 445.082 110.596 445.302 110.384 445.449C110.316 445.496 110.258 445.535 110.211 445.567C110.16 445.535 110.097 445.494 110.024 445.445C109.803 445.299 109.484 445.08 109.099 444.79C108.329 444.21 107.293 443.35 106.235 442.23C105.193 441.127 104.475 439.823 104.196 438.631C103.915 437.432 104.087 436.402 104.731 435.759C105.274 435.216 106.079 434.983 107.024 435.071C107.97 435.16 109.034 435.569 110.047 436.279Z" fill="#FDFDFC" stroke="#E5F6F5" stroke-width="0.587143"/>
<path d="M94.2 455.851L94.5524 454.798H96.1578L96.5123 455.851H97.338L95.8326 451.581H94.8776L93.3743 455.851H94.2ZM94.7609 454.177L95.3384 452.457H95.3718L95.9493 454.177H94.7609ZM102.235 453.022C102.104 452.073 101.374 451.523 100.428 451.523C99.3123 451.523 98.472 452.336 98.472 453.716C98.472 455.094 99.3019 455.909 100.428 455.909C101.443 455.909 102.117 455.253 102.235 454.437L101.456 454.433C101.358 454.934 100.949 455.215 100.438 455.215C99.746 455.215 99.2497 454.696 99.2497 453.716C99.2497 452.753 99.7418 452.217 100.44 452.217C100.959 452.217 101.366 452.511 101.456 453.022H102.235ZM103.637 452.229H104.957V455.851H105.724V452.229H107.044V451.581H103.637V452.229ZM109.355 451.581H108.581V455.851H109.355V451.581ZM111.645 451.581H110.796L112.299 455.851H113.254L114.76 451.581H113.909L112.8 454.942H112.756L111.645 451.581ZM116.976 451.581H116.203V455.851H116.976V451.581ZM118.507 452.229H119.827V455.851H120.594V452.229H121.914V451.581H118.507V452.229ZM123.16 451.581L124.713 454.258V455.851H125.484V454.258L127.038 451.581H126.164L125.119 453.47H125.078L124.033 451.581H123.16Z" fill="#FDFDFC"/>
</g>
<g opacity="0.5">
<path fill-rule="evenodd" clip-rule="evenodd" d="M183.564 445.915C187.131 445.915 190.023 443.024 190.023 439.457C190.023 435.89 187.131 432.998 183.564 432.998C179.997 432.998 177.105 435.89 177.105 439.457C177.105 443.024 179.997 445.915 183.564 445.915ZM183.968 441.989C183.064 441.989 182.251 441.421 181.808 440.536L181.283 440.799C181.807 441.845 182.802 442.576 183.968 442.576C185.133 442.576 186.128 441.845 186.652 440.799L186.127 440.536C185.684 441.421 184.872 441.989 183.968 441.989ZM181.808 437.973C182.01 437.571 182.37 437.328 182.757 437.328C183.143 437.328 183.504 437.571 183.705 437.973L184.23 437.71C183.948 437.147 183.405 436.741 182.757 436.741C182.108 436.741 181.565 437.147 181.283 437.71L181.808 437.973ZM186.515 437.935C186.364 437.485 186.132 437.328 185.986 437.328C185.84 437.328 185.607 437.485 185.457 437.935L184.9 437.749C185.072 437.234 185.442 436.741 185.986 436.741C186.53 436.741 186.9 437.234 187.072 437.749L186.515 437.935Z" fill="#FDFDFC"/>
<path d="M168.985 455.851H169.758V454.408H170.576C171.562 454.408 172.091 453.816 172.091 452.995C172.091 452.179 171.568 451.581 170.586 451.581H168.985V455.851ZM169.758 453.772V452.227H170.467C171.047 452.227 171.303 452.54 171.303 452.995C171.303 453.449 171.047 453.772 170.471 453.772H169.758ZM173.644 455.851H174.417V454.287H175.206L176.044 455.851H176.907L175.983 454.158C176.486 453.956 176.751 453.526 176.751 452.947C176.751 452.131 176.225 451.581 175.245 451.581H173.644V455.851ZM174.417 453.645V452.227H175.126C175.704 452.227 175.962 452.492 175.962 452.947C175.962 453.401 175.704 453.645 175.131 453.645H174.417ZM182.159 453.716C182.159 452.336 181.317 451.523 180.197 451.523C179.075 451.523 178.235 452.336 178.235 453.716C178.235 455.094 179.075 455.909 180.197 455.909C181.317 455.909 182.159 455.096 182.159 453.716ZM181.381 453.716C181.381 454.688 180.893 455.215 180.197 455.215C179.503 455.215 179.013 454.688 179.013 453.716C179.013 452.744 179.503 452.217 180.197 452.217C180.893 452.217 181.381 452.744 181.381 453.716ZM183.771 455.851H184.545V454.037H186.319V453.389H184.545V452.229H186.507V451.581H183.771V455.851ZM188.866 451.581H188.092V455.851H188.866V451.581ZM190.584 455.851H193.238V455.203H191.357V451.581H190.584V455.851ZM194.79 455.851H197.584V455.203H195.564V454.037H197.424V453.389H195.564V452.229H197.568V451.581H194.79V455.851Z" fill="#FDFDFC"/>
</g>
</g>
<rect x="9.62451" y="70.8103" width="201.39" height="54.0315" rx="7.36793" fill="#48E9D4" fill-opacity="0.12"/>
<rect x="19.4482" y="81.8623" width="31.9277" height="31.9277" rx="15.9638" fill="#041924"/>
<path fill-rule="evenodd" clip-rule="evenodd" d="M28.9258 89.7949H29.2328H39.0171H39.1442L39.2341 89.8848L41.809 92.4597L41.8989 92.5496V92.6767V105.551V105.858H41.5919H29.2328H28.9258V105.551V90.1019V89.7949ZM29.5398 90.4089V105.244H41.2849V92.9837H39.0171H38.7101V92.6767V90.4089H29.5398ZM39.3241 90.8431L40.8507 92.3697H39.3241V90.8431ZM31.1143 93.2215H33.6891V93.8354H31.1143V93.2215ZM39.7102 95.0634H31.1143V95.6774H39.7102V95.0634ZM31.1143 96.9054H39.7102V97.5194H31.1143V96.9054ZM39.7102 98.7474H31.1143V99.3614H39.7102V98.7474ZM31.1143 100.589H39.7102V101.203H31.1143V100.589ZM39.7102 102.431H31.1143V103.045H39.7102V102.431Z" fill="#F0F0EC"/>
<path d="M66.9328 84.3827H65.9988V88.9737H65.9408L62.76 84.3827H61.887V90.6343H62.8302V86.0494H62.8882L66.0659 90.6343H66.9328V84.3827ZM70.3177 90.7289C71.3403 90.7289 72.0637 90.2252 72.2713 89.4621L71.4074 89.3064C71.2426 89.749 70.8458 89.9749 70.3268 89.9749C69.5454 89.9749 69.0204 89.4682 68.9959 88.5647H72.3293V88.2411C72.3293 86.5469 71.3159 85.8845 70.2536 85.8845C68.9471 85.8845 68.0863 86.8797 68.0863 88.3205C68.0863 89.7765 68.9349 90.7289 70.3177 90.7289ZM68.999 87.8809C69.0356 87.2154 69.5179 86.6385 70.2597 86.6385C70.9679 86.6385 71.4319 87.1636 71.4349 87.8809H68.999ZM74.4115 90.6343H75.3394L76.2918 87.249H76.362L77.3144 90.6343H78.2454L79.6221 85.9456H78.6789L77.7662 89.3736H77.7204L76.8046 85.9456H75.8614L74.9396 89.3888H74.8938L73.975 85.9456H73.0317L74.4115 90.6343ZM82.886 90.6343H83.7987V87.771C83.7987 87.1574 84.2718 86.7148 84.919 86.7148C85.1082 86.7148 85.3219 86.7484 85.3952 86.7698V85.8968C85.3036 85.8845 85.1235 85.8754 85.0075 85.8754C84.458 85.8754 83.9879 86.1867 83.817 86.6904H83.7682V85.9456H82.886V90.6343ZM88.0993 90.7289C89.1219 90.7289 89.8453 90.2252 90.0529 89.4621L89.189 89.3064C89.0242 89.749 88.6274 89.9749 88.1084 89.9749C87.327 89.9749 86.802 89.4682 86.7775 88.5647H90.1109V88.2411C90.1109 86.5469 89.0975 85.8845 88.0352 85.8845C86.7287 85.8845 85.8679 86.8797 85.8679 88.3205C85.8679 89.7765 86.7165 90.7289 88.0993 90.7289ZM86.7806 87.8809C86.8172 87.2154 87.2995 86.6385 88.0413 86.6385C88.7495 86.6385 89.2134 87.1636 89.2165 87.8809H86.7806ZM94.6984 87.0903C94.5092 86.3607 93.9383 85.8845 92.9249 85.8845C91.8657 85.8845 91.1148 86.4432 91.1148 87.2734C91.1148 87.9389 91.5177 88.3815 92.3968 88.5769L93.1905 88.7509C93.6423 88.8516 93.8529 89.0531 93.8529 89.3461C93.8529 89.7094 93.4652 89.9932 92.8669 89.9932C92.3205 89.9932 91.9695 89.7582 91.8596 89.2973L90.9774 89.4316C91.13 90.2619 91.8199 90.7289 92.873 90.7289C94.0055 90.7289 94.79 90.1276 94.79 89.279C94.79 88.6166 94.3688 88.2075 93.5079 88.0091L92.7631 87.8382C92.2472 87.7161 92.0244 87.5421 92.0275 87.2246C92.0244 86.8644 92.4151 86.608 92.9341 86.608C93.5018 86.608 93.7644 86.9224 93.8712 87.2368L94.6984 87.0903ZM98.825 88.6898C98.8281 89.4865 98.2359 89.865 97.7231 89.865C97.1583 89.865 96.7676 89.456 96.7676 88.818V85.9456H95.8549V88.9279C95.8549 90.0909 96.4929 90.6953 97.3934 90.6953C98.0985 90.6953 98.5778 90.3229 98.7945 89.8223H98.8433V90.6343H99.7408V85.9456H98.825V88.6898ZM101.941 84.3827H101.029V90.6343H101.941V84.3827ZM105.419 85.9456H104.458V84.8223H103.545V85.9456H102.858V86.6782H103.545V89.4468C103.542 90.2985 104.192 90.7106 104.912 90.6953C105.202 90.6923 105.398 90.6373 105.505 90.5976L105.34 89.8437C105.279 89.8559 105.166 89.8834 105.019 89.8834C104.723 89.8834 104.458 89.7857 104.458 89.2576V86.6782H105.419V85.9456ZM109.928 87.0903C109.739 86.3607 109.168 85.8845 108.155 85.8845C107.095 85.8845 106.344 86.4432 106.344 87.2734C106.344 87.9389 106.747 88.3815 107.627 88.5769L108.42 88.7509C108.872 88.8516 109.083 89.0531 109.083 89.3461C109.083 89.7094 108.695 89.9932 108.097 89.9932C107.55 89.9932 107.199 89.7582 107.089 89.2973L106.207 89.4316C106.36 90.2619 107.05 90.7289 108.103 90.7289C109.235 90.7289 110.02 90.1276 110.02 89.279C110.02 88.6166 109.598 88.2075 108.738 88.0091L107.993 87.8382C107.477 87.7161 107.254 87.5421 107.257 87.2246C107.254 86.8644 107.645 86.608 108.164 86.608C108.732 86.608 108.994 86.9224 109.101 87.2368L109.928 87.0903ZM114.785 90.7381C115.561 90.7381 115.997 90.3443 116.171 89.9932H116.208V90.6343H117.099V87.5207C117.099 86.1562 116.025 85.8845 115.28 85.8845C114.431 85.8845 113.65 86.2264 113.345 87.0811L114.202 87.2765C114.337 86.9438 114.679 86.6233 115.292 86.6233C115.881 86.6233 116.183 86.9316 116.183 87.4627V87.4841C116.183 87.8168 115.842 87.8107 114.999 87.9084C114.111 88.0122 113.201 88.2441 113.201 89.3095C113.201 90.2313 113.894 90.7381 114.785 90.7381ZM114.984 90.0055C114.468 90.0055 114.096 89.7735 114.096 89.3217C114.096 88.8333 114.529 88.6593 115.057 88.5891C115.353 88.5494 116.055 88.47 116.186 88.3388V88.9432C116.186 89.4987 115.744 90.0055 114.984 90.0055ZM118.376 90.6343H119.289V87.771C119.289 87.1574 119.762 86.7148 120.409 86.7148C120.599 86.7148 120.812 86.7484 120.885 86.7698V85.8968C120.794 85.8845 120.614 85.8754 120.498 85.8754C119.948 85.8754 119.478 86.1867 119.307 86.6904H119.258V85.9456H118.376V90.6343ZM123.59 90.7289C124.612 90.7289 125.336 90.2252 125.543 89.4621L124.679 89.3064C124.514 89.749 124.118 89.9749 123.599 89.9749C122.817 89.9749 122.292 89.4682 122.268 88.5647H125.601V88.2411C125.601 86.5469 124.588 85.8845 123.525 85.8845C122.219 85.8845 121.358 86.8797 121.358 88.3205C121.358 89.7765 122.207 90.7289 123.59 90.7289ZM122.271 87.8809C122.308 87.2154 122.79 86.6385 123.532 86.6385C124.24 86.6385 124.704 87.1636 124.707 87.8809H122.271ZM129.012 90.6343H129.924V85.9456H129.012V90.6343ZM129.472 85.2221C129.787 85.2221 130.049 84.9779 130.049 84.6788C130.049 84.3797 129.787 84.1324 129.472 84.1324C129.155 84.1324 128.896 84.3797 128.896 84.6788C128.896 84.9779 129.155 85.2221 129.472 85.2221ZM132.126 87.8504C132.126 87.1025 132.584 86.6752 133.219 86.6752C133.839 86.6752 134.214 87.0811 134.214 87.7618V90.6343H135.127V87.652C135.127 86.492 134.489 85.8845 133.53 85.8845C132.825 85.8845 132.364 86.2112 132.148 86.7087H132.09V85.9456H131.214V90.6343H132.126V87.8504ZM137.563 84.3827H136.559L136.638 88.8363H137.484L137.563 84.3827ZM137.059 90.6923C137.392 90.6923 137.67 90.4206 137.67 90.0818C137.67 89.749 137.392 89.4743 137.059 89.4743C136.724 89.4743 136.449 89.749 136.449 90.0818C136.449 90.4206 136.724 90.6923 137.059 90.6923Z" fill="#F0F0EC"/>
<path d="M197.103 90.7472L199.951 87.8992L197.103 85.0512L196.554 85.5976L198.462 87.5024H193.669V88.296H198.462L196.554 90.2039L197.103 90.7472Z" fill="#FCFCF7"/>
<path d="M61.8491 103.37H62.498V101.277H63.6701C63.7172 101.277 63.7617 101.277 63.8062 101.274L64.9365 103.37H65.69L64.4786 101.157C65.1615 100.924 65.4807 100.366 65.4807 99.6548C65.4807 98.7076 64.9156 98.0116 63.6597 98.0116H61.8491V103.37ZM62.498 100.691V98.5872H63.6387C64.5074 98.5872 64.8423 99.0111 64.8423 99.6548C64.8423 100.298 64.5074 100.691 63.6492 100.691H62.498ZM68.3657 103.454C69.182 103.454 69.7785 103.046 69.9669 102.439L69.3704 102.271C69.2134 102.69 68.8497 102.899 68.3657 102.899C67.6409 102.899 67.1412 102.431 67.1124 101.57H70.0297V101.308C70.0297 99.8117 69.1401 99.2989 68.3029 99.2989C67.2144 99.2989 66.4923 100.157 66.4923 101.392C66.4923 102.627 67.2039 103.454 68.3657 103.454ZM67.1124 101.036C67.1542 100.411 67.5964 99.8536 68.3029 99.8536C68.9727 99.8536 69.4018 100.356 69.4018 101.036H67.1124ZM72.3973 103.464C73.0985 103.464 73.4648 103.088 73.5904 102.826H73.6218V103.37H74.2392V100.722C74.2392 99.4454 73.2659 99.2989 72.7531 99.2989C72.1461 99.2989 71.4553 99.5082 71.1414 100.241L71.7274 100.45C71.8635 100.157 72.1853 99.8431 72.774 99.8431C73.3418 99.8431 73.6218 100.144 73.6218 100.659V100.68C73.6218 100.979 73.3182 100.953 72.5856 101.047C71.8399 101.144 71.0262 101.308 71.0262 102.229C71.0262 103.014 71.6333 103.464 72.3973 103.464ZM72.4914 102.91C71.9996 102.91 71.6437 102.69 71.6437 102.261C71.6437 101.79 72.0728 101.643 72.5542 101.58C72.8159 101.549 73.5171 101.476 73.6218 101.35V101.915C73.6218 102.418 73.2241 102.91 72.4914 102.91ZM77.1294 103.454C77.9039 103.454 78.1655 102.972 78.3016 102.753H78.3748V103.37H78.9714V98.0116H78.3539V99.9897H78.3016C78.1655 99.7803 77.9248 99.2989 77.1399 99.2989C76.1247 99.2989 75.4235 100.105 75.4235 101.371C75.4235 102.648 76.1247 103.454 77.1294 103.454ZM77.2131 102.899C76.4387 102.899 76.041 102.219 76.041 101.361C76.041 100.513 76.4282 99.8536 77.2131 99.8536C77.9667 99.8536 78.3644 100.461 78.3644 101.361C78.3644 102.271 77.9562 102.899 77.2131 102.899ZM84.4993 99.3512H83.6411V98.3884H83.0236V99.3512H82.4166V99.8745H83.0236V102.386C83.0236 103.088 83.5887 103.422 84.112 103.422C84.3423 103.422 84.4888 103.381 84.5725 103.349L84.4469 102.794C84.3946 102.805 84.3109 102.826 84.1748 102.826C83.9027 102.826 83.6411 102.742 83.6411 102.219V99.8745H84.4993V99.3512ZM86.3775 100.953C86.3775 100.251 86.8249 99.8536 87.4346 99.8536C88.0154 99.8536 88.366 100.22 88.366 100.858V103.37H88.9835V100.816C88.9835 99.783 88.434 99.2989 87.6125 99.2989C86.9793 99.2989 86.6182 99.5632 86.4298 99.9792H86.3775V98.0116H85.76V103.37H86.3775V100.953ZM92.0438 103.454C92.8601 103.454 93.4566 103.046 93.645 102.439L93.0485 102.271C92.8915 102.69 92.5278 102.899 92.0438 102.899C91.319 102.899 90.8193 102.431 90.7905 101.57H93.7078V101.308C93.7078 99.8117 92.8182 99.2989 91.981 99.2989C90.8925 99.2989 90.1704 100.157 90.1704 101.392C90.1704 102.627 90.882 103.454 92.0438 103.454ZM90.7905 101.036C90.8323 100.411 91.2745 99.8536 91.981 99.8536C92.6508 99.8536 93.0799 100.356 93.0799 101.036H90.7905ZM97.2105 103.37H97.828V100.827C97.828 100.283 98.2571 99.885 98.8432 99.885C99.008 99.885 99.1781 99.9164 99.22 99.9269V99.2989C99.1493 99.2937 98.9871 99.2885 98.8955 99.2885C98.4141 99.2885 97.9955 99.5606 97.849 99.9583H97.8071V99.3512H97.2105V103.37ZM101.76 103.454C102.577 103.454 103.173 103.046 103.361 102.439L102.765 102.271C102.608 102.69 102.244 102.899 101.76 102.899C101.035 102.899 100.536 102.431 100.507 101.57H103.424V101.308C103.424 99.8117 102.535 99.2989 101.697 99.2989C100.609 99.2989 99.8868 100.157 99.8868 101.392C99.8868 102.627 100.598 103.454 101.76 103.454ZM100.507 101.036C100.549 100.411 100.991 99.8536 101.697 99.8536C102.367 99.8536 102.796 100.356 102.796 101.036H100.507ZM104.609 104.877H105.227V102.753H105.279C105.415 102.972 105.677 103.454 106.451 103.454C107.456 103.454 108.157 102.648 108.157 101.371C108.157 100.105 107.456 99.2989 106.441 99.2989C105.656 99.2989 105.415 99.7803 105.279 99.9897H105.206V99.3512H104.609V104.877ZM105.216 101.361C105.216 100.461 105.614 99.8536 106.367 99.8536C107.152 99.8536 107.54 100.513 107.54 101.361C107.54 102.219 107.142 102.899 106.367 102.899C105.624 102.899 105.216 102.271 105.216 101.361ZM110.977 103.454C112.066 103.454 112.798 102.627 112.798 101.382C112.798 100.126 112.066 99.2989 110.977 99.2989C109.889 99.2989 109.156 100.126 109.156 101.382C109.156 102.627 109.889 103.454 110.977 103.454ZM110.977 102.899C110.15 102.899 109.774 102.187 109.774 101.382C109.774 100.576 110.15 99.8536 110.977 99.8536C111.804 99.8536 112.181 100.576 112.181 101.382C112.181 102.187 111.804 102.899 110.977 102.899ZM113.986 103.37H114.604V100.827C114.604 100.283 115.033 99.885 115.619 99.885C115.784 99.885 115.954 99.9164 115.996 99.9269V99.2989C115.925 99.2937 115.763 99.2885 115.671 99.2885C115.19 99.2885 114.771 99.5606 114.625 99.9583H114.583V99.3512H113.986V103.37ZM118.973 99.3512H118.115V98.3884H117.497V99.3512H116.89V99.8745H117.497V102.386C117.497 103.088 118.063 103.422 118.586 103.422C118.816 103.422 118.963 103.381 119.046 103.349L118.921 102.794C118.868 102.805 118.785 102.826 118.649 102.826C118.377 102.826 118.115 102.742 118.115 102.219V99.8745H118.973V99.3512ZM123.083 100.953C123.083 100.251 123.517 99.8536 124.108 99.8536C124.681 99.8536 125.029 100.228 125.029 100.858V103.37H125.647V100.816C125.647 99.7908 125.1 99.2989 124.286 99.2989C123.679 99.2989 123.303 99.571 123.114 99.9792H123.062V99.3512H122.465V103.37H123.083V100.953ZM128.654 103.454C129.742 103.454 130.475 102.627 130.475 101.382C130.475 100.126 129.742 99.2989 128.654 99.2989C127.565 99.2989 126.833 100.126 126.833 101.382C126.833 102.627 127.565 103.454 128.654 103.454ZM128.654 102.899C127.827 102.899 127.45 102.187 127.45 101.382C127.45 100.576 127.827 99.8536 128.654 99.8536C129.48 99.8536 129.857 100.576 129.857 101.382C129.857 102.187 129.48 102.899 128.654 102.899ZM132.437 103.37H133.044L133.923 100.283H133.986L134.865 103.37H135.472L136.696 99.3512H136.047L135.179 102.418H135.137L134.289 99.3512H133.63L132.772 102.428H132.73L131.861 99.3512H131.212L132.437 103.37ZM141.259 103.464C141.96 103.464 142.326 103.088 142.452 102.826H142.483V103.37H143.101V100.722C143.101 99.4454 142.127 99.2989 141.614 99.2989C141.007 99.2989 140.317 99.5082 140.003 100.241L140.589 100.45C140.725 100.157 141.047 99.8431 141.635 99.8431C142.203 99.8431 142.483 100.144 142.483 100.659V100.68C142.483 100.979 142.18 100.953 141.447 101.047C140.701 101.144 139.888 101.308 139.888 102.229C139.888 103.014 140.495 103.464 141.259 103.464ZM141.353 102.91C140.861 102.91 140.505 102.69 140.505 102.261C140.505 101.79 140.934 101.643 141.416 101.58C141.677 101.549 142.378 101.476 142.483 101.35V101.915C142.483 102.418 142.085 102.91 141.353 102.91ZM145.091 100.953C145.091 100.251 145.525 99.8536 146.116 99.8536C146.689 99.8536 147.037 100.228 147.037 100.858V103.37H147.655V100.816C147.655 99.7908 147.108 99.2989 146.294 99.2989C145.687 99.2989 145.31 99.571 145.122 99.9792H145.07V99.3512H144.473V103.37H145.091V100.953ZM150.546 103.454C151.321 103.454 151.582 102.972 151.718 102.753H151.792V103.37H152.388V98.0116H151.771V99.9897H151.718C151.582 99.7803 151.342 99.2989 150.557 99.2989C149.542 99.2989 148.84 100.105 148.84 101.371C148.84 102.648 149.542 103.454 150.546 103.454ZM150.63 102.899C149.856 102.899 149.458 102.219 149.458 101.361C149.458 100.513 149.845 99.8536 150.63 99.8536C151.384 99.8536 151.781 100.461 151.781 101.361C151.781 102.271 151.373 102.899 150.63 102.899ZM63.555 108.351H62.6549V107.943C62.6549 107.545 62.8224 107.336 63.2306 107.336C63.4085 107.336 63.5131 107.378 63.5759 107.399L63.7539 106.865C63.6597 106.823 63.4713 106.76 63.1678 106.76C62.5921 106.76 62.0375 107.106 62.0375 107.797V108.351H61.3886V108.875H62.0375V112.37H62.6549V108.875H63.555V108.351ZM64.666 112.37H65.2835V108.351H64.666V112.37ZM64.98 107.681C65.2207 107.681 65.4195 107.493 65.4195 107.263C65.4195 107.033 65.2207 106.844 64.98 106.844C64.7393 106.844 64.5404 107.033 64.5404 107.263C64.5404 107.493 64.7393 107.681 64.98 107.681ZM67.2775 109.953C67.2775 109.251 67.7118 108.854 68.3032 108.854C68.8762 108.854 69.2242 109.228 69.2242 109.858V112.37H69.8416V109.816C69.8416 108.791 69.2948 108.299 68.4811 108.299C67.8741 108.299 67.4973 108.571 67.3089 108.979H67.2566V108.351H66.66V112.37H67.2775V109.953ZM72.7331 112.454C73.5076 112.454 73.7692 111.972 73.9053 111.753H73.9786V112.37H74.5751V107.012H73.9576V108.99H73.9053C73.7692 108.78 73.5285 108.299 72.7436 108.299C71.7284 108.299 71.0272 109.105 71.0272 110.371C71.0272 111.648 71.7284 112.454 72.7331 112.454ZM72.8168 111.899C72.0424 111.899 71.6447 111.219 71.6447 110.361C71.6447 109.513 72.0319 108.854 72.8168 108.854C73.5704 108.854 73.9681 109.461 73.9681 110.361C73.9681 111.271 73.5599 111.899 72.8168 111.899ZM79.9878 112.454C81.0763 112.454 81.8089 111.627 81.8089 110.382C81.8089 109.126 81.0763 108.299 79.9878 108.299C78.8994 108.299 78.1668 109.126 78.1668 110.382C78.1668 111.627 78.8994 112.454 79.9878 112.454ZM79.9878 111.899C79.161 111.899 78.7843 111.187 78.7843 110.382C78.7843 109.576 79.161 108.854 79.9878 108.854C80.8146 108.854 81.1914 109.576 81.1914 110.382C81.1914 111.187 80.8146 111.899 79.9878 111.899ZM85.5298 110.727C85.5298 111.481 84.9542 111.826 84.4937 111.826C83.9809 111.826 83.6145 111.449 83.6145 110.863V108.351H82.9971V110.905C82.9971 111.931 83.5413 112.422 84.2948 112.422C84.9018 112.422 85.2995 112.098 85.4879 111.69H85.5298V112.37H86.1473V108.351H85.5298V110.727ZM89.2716 108.351H88.4134V107.388H87.7959V108.351H87.1889V108.875H87.7959V111.386C87.7959 112.088 88.3611 112.422 88.8844 112.422C89.1146 112.422 89.2612 112.381 89.3449 112.349L89.2193 111.794C89.167 111.805 89.0832 111.826 88.9472 111.826C88.6751 111.826 88.4134 111.742 88.4134 111.219V108.875H89.2716V108.351ZM93.9465 112.464C94.6477 112.464 95.014 112.088 95.1396 111.826H95.171V112.37H95.7885V109.722C95.7885 108.445 94.8152 108.299 94.3024 108.299C93.6953 108.299 93.0046 108.508 92.6906 109.241L93.2767 109.45C93.4128 109.157 93.7346 108.843 94.3233 108.843C94.8911 108.843 95.171 109.144 95.171 109.659V109.68C95.171 109.979 94.8675 109.953 94.1349 110.047C93.3892 110.144 92.5755 110.308 92.5755 111.229C92.5755 112.014 93.1825 112.464 93.9465 112.464ZM94.0407 111.91C93.5488 111.91 93.193 111.69 93.193 111.261C93.193 110.79 93.6221 110.643 94.1035 110.58C94.3652 110.549 95.0664 110.476 95.171 110.35V110.915C95.171 111.418 94.7733 111.91 94.0407 111.91ZM97.2449 112.37H97.8414V111.753H97.9147C98.0507 111.972 98.3124 112.454 99.0868 112.454C100.092 112.454 100.793 111.648 100.793 110.371C100.793 109.105 100.092 108.299 99.0764 108.299C98.2914 108.299 98.0507 108.78 97.9147 108.99H97.8623V107.012H97.2449V112.37ZM97.8519 110.361C97.8519 109.461 98.2496 108.854 99.0031 108.854C99.7881 108.854 100.175 109.513 100.175 110.361C100.175 111.219 99.7776 111.899 99.0031 111.899C98.26 111.899 97.8519 111.271 97.8519 110.361ZM103.616 112.454C104.704 112.454 105.437 111.627 105.437 110.382C105.437 109.126 104.704 108.299 103.616 108.299C102.527 108.299 101.795 109.126 101.795 110.382C101.795 111.627 102.527 112.454 103.616 112.454ZM103.616 111.899C102.789 111.899 102.412 111.187 102.412 110.382C102.412 109.576 102.789 108.854 103.616 108.854C104.442 108.854 104.819 109.576 104.819 110.382C104.819 111.187 104.442 111.899 103.616 111.899ZM109.158 110.727C109.158 111.481 108.582 111.826 108.121 111.826C107.609 111.826 107.242 111.449 107.242 110.863V108.351H106.625V110.905C106.625 111.931 107.169 112.422 107.923 112.422C108.53 112.422 108.927 112.098 109.116 111.69H109.158V112.37H109.775V108.351H109.158V110.727ZM112.899 108.351H112.041V107.388H111.424V108.351H110.817V108.875H111.424V111.386C111.424 112.088 111.989 112.422 112.512 112.422C112.742 112.422 112.889 112.381 112.973 112.349L112.847 111.794C112.795 111.805 112.711 111.826 112.575 111.826C112.303 111.826 112.041 111.742 112.041 111.219V108.875H112.899V108.351ZM119.238 109.251C119.045 108.681 118.61 108.299 117.815 108.299C116.967 108.299 116.339 108.78 116.339 109.461C116.339 110.015 116.669 110.387 117.407 110.56L118.077 110.717C118.482 110.811 118.673 111.004 118.673 111.282C118.673 111.627 118.307 111.91 117.731 111.91C117.226 111.91 116.91 111.692 116.8 111.261L116.214 111.407C116.358 112.09 116.92 112.454 117.742 112.454C118.676 112.454 119.312 111.944 119.312 111.25C119.312 110.69 118.961 110.337 118.244 110.162L117.648 110.015C117.171 109.898 116.957 109.738 116.957 109.429C116.957 109.084 117.323 108.833 117.815 108.833C118.354 108.833 118.576 109.131 118.684 109.408L119.238 109.251ZM122.234 108.351H121.376V107.388H120.759V108.351H120.152V108.875H120.759V111.386C120.759 112.088 121.324 112.422 121.847 112.422C122.077 112.422 122.224 112.381 122.308 112.349L122.182 111.794C122.13 111.805 122.046 111.826 121.91 111.826C121.638 111.826 121.376 111.742 121.376 111.219V108.875H122.234V108.351ZM125.942 110.727C125.942 111.481 125.366 111.826 124.906 111.826C124.393 111.826 124.026 111.449 124.026 110.863V108.351H123.409V110.905C123.409 111.931 123.953 112.422 124.707 112.422C125.314 112.422 125.711 112.098 125.9 111.69H125.942V112.37H126.559V108.351H125.942V110.727ZM129.725 108.351H128.825V107.943C128.825 107.545 128.993 107.336 129.401 107.336C129.579 107.336 129.683 107.378 129.746 107.399L129.924 106.865C129.83 106.823 129.642 106.76 129.338 106.76C128.762 106.76 128.208 107.106 128.208 107.797V108.351H127.559V108.875H128.208V112.37H128.825V108.875H129.725V108.351ZM132.626 108.351H131.726V107.943C131.726 107.545 131.893 107.336 132.302 107.336C132.479 107.336 132.584 107.378 132.647 107.399L132.825 106.865C132.731 106.823 132.542 106.76 132.239 106.76C131.663 106.76 131.108 107.106 131.108 107.797V108.351H130.46V108.875H131.108V112.37H131.726V108.875H132.626V108.351ZM133.77 112.412C134.029 112.412 134.241 112.2 134.241 111.941C134.241 111.682 134.029 111.47 133.77 111.47C133.511 111.47 133.299 111.682 133.299 111.941C133.299 112.2 133.511 112.412 133.77 112.412Z" fill="#BEC2C1"/>
<circle cx="116.778" cy="435.419" r="2.64214" fill="#12D3B9"/>
<defs>
<pattern id="pattern0" patternContentUnits="objectBoundingBox" width="1" height="1">
<use xlink:href="#image0_406_533" transform="scale(0.0153846)"/>
</pattern>
<pattern id="pattern1" patternContentUnits="objectBoundingBox" width="1" height="1">
<use xlink:href="#image1_406_533" transform="scale(0.0153846)"/>
</pattern>
<pattern id="pattern2" patternContentUnits="objectBoundingBox" width="1" height="1">
<use xlink:href="#image2_406_533" transform="scale(0.0153846)"/>
</pattern>
<pattern id="pattern3" patternContentUnits="objectBoundingBox" width="1" height="1">
<use xlink:href="#image3_406_533" transform="scale(0.0153846)"/>
</pattern>
<pattern id="pattern4" patternContentUnits="objectBoundingBox" width="1" height="1">
<use xlink:href="#image4_406_533" transform="scale(0.0153846)"/>
</pattern>
<pattern id="pattern5" patternContentUnits="objectBoundingBox" width="1" height="1">
<use xlink:href="#image5_406_533" transform="scale(0.0153846)"/>
</pattern>
<clipPath id="clip0_406_533">
<path d="M9.62451 320.163C9.62451 316.217 9.62451 314.244 10.3924 312.737C11.0679 311.411 12.1458 310.333 13.4715 309.658C14.9787 308.89 16.9517 308.89 20.8977 308.89H62.2067C66.1527 308.89 68.1257 308.89 69.6328 309.658C70.9586 310.333 72.0364 311.411 72.7119 312.737C73.4799 314.244 73.4799 316.217 73.4799 320.163V361.472C73.4799 365.418 73.4799 367.391 72.7119 368.898C72.0364 370.224 70.9586 371.302 69.6328 371.977C68.1257 372.745 66.1527 372.745 62.2067 372.745H20.8977C16.9517 372.745 14.9787 372.745 13.4715 371.977C12.1458 371.302 11.0679 370.224 10.3924 368.898C9.62451 367.391 9.62451 365.418 9.62451 361.472V320.163Z" fill="white"/>
</clipPath>
<clipPath id="clip1_406_533">
<path d="M78.3916 320.163C78.3916 316.217 78.3916 314.244 79.1595 312.737C79.835 311.411 80.9129 310.333 82.2386 309.658C83.7458 308.89 85.7188 308.89 89.6647 308.89H130.974C134.92 308.89 136.893 308.89 138.4 309.658C139.726 310.333 140.804 311.411 141.479 312.737C142.247 314.244 142.247 316.217 142.247 320.163V361.472C142.247 365.418 142.247 367.391 141.479 368.898C140.804 370.224 139.726 371.302 138.4 371.977C136.893 372.745 134.92 372.745 130.974 372.745H89.6647C85.7188 372.745 83.7458 372.745 82.2386 371.977C80.9129 371.302 79.835 370.224 79.1595 368.898C78.3916 367.391 78.3916 365.418 78.3916 361.472V320.163Z" fill="white"/>
</clipPath>
<clipPath id="clip2_406_533">
<path d="M147.159 320.163C147.159 316.217 147.159 314.244 147.927 312.737C148.603 311.411 149.68 310.333 151.006 309.658C152.513 308.89 154.486 308.89 158.432 308.89H199.741C203.687 308.89 205.66 308.89 207.168 309.658C208.493 310.333 209.571 311.411 210.247 312.737C211.015 314.244 211.015 316.217 211.015 320.163V361.472C211.015 365.418 211.015 367.391 210.247 368.898C209.571 370.224 208.493 371.302 207.168 371.977C205.66 372.745 203.687 372.745 199.741 372.745H158.432C154.486 372.745 152.513 372.745 151.006 371.977C149.68 371.302 148.603 370.224 147.927 368.898C147.159 367.391 147.159 365.418 147.159 361.472V320.163Z" fill="white"/>
</clipPath>
<clipPath id="clip3_406_533">
<path d="M9.62451 388.93C9.62451 384.984 9.62451 383.011 10.3924 381.504C11.0679 380.178 12.1458 379.1 13.4715 378.425C14.9787 377.657 16.9517 377.657 20.8977 377.657H62.2067C66.1527 377.657 68.1257 377.657 69.6328 378.425C70.9586 379.1 72.0364 380.178 72.7119 381.504C73.4799 383.011 73.4799 384.984 73.4799 388.93V430.239C73.4799 434.185 73.4799 436.158 72.7119 437.665C72.0364 438.991 70.9586 440.069 69.6328 440.744C68.1257 441.512 66.1527 441.512 62.2067 441.512H20.8977C16.9517 441.512 14.9787 441.512 13.4715 440.744C12.1458 440.069 11.0679 438.991 10.3924 437.665C9.62451 436.158 9.62451 434.185 9.62451 430.239V388.93Z" fill="white"/>
</clipPath>
<clipPath id="clip4_406_533">
<path d="M78.3916 388.93C78.3916 384.984 78.3916 383.011 79.1595 381.504C79.835 380.178 80.9129 379.1 82.2386 378.425C83.7458 377.657 85.7188 377.657 89.6647 377.657H130.974C134.92 377.657 136.893 377.657 138.4 378.425C139.726 379.1 140.804 380.178 141.479 381.504C142.247 383.011 142.247 384.984 142.247 388.93V430.239C142.247 434.185 142.247 436.158 141.479 437.665C140.804 438.991 139.726 440.069 138.4 440.744C136.893 441.512 134.92 441.512 130.974 441.512H89.6647C85.7188 441.512 83.7458 441.512 82.2386 440.744C80.9129 440.069 79.835 438.991 79.1595 437.665C78.3916 436.158 78.3916 434.185 78.3916 430.239V388.93Z" fill="white"/>
</clipPath>
<clipPath id="clip5_406_533">
<path d="M147.159 388.93C147.159 384.984 147.159 383.011 147.927 381.504C148.603 380.178 149.68 379.1 151.006 378.425C152.513 377.657 154.486 377.657 158.432 377.657H199.741C203.687 377.657 205.66 377.657 207.168 378.425C208.493 379.1 209.571 380.178 210.247 381.504C211.015 383.011 211.015 384.984 211.015 388.93V430.239C211.015 434.185 211.015 436.158 210.247 437.665C209.571 438.991 208.493 440.069 207.168 440.744C205.66 441.512 203.687 441.512 199.741 441.512H158.432C154.486 441.512 152.513 441.512 151.006 440.744C149.68 440.069 148.603 438.991 147.927 437.665C147.159 436.158 147.159 434.185 147.159 430.239V388.93Z" fill="white"/>
</clipPath>
<clipPath id="clip6_406_533">
<path d="M0.230469 427.714H220.23V440.062C220.23 453.216 220.23 459.792 217.671 464.816C215.419 469.235 211.826 472.828 207.407 475.08C202.383 477.64 195.807 477.64 182.653 477.64H37.8076C24.6544 477.64 18.0778 477.64 13.0539 475.08C8.63477 472.828 5.04191 469.235 2.79026 464.816C0.230469 459.792 0.230469 453.216 0.230469 440.062V427.714Z" fill="white"/>
</clipPath>
<image id="image0_406_533" width="65" height="65" href="bg-0.webp"/>
<image id="image1_406_533" width="65" height="65" href="bg-1.webp"/>
<image id="image2_406_533" width="65" height="65" href="bg-2.webp"/>
<image id="image3_406_533" width="65" height="65" href="bg-3.webp"/>
<image id="image4_406_533" width="65" height="65" href="bg-4.webp"/>
<image id="image5_406_533" width="65" height="65" href="bg-5.webp"/>
</defs>
</svg>
