<svg width="231" height="191" fill="none" xmlns="http://www.w3.org/2000/svg"><g clip-path="url(#a)"><rect x=".5" y=".5" width="229.6" height="190" rx="7.7" fill="#111C22"/><path d="M10.3 20.6c0-2.8 2.3-5.1 5.2-5.1a5 5 0 0 1 5 5 5 5 0 0 1-5 5.2 5.1 5.1 0 0 1-5.2-5.1Z" fill="#48EAD4" fill-opacity=".2"/><path d="M17.7 21.5c-.4.8-1.1 1.3-2 1.3a2 2 0 0 1-1.8-1.3m1.9-2.2a1 1 0 0 0-1-.6 1 1 0 0 0-1 .6m4.2 0c-.1-.4-.4-.6-.6-.6-.3 0-.5.2-.7.6" stroke="#48EAD4" stroke-width=".6"/><path d="M30 19h1c-.1-1-1-1.7-2.4-1.7-1.3 0-2.3.7-2.3 1.8 0 1 .7 1.5 1.7 1.8l.8.2c.7.2 1.2.4 1.2 1s-.6 1-1.4 1c-.8 0-1.4-.3-1.5-1h-1c.1 1.2 1 1.9 2.5 1.9s2.4-.8 2.4-2c0-1.1-1-1.6-1.9-1.8l-.6-.1c-.5-.2-1.2-.4-1.2-1s.5-1 1.3-1 1.3.4 1.4 1Zm4.3 5c1 0 1.8-.5 2-1.3l-.9-.2c-.2.5-.6.7-1.1.7-.8 0-1.4-.5-1.4-1.5h3.5v-.3c0-1.8-1-2.5-2.2-2.5-1.4 0-2.3 1-2.3 2.6 0 1.5 1 2.5 2.4 2.5Zm-1.4-3c0-.7.5-1.3 1.3-1.3.7 0 1.2.6 1.2 1.3H33Zm4.6 2.9h1v-3c0-.6.4-1.1 1.1-1.1h.5V19h-.4c-.6 0-1 .3-1.2.9V19h-1v4.9Zm5.4 0c1.4 0 2.3-1 2.3-2.4 0-1.6-1-2.6-2.3-2.6-1.4 0-2.3 1-2.3 2.6 0 1.5.9 2.5 2.3 2.5Zm0-.7c-1 0-1.3-.8-1.3-1.7 0-1 .4-1.8 1.3-1.8s1.3.8 1.3 1.8c0 .9-.4 1.7-1.3 1.7Zm5.7-4.2h-1v-1.2h-1V19H46v.8h.7v2.8c0 1 .7 1.4 1.4 1.3h.6l-.1-.8H48c-.3 0-.5-.1-.5-.7v-2.6h1V19Zm3 5c1.5 0 2.4-1 2.4-2.5 0-1.6-1-2.6-2.3-2.6-1.4 0-2.3 1-2.3 2.6 0 1.5 1 2.5 2.3 2.5Zm0-.8c-.8 0-1.2-.8-1.2-1.7 0-1 .4-1.8 1.3-1.8s1.3.8 1.3 1.8c0 .9-.4 1.7-1.3 1.7ZM56 21c0-.8.5-1.2 1.2-1.2.6 0 1 .4 1 1v3h1v-3c0-1.2-.7-1.9-1.7-1.9-.7 0-1.2.4-1.4.9H56V19h-1v4.9h1v-3Zm4.5 2.9h1v-5h-1v5Zm.5-5.7c.3 0 .6-.2.6-.5s-.3-.6-.6-.6-.6.3-.6.6.3.5.6.5Zm2.8 2.8c0-.8.4-1.2 1-1.2.7 0 1.1.4 1.1 1v3h1v-3c0-1.2-.7-1.9-1.7-1.9-.7 0-1.2.4-1.4.9V19h-1v4.9h1v-3Z" fill="#48EAD4"/><path d="M89.8 20.6a5.1 5.1 0 0 1 10.2 0 5 5 0 0 1-5 5.1 5.1 5.1 0 0 1-5.2-5.1Z" fill="#414E54"/><path opacity=".8" fill-rule="evenodd" clip-rule="evenodd" d="M91.7 20.3c.7 0 1-.3 1.3-.6.3-.2.5-.4.9-.4s.6.2.8.4c.3.3.6.6 1.3.6.7 0 1-.3 1.3-.6.3-.2.4-.4.8-.4v-.6c-.6 0-1 .3-1.2.6-.3.2-.5.4-.9.4s-.6-.2-.8-.4c-.3-.3-.7-.6-1.3-.6-.7 0-1 .3-1.3.6-.3.2-.5.4-.9.4v.6Zm-.3 2c.7 0 1-.3 1.3-.5.3-.3.5-.5.9-.5s.5.2.8.5c.3.2.6.6 1.3.6.7 0 1-.4 1.3-.6.2-.3.4-.5.8-.5v-.6c-.6 0-1 .3-1.3.6-.2.3-.4.4-.8.4s-.6-.1-.9-.4c-.2-.3-.6-.6-1.2-.6-.7 0-1 .3-1.3.6-.3.3-.5.4-.9.4v.7Z" fill="#606B6F"/><path d="M105.9 17.4v6.5h1v-4.7l2 4.7h.7l2-4.7v4.7h1v-6.5h-1.3l-2 5h-.1l-2.1-5h-1.2ZM116 24c1.1 0 1.9-.5 2-1.3l-.8-.2c-.2.5-.6.7-1.2.7-.8 0-1.3-.5-1.3-1.5h3.4v-.3c0-1.8-1-2.5-2.1-2.5-1.4 0-2.3 1-2.3 2.6 0 1.5.9 2.5 2.3 2.5Zm-1.3-3c0-.7.5-1.3 1.3-1.3.7 0 1.2.6 1.2 1.3h-2.5Zm5.5-3.6h-1v6.5h1v-6.5ZM123 24c.8 0 1.2-.4 1.4-.8v.7h1v-3.3c0-1.4-1.1-1.7-2-1.7-.8 0-1.6.4-2 1.3l1 .2c.1-.4.5-.7 1.1-.7.6 0 1 .3 1 .9 0 .3-.4.3-1.3.4-1 .1-1.9.4-1.9 1.5 0 1 .7 1.5 1.7 1.5Zm.2-.8c-.6 0-1-.2-1-.7 0-.5.5-.7 1-.8.4 0 1 0 1.2-.2v.6c0 .6-.4 1.1-1.2 1.1ZM129 19h-1v-1.2h-1V19h-.7v.8h.7v2.8c0 1 .7 1.4 1.5 1.3h.6l-.2-.8h-.3c-.3 0-.6-.1-.6-.7v-2.6h1V19Zm3.1 5c1.4 0 2.3-1 2.3-2.5 0-1.6-.9-2.6-2.3-2.6s-2.3 1-2.3 2.6c0 1.5 1 2.5 2.3 2.5Zm0-.8c-.9 0-1.3-.8-1.3-1.7 0-1 .4-1.8 1.3-1.8 1 0 1.3.8 1.3 1.8 0 .9-.4 1.7-1.3 1.7Zm4.4-2.2c0-.8.5-1.2 1.1-1.2.7 0 1 .4 1 1v3h1v-3c0-1.2-.7-1.9-1.7-1.9-.7 0-1.2.4-1.4.9V19h-1v4.9h1v-3Zm4.4 2.9h1v-5h-1v5Zm.5-5.7c.3 0 .6-.2.6-.5s-.3-.6-.6-.6-.6.3-.6.6.3.5.6.5Zm2.8 2.8c0-.8.5-1.2 1.1-1.2.7 0 1 .4 1 1v3h1v-3c0-1.2-.6-1.9-1.6-1.9-.8 0-1.3.4-1.5.9V19h-1v4.9h1v-3Z" fill="#606B6F"/><path d="M170 20.6a5 5 0 0 1 5-5.1c2.9 0 5.2 2.3 5.2 5a5.1 5.1 0 1 1-10.2 0Z" fill="#414E54"/><path d="m172.7 21 2.5-4c.1-.3.4-.2.4 0l-.5 2.7c0 .1 0 .2.2.2h2l.2.3-2.6 4c0 .2-.3.1-.3 0l.4-2.8s0-.2-.2-.2h-2a.2.2 0 0 1-.1-.3Zm13.9 2.9.6-1.7h2.5l.6 1.7h1l-2.3-6.5h-1l-2.4 6.5h1Zm.9-2.6 1-2.8 1 2.8h-2ZM194 24c1 0 1.3-.6 1.5-.9v.8h1v-6.5h-1v2.4c-.2-.3-.5-.9-1.4-.9-1.2 0-2.1 1-2.1 2.5 0 1.6.9 2.6 2 2.6Zm.3-.8c-.9 0-1.3-.8-1.3-1.8s.4-1.7 1.3-1.7c.8 0 1.2.7 1.2 1.7s-.4 1.8-1.2 1.8Zm3.6.7h1v-3c0-.6.4-1.1 1.1-1.1h.5V19h-.4c-.6 0-1 .3-1.2.9V19h-1v4.9Zm5.4 0c1 0 1.8-.4 2-1.2l-.8-.2c-.2.5-.6.7-1.2.7-.8 0-1.3-.5-1.4-1.5h3.5v-.3c0-1.8-1-2.5-2.1-2.5-1.4 0-2.3 1-2.3 2.6 0 1.5.9 2.5 2.3 2.5ZM202 21c0-.7.6-1.3 1.4-1.3.7 0 1.2.6 1.2 1.3H202Zm5.6 0c0-.8.5-1.2 1.1-1.2.7 0 1 .4 1 1v3h1v-3c0-1.2-.6-1.9-1.6-1.9-.8 0-1.3.4-1.5.9V19h-1v4.9h1v-3Zm5.9 3c.8 0 1.2-.4 1.4-.8v.7h1v-3.3c0-1.4-1.1-1.7-1.9-1.7-.9 0-1.7.4-2 1.3l.9.2c.1-.4.5-.7 1.1-.7.6 0 1 .3 1 .9 0 .3-.4.3-1.3.4-1 .1-1.9.4-1.9 1.5 0 1 .8 1.5 1.7 1.5Zm.2-.8c-.5 0-1-.2-1-.7 0-.5.5-.7 1-.8.4 0 1.1 0 1.2-.2v.6c0 .6-.4 1.1-1.2 1.1Zm4.5-5.8h-1v6.5h1v-6.5Zm1.3 6.5h1v-5h-1v5Zm.5-5.7c.3 0 .6-.2.6-.5s-.3-.6-.6-.6-.6.3-.6.6.3.5.6.5Zm2.8 2.8c0-.8.4-1.2 1.1-1.2.7 0 1 .4 1 1v3h1v-3c0-1.2-.7-1.9-1.7-1.9-.7 0-1.2.4-1.4.9V19h-1v4.9h1v-3Zm6.5 3c1.1 0 1.9-.5 2-1.3l-.8-.2c-.2.5-.6.7-1.1.7-.9 0-1.4-.5-1.4-1.5h3.4v-.3c0-1.8-1-2.5-2.1-2.5-1.4 0-2.3 1-2.3 2.6 0 1.5.9 2.5 2.3 2.5Zm-1.3-3c0-.7.5-1.3 1.3-1.3.7 0 1.2.6 1.2 1.3H228Z" fill="#606B6F"/><g clip-path="url(#b)"><path fill="#E9F7F5" fill-opacity=".3" d="M10.3 85.9h209.9v1.3H10.3z"/><path fill="#F2F2ED" d="M23.8 116.9h196.4v.6H23.8z"/><path d="M10.8 120.4h.8v-2.1c0-.5.3-.8.6-.8.4 0 .6.3.6.6v2.3h.8v-2.2c0-.4.2-.7.6-.7.4 0 .6.2.6.7v2.2h.9V118c0-.7-.5-1.1-1.1-1.1-.5 0-1 .2-1 .6h-.1c-.1-.4-.5-.6-1-.6-.4 0-.8.2-1 .6v-.6h-.7v3.5Zm5.7 0h.8v-3.5h-.8v3.5Zm.4-4c.3 0 .5-.2.5-.4 0-.3-.2-.5-.5-.5s-.5.2-.5.5c0 .2.3.4.5.4Zm2 2c0-.6.4-.9.8-.9.5 0 .7.3.7.8v2h.8v-2.1c0-.9-.4-1.3-1.2-1.3-.5 0-.8.2-1 .6v-.6h-.8v3.5h.8v-2Zm-8.1-63.3h.8V53c0-.4.3-.7.6-.7.4 0 .6.2.6.6V55h.8v-2.2c0-.4.2-.6.6-.6.4 0 .6.2.6.6V55h.9v-2.3c0-.8-.5-1.2-1.1-1.2-.5 0-1 .2-1 .6h-.1c-.1-.4-.5-.6-1-.6-.4 0-.8.2-1 .6v-.6h-.7V55Zm6.7 0c.6 0 .9-.2 1-.5v.5h.8v-2.3c0-1-.7-1.2-1.4-1.2s-1.3.3-1.4 1h.7c.1-.2.3-.4.7-.4.4 0 .6.2.6.5s-.2.3-.8.4c-.7 0-1.4.2-1.4 1 0 .7.5 1 1.2 1Zm.2-.5c-.3 0-.6-.2-.6-.5s.3-.4.7-.5c.2 0 .6 0 .7-.2v.5c0 .3-.3.7-.8.7Zm3.1-3H20l1 1.8-1 1.7h.8l.8-1.3.7 1.3h.9L22 53.4l1-1.8h-.8l-.7 1.3-.8-1.3Z" fill="#9FA5A6"/><path fill="#F2F2ED" d="M25.8 55.3h194.5v.6H25.8z"/></g><g clip-path="url(#c)"><path stroke="#E4F8C3" stroke-width="1.3" stroke-linecap="round" stroke-dasharray="0.06 3.2" d="M11 75h208.6"/><g clip-path="url(#d)"><mask id="e" style="mask-type:alpha" maskUnits="userSpaceOnUse" x="10" y="55" width="211" height="63"><rect x="44.9" y="113.4" width="3.8" height="3.8" rx="1.9" fill="#C4C4C4"/><rect x="51.3" y="88.4" width="3.8" height="28.8" rx="1.9" fill="#C4C4C4"/><rect x="58.3" y="99.9" width="3.8" height="17.3" rx="1.9" fill="#C4C4C4"/><rect x="78.8" y="80.7" width="3.8" height="36.5" rx="1.9" fill="#C4C4C4"/><rect x="85.9" y="82.7" width="3.8" height="34.6" rx="1.9" fill="#C4C4C4"/><rect x="92.9" y="65.4" width="3.8" height="51.8" rx="1.9" fill="#C4C4C4"/><rect x="99.9" y="76.9" width="3.8" height="40.3" rx="1.9" fill="#C4C4C4"/><rect x="113.4" y="90.3" width="3.8" height="26.9" rx="1.9" fill="#C4C4C4"/><rect x="120.4" y="85.5" width="3.8" height="31.7" rx="1.9" fill="#C4C4C4"/><rect x="126.8" y="63.5" width="3.8" height="53.8" rx="1.9" fill="#C4C4C4"/><rect x="133.9" y="66.3" width="3.8" height="50.9" rx="1.9" fill="#C4C4C4"/><rect x="140.9" y="78.8" width="3.8" height="38.4" rx="1.9" fill="#C4C4C4"/><rect x="154.3" y="69.2" width="3.8" height="48" rx="1.9" fill="#C4C4C4"/><rect x="161.4" y="69.2" width="3.8" height="48" rx="1.9" fill="#C4C4C4"/><rect x="168.4" y="74" width="3.8" height="43.2" rx="1.9" fill="#C4C4C4"/><rect x="195.9" y="67.3" width="3.8" height="49.9" rx="1.9" fill="#C4C4C4"/><rect x="203" y="55.8" width="3.8" height="61.4" rx="1.9" fill="#C4C4C4"/><rect x="209.4" y="65.4" width="3.8" height="51.8" rx="1.9" fill="#C4C4C4"/><rect x="216.4" y="55.8" width="3.8" height="61.4" rx="1.9" fill="#C4C4C4"/></mask><g mask="url(#e)"><path fill="url(#f)" d="M10.3 55.8h192V112h-192z"/></g></g></g><path d="M12 126.6h-.7l-1.2.8v.7l1.1-.7v3.9h.9v-4.7Zm27 4.7c1 0 1.6-.6 1.6-1.6 0-.9-.6-1.5-1.4-1.5-.4 0-.8.2-1 .4l.2-1.3h2v-.7h-2.7l-.3 2.4.8.1.7-.2c.5 0 1 .3 1 .9 0 .5-.4.9-1 .9a.7.7 0 0 1-.7-.7h-.9c0 .8.7 1.3 1.7 1.3Zm32.2-4.7h-.8l-1.2.8v.7l1.1-.7v3.9h.9v-4.7Zm2.9 4.8c1.1 0 1.8-1 1.8-2.5s-.7-2.3-1.8-2.3-1.8.8-1.8 2.3c0 1.6.7 2.5 1.8 2.5Zm0-.8c-.6 0-1-.5-1-1.7 0-1 .4-1.6 1-1.6s1 .5 1 1.6c0 1.2-.4 1.7-1 1.7Zm31.8-4h-.8l-1.2.8v.7l1-.7h.1v3.9h.9v-4.7Zm2.8 4.7c1 0 1.6-.6 1.6-1.6 0-.9-.6-1.5-1.4-1.5-.4 0-.7.2-1 .4l.2-1.3h2v-.7h-2.7l-.3 2.4.8.1.7-.2c.6 0 1 .3 1 .9 0 .5-.4.9-1 .9a.7.7 0 0 1-.7-.7h-.8c0 .8.7 1.3 1.6 1.3Zm30.3 0h3.1v-.7h-2l.8-.9c1-.8 1.2-1.3 1.2-1.8 0-.8-.7-1.3-1.6-1.3-1 0-1.6.5-1.6 1.4h.8c0-.5.3-.8.8-.8.4 0 .7.3.7.7 0 .4-.2.7-.6 1.2l-1.7 1.6v.6Zm5.6 0c1.2 0 1.8-.8 1.8-2.4 0-1.5-.7-2.3-1.8-2.3-1 0-1.8.8-1.8 2.3 0 1.6.7 2.5 1.8 2.5Zm0-.7c-.5 0-1-.5-1-1.7 0-1 .5-1.6 1-1.6.6 0 1 .5 1 1.6 0 1.2-.4 1.7-1 1.7Zm29.3.7h3.2v-.7h-2l.7-.9c1-.8 1.2-1.3 1.2-1.8 0-.8-.7-1.3-1.6-1.3-1 0-1.6.5-1.6 1.4h.8c0-.5.3-.8.8-.8.4 0 .8.3.8.7 0 .4-.3.7-.7 1.2l-1.6 1.6v.6Zm5.6 0c1 0 1.6-.6 1.6-1.6 0-.9-.6-1.5-1.4-1.5-.4 0-.8.2-1 .4l.2-1.3h2v-.7h-2.7l-.3 2.4.8.1.7-.2c.5 0 1 .3 1 .9 0 .5-.4.9-1 .9a.7.7 0 0 1-.7-.7h-.8c0 .8.6 1.3 1.6 1.3Zm29.2 0c1 0 1.7-.5 1.7-1.3 0-.6-.4-1-1-1.1.5-.2.8-.5.8-1 0-.8-.6-1.3-1.5-1.3-1 0-1.6.5-1.6 1.3h.8c0-.4.4-.7.8-.7s.7.3.7.7c0 .4-.3.7-.8.7h-.4v.6h.4c.6 0 1 .3 1 .7 0 .4-.4.7-1 .7-.4 0-.8-.2-.8-.6h-.8c0 .8.7 1.3 1.7 1.3Zm4.2 0c1.1 0 1.8-.8 1.8-2.4 0-1.5-.7-2.3-1.8-2.3s-1.8.8-1.8 2.3c0 1.6.7 2.5 1.8 2.5Zm0-.7c-.6 0-1-.5-1-1.7 0-1 .4-1.6 1-1.6s1 .5 1 1.6c0 1.2-.4 1.7-1 1.7ZM15.5 154a2.2 2.2 0 0 0-2.2-1.8c-1.5 0-2.5 1.1-2.5 2.9 0 1.7 1 2.8 2.5 2.8 1 0 2-.6 2.2-1.8h-.7c-.1.8-.8 1.2-1.5 1.2-1 0-1.9-.8-1.9-2.2 0-1.5.8-2.3 1.9-2.3.7 0 1.4.5 1.5 1.2h.7Zm2 1.4c0-.8.4-1.2 1-1.2s1 .4 1 1v2.7h.6v-2.7c0-1-.5-1.6-1.4-1.6-.7 0-1 .3-1.2.7v-2h-.7v5.6h.6v-2.5Zm5.3 2.6c.7 0 1.1-.4 1.2-.7v.6h.7V155c0-1.3-1-1.5-1.5-1.5-.7 0-1.4.2-1.7 1l.6.2c.1-.3.5-.6 1-.6.7 0 1 .3 1 .8 0 .4-.3.4-1.1.5-.8 0-1.6.2-1.6 1.2 0 .8.6 1.3 1.4 1.3Zm0-.6c-.4 0-.8-.2-.8-.7 0-.5.5-.6 1-.7l1-.2v.6c0 .5-.3 1-1.1 1Zm4-2c0-.8.4-1.2 1-1.2.7 0 1 .4 1 1v2.7h.7v-2.7c0-1-.6-1.6-1.5-1.6-.6 0-1 .3-1.2.7v-.6H26v4.2h.7v-2.5Zm5.8 4.1c1 0 1.8-.4 1.8-1.5v-4.3h-.6v.6c-.2-.2-.5-.7-1.3-.7-1 0-1.8.9-1.8 2.2 0 1.3.8 2 1.8 2 .8 0 1-.5 1.2-.7v.8c0 .7-.4 1-1.1 1-.8 0-1-.3-1.2-.6l-.5.4c.2.4.7.8 1.7.8Zm0-2.3c-.8 0-1.3-.6-1.3-1.5 0-.8.4-1.5 1.3-1.5.7 0 1.2.6 1.2 1.5 0 1-.5 1.5-1.2 1.5Zm5 .8c.8 0 1.5-.5 1.7-1.1l-.7-.2c-.1.5-.5.7-1 .7-.8 0-1.3-.5-1.3-1.4h3v-.3c0-1.5-1-2-1.8-2-1.1 0-1.9.8-1.9 2.1s.8 2.2 2 2.2Zm-1.3-2.6c0-.6.5-1.2 1.2-1.2s1.2.5 1.2 1.2h-2.4Z" fill="#F0F0EC"/><path d="M12.9 165.3 15 169h-4.4l2.2-3.8Z" fill="#48EAD4"/><g clip-path="url(#g)"><path d="M21.1 164.6h-1l-1.6 1v1l1.6-1v5.5h1v-6.5Zm4.1 6.6c1.3 0 2.3-.8 2.3-1.9 0-.8-.5-1.4-1.3-1.5.6-.3 1-.8 1-1.5 0-1-.7-1.8-2-1.8-1.2 0-2.1.7-2.2 1.8h1c0-.6.6-1 1.2-1 .7 0 1.1.4 1.1 1s-.5 1-1.2 1h-.6v.9h.6c.9 0 1.4.4 1.4 1 0 .7-.5 1.1-1.3 1.1-.7 0-1.3-.3-1.3-.9h-1c0 1 1 1.8 2.3 1.8Zm7-1.3c0 .7.4 1.3 1.3 1.3s1.3-.6 1.3-1.3v-.4c0-.7-.4-1.3-1.3-1.3-.8 0-1.3.6-1.3 1.3v.4Zm-3.3-3.8c0 .8.5 1.4 1.3 1.4.9 0 1.4-.6 1.3-1.4v-.3c0-.7-.4-1.4-1.3-1.4-.8 0-1.3.7-1.3 1.4v.3Zm.3 5h.7l4.5-6.5h-.7l-4.5 6.5Zm3.7-1.6c0-.3.2-.7.6-.7.4 0 .6.4.6.7v.4c0 .3-.2.7-.6.7-.4 0-.6-.4-.6-.7v-.4Zm-3.3-3.7c0-.4.2-.7.6-.7.5 0 .6.3.6.7v.3c0 .4-.1.8-.6.8-.4 0-.6-.4-.6-.8v-.3Z" fill="#48EAD4"/></g><path d="m88 157.9.6-1.6H91l.5 1.6h.7l-2-5.6h-.7l-2 5.6h.6Zm.8-2.2 1-2.5.9 2.5h-1.9Zm7.3-2h-.7l-1.2 3.3-1.2-3.3h-.7l1.6 4.2h.6l1.6-4.2Zm2.7 4.3c.8 0 1.5-.5 1.7-1.1l-.7-.2c-.1.5-.5.7-1 .7-.8 0-1.3-.5-1.3-1.4h3v-.3c0-1.5-1-2-1.8-2-1.1 0-1.9.8-1.9 2.1s.8 2.2 2 2.2Zm-1.3-2.6c0-.6.5-1.2 1.2-1.2s1.2.5 1.2 1.2h-2.4Zm4.3 2.5h.6v-2.7c0-.5.4-1 1-1h.5v-.6h-.4c-.5 0-1 .3-1 .7h-.1v-.6h-.6v4.2Zm4.3 0c.7 0 1.1-.3 1.2-.6v.6h.7V155c0-1.3-1-1.5-1.5-1.5-.7 0-1.4.2-1.7 1l.6.2c.1-.3.5-.6 1.1-.6.6 0 .9.3.9.8 0 .4-.3.4-1.1.5-.8 0-1.6.2-1.6 1.2 0 .8.6 1.3 1.4 1.3Zm.1-.5c-.5 0-.9-.2-.9-.7 0-.5.5-.6 1-.7l1-.2v.6c0 .5-.3 1-1.1 1Zm5 2.1c1 0 1.8-.4 1.8-1.5v-4.3h-.7v.6c-.2-.2-.4-.7-1.3-.7-1 0-1.7.9-1.7 2.2 0 1.3.7 2 1.7 2 .9 0 1.1-.5 1.3-.7v.8c0 .7-.5 1-1.2 1s-1-.3-1.2-.6l-.5.4c.3.4.8.8 1.7.8Zm0-2.3c-.9 0-1.3-.6-1.3-1.5 0-.8.4-1.5 1.2-1.5.8 0 1.2.6 1.2 1.5 0 1-.4 1.5-1.2 1.5Zm5 .8c.8 0 1.4-.5 1.6-1.1l-.6-.2c-.2.5-.5.7-1 .7-.8 0-1.3-.5-1.4-1.4h3v-.3c0-1.5-.8-2-1.7-2-1.2 0-2 .8-2 2.1s.8 2.2 2 2.2Zm-1.4-2.6c0-.6.5-1.2 1.3-1.2.7 0 1.1.5 1.1 1.2h-2.4Z" fill="#F0F0EC"/><rect x="87.1" y="167.2" width="1.3" height="1.3" rx=".6" fill="#48EAD4"/><rect x="89.7" y="167.2" width="1.3" height="1.3" rx=".6" fill="#48EAD4"/><g clip-path="url(#h)"><path d="M96.6 164.6h-1l-1.5 1v1l1.5-1v5.5h1v-6.5Zm4.1 6.6c1.4 0 2.3-.8 2.3-1.9 0-.8-.5-1.4-1.3-1.5.7-.3 1.1-.8 1.1-1.5 0-1-.8-1.8-2-1.8s-2.2.7-2.2 1.8h1c0-.6.5-1 1.1-1 .7 0 1.1.4 1.1 1s-.5 1-1.2 1h-.5v.9h.5c1 0 1.4.4 1.4 1 0 .7-.5 1.1-1.3 1.1-.7 0-1.2-.3-1.3-.9h-1c0 1 1 1.8 2.3 1.8Zm7-1.3c0 .7.5 1.3 1.3 1.3.9 0 1.4-.6 1.4-1.3v-.4c0-.7-.5-1.3-1.4-1.3-.8 0-1.3.6-1.3 1.3v.4Zm-3.3-3.8c0 .8.5 1.4 1.4 1.4.8 0 1.3-.6 1.3-1.4v-.3c0-.7-.5-1.4-1.3-1.4-.9 0-1.4.7-1.4 1.4v.3Zm.3 5h.8l4.4-6.5h-.7l-4.5 6.5Zm3.7-1.6c0-.3.2-.7.6-.7.5 0 .6.4.6.7v.4c0 .3-.1.7-.6.7-.4 0-.5-.4-.6-.7v-.4Zm-3.2-3.7c0-.4.1-.7.6-.7.4 0 .5.3.5.7v.3c0 .4-.1.8-.5.8-.5 0-.6-.4-.6-.8v-.3Z" fill="#48EAD4"/></g><path d="M164.6 157.9h.7v-2h1.2c1.3 0 2-.9 2-1.8 0-1-.7-1.8-2-1.8h-1.9v5.6Zm.7-2.7V153h1.2c.9 0 1.2.5 1.2 1.2 0 .6-.3 1.1-1.2 1.1h-1.2Zm6 2.8c1.2 0 2-.9 2-2.2 0-1.3-.8-2.2-2-2.2-1.1 0-1.9.9-1.9 2.2 0 1.3.8 2.2 2 2.2Zm0-.6c-.8 0-1.2-.8-1.2-1.6s.4-1.6 1.2-1.6c.9 0 1.3.8 1.3 1.6s-.4 1.6-1.3 1.6Zm3.2.5h.6v-4.2h-.6v4.2Zm.3-5c.2 0 .4-.1.4-.4 0-.2-.2-.4-.4-.4-.3 0-.5.2-.5.4 0 .3.2.5.5.5Zm2.4 2.5c0-.8.4-1.2 1-1.2s1 .4 1 1v2.7h.7v-2.7c0-1-.6-1.6-1.5-1.6-.6 0-1 .3-1.2.7v-.6h-.7v4.2h.7v-2.5Zm6-1.7h-1v-1h-.6v1h-.7v.5h.7v2.6c0 .8.6 1.1 1.1 1.1h.5l-.1-.6h-.3c-.3 0-.6 0-.6-.6v-2.5h1v-.5Zm4 1c-.2-.7-.6-1-1.5-1-.8 0-1.5.4-1.5 1.1 0 .6.3 1 1.1 1.2l.7.1c.4.1.6.3.6.6 0 .4-.3.7-1 .7-.5 0-.8-.2-1-.7l-.5.2c.1.7.7 1 1.6 1 1 0 1.6-.5 1.6-1.2 0-.6-.4-1-1.1-1.1l-.6-.2c-.5-.1-.8-.3-.8-.6 0-.4.4-.6 1-.6.5 0 .7.3.8.6l.6-.2Z" fill="#F0F0EC"/><rect x="163.9" y="165.9" width="3.8" height="3.8" rx="1.9" fill="#48EAD4"/><path d="M173.2 171.2c1.4 0 2.3-.8 2.3-1.8 0-.9-.5-1.5-1.3-1.6.7-.2 1.1-.8 1.1-1.5 0-1-.8-1.8-2-1.8s-2.2.8-2.2 1.8h1c0-.6.5-1 1.2-1 .6 0 1 .5 1 1 0 .7-.5 1.1-1.2 1.1h-.5v.8h.5c1 0 1.5.5 1.5 1.1 0 .7-.6 1-1.4 1-.7 0-1.2-.3-1.3-.9h-1c0 1.1 1 1.8 2.3 1.8Zm5.8-6.7c-1.4 0-2.3 1-2.3 2.2 0 1.3 1 2.2 2 2.2.7 0 1.3-.4 1.7-.9 0 1.5-.5 2.4-1.5 2.4-.6 0-1-.4-1.2-1h-1a2 2 0 0 0 2.2 1.8c1.5 0 2.5-1.3 2.5-3.5 0-2.4-1.3-3.2-2.4-3.2Zm0 .9c.7 0 1.3.6 1.3 1.3 0 .7-.6 1.4-1.3 1.4-.8 0-1.3-.6-1.3-1.4 0-.7.5-1.3 1.3-1.3Z" fill="#48EAD4"/></g><defs><clipPath id="a"><rect x=".5" y=".5" width="229.6" height="190" rx="7.7" fill="#fff"/></clipPath><clipPath id="b"><path fill="#fff" transform="translate(10.3 47.5)" d="M0 0h209.9v75.5H0z"/></clipPath><clipPath id="c"><path fill="#fff" transform="translate(10.3 55.8)" d="M0 0h209.9v61.4H0z"/></clipPath><clipPath id="d"><path fill="#fff" transform="translate(10.3 55.8)" d="M0 0h209.9v61.4H0z"/></clipPath><clipPath id="g"><path fill="#fff" transform="translate(18 162.7)" d="M0 0h17.9v10.2H0z"/></clipPath><clipPath id="h"><path fill="#fff" transform="translate(93.5 162.7)" d="M0 0h17.9v10.2H0z"/></clipPath><linearGradient id="f" x1="10.3" y1="112" x2="10.3" y2="55.8" gradientUnits="userSpaceOnUse"><stop stop-color="#48E9D4"/><stop offset=".5" stop-color="#97FF78"/><stop offset="1" stop-color="#F6E15A"/></linearGradient></defs></svg>